<svg width="183" height="38" viewBox="0 0 183 38" fill="none" xmlns="http://www.w3.org/2000/svg">
<g clip-path="url(#clip0_183_261)">
<path d="M26.7118 0H11.2882C5.08529 0 0 5.08529 0 11.2882V26.6559C0 32.9147 5.08529 38 11.2882 38H26.6559C32.9147 38 38 32.9147 38 26.6559V11.2882C38 5.08529 32.9147 0 26.7118 0Z" fill="white"/>
<path d="M30.9588 23.6382V23.8059C30.9029 24.4765 30.5117 25.1471 29.7852 25.1471C29.2823 25.1471 28.8352 24.9794 28.4999 24.5324C28.1088 24.0294 27.7176 23.4706 27.3264 22.4647C28.3882 18.8324 31.6852 7.26471 31.6852 7.26471H25.4823C25.4823 7.26471 24.9235 10.0029 24.3646 12.4618C24.3646 12.4059 24.3088 12.35 24.3088 12.2941C23.8058 11.1765 22.9676 9.94706 22.0176 9.10883C20.397 7.60001 18.497 6.87354 16.2617 6.87354C13.1323 6.87354 10.4499 8.04706 8.32641 10.3382C6.25876 12.6294 5.14111 15.5353 5.14111 18.8324C5.14111 22.4647 6.20288 25.4265 8.27053 27.6618C10.4499 30.0088 13.0205 31.1265 16.4293 31.1265C18.3852 31.1265 20.2852 30.5677 22.0176 29.3941C23.1352 28.6677 24.197 27.6059 25.147 26.2647C25.5382 27.6059 25.9852 28.5 26.4323 29.1706C27.2146 30.2882 28.4441 30.9029 29.7294 30.9029C31.0705 30.9029 32.2999 30.2324 32.9146 29.1147C33.4735 28.1647 33.697 26.9353 33.697 24.9235V23.6941H30.9588V23.6382ZM20.5088 25.9853C19.5588 27.3824 18.3293 28.1088 16.9323 28.1088C15.3117 28.1088 14.0823 27.3824 13.1882 25.8735C12.2382 24.3088 11.7911 21.9618 11.7911 18.8882C11.7911 16.0941 12.2941 13.8588 13.2999 12.2382C14.2499 10.7294 15.4235 10.0588 16.9882 10.0588C18.3852 10.0588 19.5029 10.6735 20.4529 11.9029C21.4588 13.2441 22.3529 15.4794 22.9676 18.3853C22.2411 22.2412 21.4588 24.5882 20.5088 25.9853Z" fill="#D70926"/>
<path d="M57 7.82343C56.5529 5.86754 55.3235 4.52637 52.6411 4.52637C50.1264 4.52637 48.7294 5.86754 48.2823 7.82343L46.3823 16.597H48.45C48.9529 16.597 49.4 16.2058 49.5117 15.7587L49.9029 13.9705H55.4353L55.8264 15.7587C55.9382 16.2058 56.3853 16.597 56.8882 16.597H58.9559L57 7.82343ZM50.4617 11.5117L51.1323 8.38225C51.2441 7.87931 51.6353 7.09696 52.6411 7.09696C53.647 7.09696 54.0382 7.87931 54.15 8.38225L54.8206 11.5117H50.4617Z" fill="white"/>
<path d="M64.0971 7.48826H68.7353V16.653H71.6412V4.80591H62.9794C62.0294 4.80591 61.2471 5.58826 61.2471 6.53826V12.5177C61.2471 13.3 60.8559 13.803 60.2412 13.9706L59.6265 14.1383L60.1853 16.653H60.7441C62.7 16.653 64.1529 15.2 64.1529 12.6853V7.48826" fill="white"/>
<path d="M96.6205 4.80578H95.5588V3.4646H93.547C93.0441 3.4646 92.7088 3.85578 92.7088 4.30283V4.80578H91.647C88.0705 4.80578 85.8911 7.20872 85.8911 10.7293C85.8911 14.194 88.1264 16.6528 91.647 16.6528H92.7088V18.1058H94.7205C95.2235 18.1058 95.5588 17.7146 95.5588 17.2675V16.7087H96.6205C100.197 16.7087 102.432 14.3058 102.432 10.7852C102.432 7.2646 100.197 4.80578 96.6205 4.80578ZM91.647 14.0264C89.6911 14.0264 88.7411 12.797 88.7411 10.7293C88.7411 8.66166 89.6911 7.43225 91.647 7.43225H92.7088V14.0264H91.647ZM96.6205 14.0264H95.5588V7.43225H96.6205C98.5764 7.43225 99.5264 8.66166 99.5264 10.7293C99.5264 12.7411 98.6323 14.0264 96.6205 14.0264Z" fill="white"/>
<path d="M80.5822 7.82355H76.4469V4.80591H73.541V15.7588C73.541 16.2618 73.9322 16.5971 74.3793 16.5971H80.5263C83.041 16.5971 84.941 14.6971 84.941 12.1824C84.941 9.72355 83.3763 7.82355 80.5822 7.82355ZM80.5822 13.9706H76.4469V10.45H80.5822C81.3087 10.45 82.091 11.0647 82.091 12.1824C82.091 13.3559 81.2528 13.9706 80.5822 13.9706Z" fill="white"/>
<path d="M113.162 7.82343C112.715 5.86754 111.485 4.52637 108.803 4.52637C106.288 4.52637 104.891 5.86754 104.444 7.82343L102.488 16.597H104.556C105.059 16.597 105.506 16.2058 105.618 15.7587L106.009 13.9705H111.541L111.932 15.7587C112.044 16.2058 112.491 16.597 112.994 16.597H115.062L113.162 7.82343ZM106.624 11.5117L107.294 8.38225C107.406 7.87931 107.797 7.09696 108.803 7.09696C109.809 7.09696 110.2 7.87931 110.312 8.38225L110.982 11.5117H106.624Z" fill="white"/>
<path d="M129.871 27.0472C130.373 26.5442 130.709 25.8736 130.709 24.9236C130.709 22.856 129.088 21.3472 127.021 21.3472H119.979C119.532 21.3472 119.141 21.7383 119.141 22.1854V32.2442C119.141 32.6913 119.532 33.0825 119.979 33.0825H127.468C129.647 33.0825 131.156 31.5178 131.156 29.3942C131.1 28.4442 130.597 27.606 129.871 27.0472ZM126.965 23.806C127.356 23.806 127.859 24.2531 127.859 24.9795C127.859 25.706 127.356 26.0972 126.965 26.153H121.879V23.806H126.965ZM127.188 30.7354H121.879V28.3883H127.188C127.579 28.4442 128.082 28.8354 128.082 29.5619C128.138 30.2883 127.579 30.7354 127.188 30.7354Z" fill="white"/>
<path d="M110.815 21.1235C107.238 21.1235 104.779 23.6382 104.779 27.2706C104.779 30.9029 107.294 33.4177 110.815 33.4177H111.82C115.397 33.4177 117.856 30.9029 117.856 27.2706C117.856 23.6382 115.341 21.1235 111.82 21.1235H110.815ZM107.909 27.2706C107.909 25.1471 109.026 23.5265 111.038 23.5265H111.653C113.665 23.5265 114.782 25.1471 114.782 27.2706C114.782 29.3941 113.665 31.0147 111.653 31.0147H111.038C109.026 31.0147 107.909 29.3941 107.909 27.2706Z" fill="white"/>
<path d="M57.1118 21.4028L57.503 23.1911C57.6148 23.694 58.0618 24.0293 58.5648 24.0293H61.2471V33.194H64.153V24.0293H66.7795C67.2265 24.0293 67.7295 23.6381 67.8412 23.1911L68.2324 21.4028H57.1118Z" fill="white"/>
<path d="M154.124 21.4028V26.0411H148.479V21.4028H145.629V33.194H148.479V28.6117H154.124V33.194H156.974V21.4028H154.124Z" fill="white"/>
<path d="M90.6413 24.3647C90.1942 22.4088 88.9648 21.0676 86.2825 21.0676C83.7678 21.0676 82.3707 22.4088 81.9237 24.3647L79.9678 33.1382H82.0354C82.5384 33.1382 82.9854 32.747 83.0972 32.3L83.4884 30.5117H89.0207L89.4119 32.3C89.5236 32.747 89.9707 33.1382 90.4736 33.1382H92.5413L90.6413 24.3647ZM84.0472 28.0529L84.7178 24.9235C84.8295 24.4206 85.2207 23.6382 86.2266 23.6382C87.2325 23.6382 87.6236 24.4206 87.7354 24.9235L88.406 28.0529H84.0472Z" fill="white"/>
<path d="M142.388 24.3647C141.941 22.4088 140.712 21.0676 138.03 21.0676C135.515 21.0676 134.118 22.4088 133.671 24.3647L131.715 33.1382H133.782C134.285 33.1382 134.732 32.747 134.844 32.3L135.235 30.5117H140.768L141.159 32.3C141.271 32.747 141.718 33.1382 142.221 33.1382H144.288L142.388 24.3647ZM135.85 28.0529L136.521 24.9235C136.632 24.4206 137.024 23.6382 138.03 23.6382C139.035 23.6382 139.427 24.4206 139.538 24.9235L140.209 28.0529H135.85Z" fill="white"/>
<path d="M58.0057 33.1383L52.3616 33.1942C48.9527 33.1942 46.5498 30.7913 46.5498 27.2707C46.5498 23.806 48.9527 21.3472 52.3616 21.3472H56.6086L56.2175 23.1354C56.1057 23.5825 55.6586 23.9736 55.1557 23.9736H52.3616C50.5174 23.9736 49.4557 25.3148 49.4557 27.2148C49.4557 29.1148 50.5174 30.456 52.3616 30.456H56.4969C56.9439 30.456 57.4469 30.8472 57.5586 31.2942L58.0057 33.1383Z" fill="white"/>
<path d="M75.8325 21.4028H69.6854C69.1825 21.4028 68.8472 21.794 68.8472 22.2411V33.194H71.753V30.1764H75.8884C78.6825 30.1764 80.3031 28.2764 80.3031 25.7617C80.2472 23.2469 78.3472 21.4028 75.8325 21.4028ZM75.8325 27.5499H71.6972V24.0293H75.8325C76.5589 24.0293 77.3413 24.644 77.3413 25.7617C77.3413 26.8793 76.5589 27.5499 75.8325 27.5499Z" fill="white"/>
<path d="M181.394 30.6795H175.191V28.3883H181.953V26.0972H175.191V23.806H181.394C181.897 23.806 182.288 23.5825 182.456 22.9678L182.847 21.3472H173.18C172.677 21.3472 172.341 21.7383 172.341 22.1854V32.2442C172.341 32.7472 172.732 33.0825 173.18 33.0825H182.847L182.456 31.4619C182.344 30.903 181.897 30.6795 181.394 30.6795Z" fill="white"/>
<path d="M158.985 33.194V21.4028H161.891V29.1705L166.865 22.0734C167.144 21.6822 167.759 21.4028 168.262 21.4028H170.385V33.194H167.479V25.3705L162.506 32.4675C162.227 32.8587 161.612 33.1381 161.109 33.1381H158.985" fill="white"/>
<path d="M101.259 27.2146L105.282 21.4028H102.656C102.097 21.4028 101.706 21.5705 101.315 22.1293L99.1913 25.4822H98.8001L96.6766 22.1293C96.3413 21.5705 95.9501 21.4028 95.3354 21.4028H92.5972L96.6766 27.3822L92.6531 33.194H95.2795C95.8383 33.194 96.2295 33.0264 96.6207 32.4675L98.7442 29.1146H99.1354L101.259 32.4675C101.594 33.0264 102.041 33.194 102.6 33.194H105.338L101.259 27.2146Z" fill="white"/>
</g>
<defs>
<clipPath id="clip0_183_261">
<rect width="182.847" height="38" fill="white"/>
</clipPath>
</defs>
</svg>
