<svg width="140" height="110" viewBox="0 0 140 110" fill="none" xmlns="http://www.w3.org/2000/svg">
<path fill-rule="evenodd" clip-rule="evenodd" d="M75.4095 12.1768C76.467 11.6047 77.6059 11.1144 78.6634 10.5423C88.8319 5.72061 99.8139 2.12477 110.959 0.490297C115.595 -0.163492 121.859 -0.57211 126.171 1.5527C128.042 2.45166 129.506 3.84097 130.157 5.80233C130.808 7.68198 130.645 9.72507 129.994 11.6047C128.611 16.0178 124.95 20.104 121.371 23.046C122.673 23.945 123.893 25.0074 124.95 26.1515C126.496 27.786 127.96 29.6656 128.855 31.7087C132.272 31.3818 135.77 31.2184 139.186 31.0549C139.512 31.0549 139.837 31.3001 139.837 31.7087C139.837 32.0356 139.593 32.3625 139.186 32.3625C135.851 32.526 132.597 32.6894 129.262 32.9346C129.994 35.0594 130.157 37.1842 129.506 39.3907V39.4725C129.343 40.1263 128.042 41.1887 127.554 41.5973C126.008 42.9866 124.462 44.3759 123.079 45.8469C121.859 47.1545 120.72 48.5438 119.581 49.9331C118.036 51.8945 116.572 53.8558 115.189 55.8172C112.342 59.9034 109.657 64.0713 107.217 68.4026C106.078 70.364 104.939 72.4071 103.881 74.3685C102.336 77.0653 100.871 79.8439 99.2445 82.4591C98.6751 83.4398 97.2921 85.5646 96.316 86.1367C96.0719 86.3001 95.8279 86.3818 95.5025 86.3001C94.9331 86.3001 94.6077 85.8915 94.3636 85.4829C94.2009 84.9925 94.1196 84.4205 94.1196 83.9301C94.0382 81.7236 94.7704 78.8633 95.5025 76.8202C97.0481 72.5705 98.6751 68.3209 100.383 64.153C100.953 62.7637 101.604 61.4561 102.254 60.1485C102.661 59.2496 103.231 58.2689 103.8 57.4517C104.858 56.1441 105.752 54.4279 106.484 52.8751C106.647 52.5482 107.217 51.2407 107.461 50.5052C107.135 50.7503 106.81 51.1589 106.729 51.2407C105.427 52.63 104.125 54.2644 102.987 55.7355C102.173 56.7979 101.278 57.7786 100.383 58.841C99.0005 60.3937 97.4548 61.9465 95.9092 63.3358C95.3398 63.8261 93.3874 65.624 92.4926 64.9702C92.4113 64.8885 92.4113 64.8885 92.3299 64.8068C91.9232 64.153 92.574 62.9272 92.9807 62.3551C93.9569 60.7206 95.0957 59.1679 96.1533 57.6151C98.431 54.4279 100.627 51.1589 102.824 47.89C105.264 44.2124 107.623 40.1263 109.332 36.0401C105.102 37.1025 100.953 38.4101 96.8041 39.7176C96.1533 40.78 95.5838 41.9242 94.9331 42.9866L93.8755 45.1114C92.9807 46.991 91.9232 48.8707 90.8656 50.7503C89.6454 53.3655 88.4252 56.0624 87.449 58.841C86.9609 60.312 85.8221 63.8261 86.0661 65.2971C86.0661 65.3789 86.1475 65.5423 86.1475 65.5423C86.2288 65.5423 86.3915 65.4606 86.4729 65.4606C87.1236 65.1337 87.9371 64.3165 88.2625 63.6627C88.4252 63.3358 88.8319 63.254 89.1573 63.4175C89.4827 63.5809 89.5641 63.9896 89.4014 64.3165C88.9133 65.1337 87.9371 66.1961 87.0423 66.6047C86.6356 66.8499 86.1475 66.9316 85.6594 66.7682C85.0899 66.523 84.8459 66.0326 84.7645 65.4606C84.4392 63.6627 85.6594 60.0668 86.2288 58.3506C86.3102 58.1055 86.3915 57.8603 86.4729 57.5334C86.2288 57.8603 86.0661 58.1055 85.8221 58.4324C84.3578 60.4754 82.8122 62.5185 81.0225 64.2347C80.4531 64.8068 78.9075 66.4413 78.0127 66.4413C76.3857 66.523 76.1417 64.7251 76.223 63.4175C76.3044 62.3551 76.467 61.211 76.7111 60.1485C76.9551 59.1679 77.1992 58.1055 77.4432 57.1248C74.6774 61.211 71.5862 65.1337 68.4136 68.9747C68.0882 69.7919 67.8442 70.6092 67.5188 71.5081C65.6478 76.9836 63.8581 82.3774 61.9871 87.8529C60.3601 92.6745 58.8145 97.4145 57.2689 102.236C57.1062 102.645 57.0249 103.053 56.8622 103.544C56.4554 105.097 55.5606 108.365 54.259 109.346C53.2829 110.082 52.4694 109.591 51.8186 108.774C50.1103 106.486 49.7849 103.299 49.8662 100.52C50.0289 96.4338 51.1678 92.0208 52.4694 88.1797C53.2829 85.8098 54.8285 83.4398 56.3741 81.3967C58.4078 78.6181 60.6855 76.0029 62.9633 73.3878C64.3462 71.7533 65.8105 70.0371 67.1934 68.4026C68.8203 63.9078 70.5286 59.413 72.3183 55C71.3421 56.3075 70.3659 57.5334 69.3084 58.6775C68.4136 59.7399 65.1597 63.5809 63.6954 63.4175C63.6141 63.4175 63.4514 63.4175 63.37 63.3358C62.6379 63.0906 62.3125 62.4368 62.1498 61.7013C61.9871 60.9658 62.0685 60.0668 62.1498 59.3313C62.2311 58.5958 62.3938 57.7786 62.5565 57.0431C61.3363 59.0044 60.1161 60.8841 58.8145 62.7637C57.757 65.3789 55.9673 67.8306 54.0963 69.7919C53.2015 70.6909 51.1678 72.8157 49.7849 72.1619C48.4833 71.5899 48.5647 69.5468 48.646 68.4026C48.8901 66.1144 49.6222 63.5809 50.273 61.3744C51.5746 57.2882 53.1202 53.202 54.7471 49.1976C55.4793 47.3179 56.2927 45.3566 57.1062 43.4769C59.1399 38.4918 61.3363 33.5884 63.5327 28.6849C64.3462 26.8053 65.241 25.0074 66.0545 23.1277C65.8105 23.5364 65.5664 23.8633 65.3224 24.2719C64.1021 26.0698 62.9633 27.9494 61.7431 29.7474C58.6518 34.569 55.8046 39.5542 53.0388 44.6211C51.2492 47.7266 49.6222 50.9955 47.9952 54.1827C44.904 60.5572 41.9755 67.0133 39.1283 73.5512C38.7216 74.4502 38.3148 75.5126 37.8267 76.4115V76.4933C37.7454 76.8202 37.42 77.0653 37.0946 76.9836C36.6879 76.9019 36.5252 76.575 36.6065 76.2481C36.6065 76.0847 36.7692 75.7578 36.7692 75.5943C36.9319 75.104 37.0946 74.6954 37.2573 74.205C37.8267 72.5705 38.3148 70.9361 38.8843 69.3833C43.033 56.9613 47.2631 44.5393 51.2492 31.9539C51.4932 31.1367 51.7372 30.4011 51.9813 29.5839C51.7372 29.7474 51.5746 29.9925 51.3305 30.156C48.8087 32.6077 46.3683 35.1411 44.1719 37.9197C42.2195 40.3714 40.4299 42.8231 38.8029 45.4383C37.5013 47.3997 36.2811 49.4427 35.0609 51.4858C34.3288 52.63 33.678 53.7741 32.9459 54.9182C34.7355 54.2644 36.4438 53.6107 38.2335 52.9569C39.291 52.5483 40.4299 52.1396 41.4874 51.731C41.8128 51.6493 42.2195 51.8127 42.3009 52.1396C42.3822 52.4665 42.2195 52.8751 41.8941 52.9569C40.6739 53.3655 39.535 53.8558 38.3148 54.2644C36.1184 55.0817 33.922 55.8989 31.7256 56.7162C30.8308 58.1055 29.936 59.4948 29.0411 60.8841C27.7396 64.5616 26.5194 68.3209 25.6245 72.1619C24.8924 75.2674 24.4043 78.6181 24.6484 81.7236C24.6484 82.0505 24.4043 82.3774 24.0789 82.4591C23.7535 82.4591 23.4281 82.2139 23.3468 81.887C22.94 76.4933 24.6484 70.1188 26.3567 64.8068C26.194 65.052 26.0313 65.2971 25.8686 65.5423C23.7535 68.4026 21.6385 71.3447 19.2794 74.0416L19.1167 74.6954C18.5472 76.4933 17.9778 78.2912 17.4084 80.0891C16.9203 81.4784 16.5135 82.8677 15.9441 84.257C15.5374 85.2377 14.4798 88.098 13.1783 88.0163H13.0969H13.0156C12.1208 87.7711 12.3648 86.3001 12.4461 85.6463C12.6902 84.257 13.0156 82.786 13.341 81.3967C13.585 80.5795 13.7477 79.7622 13.9918 79.0267C13.2596 79.517 12.5275 79.8439 11.714 80.0891C11.1446 80.2526 10.5751 80.3343 10.0057 80.416C7.97201 80.5795 6.101 80.0074 4.55539 78.7815C2.76573 77.3105 1.62686 75.1857 0.976075 72.9792C0.569335 71.6716 0.325291 70.2823 0.243943 68.893C-0.488189 60.8841 2.76573 53.7741 7.56527 47.6448C11.7954 42.3328 17.0016 38.0014 22.3706 33.997C25.2991 31.7904 28.5531 29.8291 31.7256 28.1129C31.9697 27.5408 32.2137 26.9688 32.3764 26.4784C33.8407 22.8826 35.3049 19.3685 36.9319 15.8543C38.2335 13.0757 39.535 10.2154 40.9993 7.51853C41.162 7.19163 41.5687 7.10991 41.8941 7.27336C42.2195 7.4368 42.3009 7.84542 42.1382 8.17232C40.6739 10.8692 39.3723 13.6478 38.0708 16.4264C36.5252 19.9405 34.9796 23.4546 33.5966 26.9688C33.5966 27.0505 33.5153 27.0505 33.5153 27.1322C35.1423 26.2332 36.6879 25.416 38.3148 24.5988C38.9656 23.3729 39.6164 22.0653 40.2672 20.8395C42.3009 16.9985 44.4159 13.1575 46.6937 9.4799C47.3445 8.41749 48.1579 7.19163 48.9714 6.21095C49.2968 5.88406 50.0289 4.90337 50.517 5.06682C51.3305 5.31199 51.1678 6.3744 51.0051 7.02819C50.8424 7.84542 50.517 8.66266 50.1916 9.4799C49.7849 10.624 49.2968 11.7682 48.8087 12.9123C47.5885 15.7726 46.3683 18.5512 45.1481 21.4115C46.8564 20.676 48.5647 19.9405 50.273 19.2867C52.388 18.4695 54.5031 17.6523 56.6181 16.9167C57.4316 15.0371 58.2451 12.994 59.3026 11.2778C59.5467 10.7875 59.9534 10.2154 60.2788 9.88851C60.6042 9.56162 61.0923 9.23472 61.5804 9.56162C61.7431 9.64334 61.8244 9.80679 61.9058 9.97024C62.2311 10.7875 61.499 12.7488 61.255 13.5661C61.0109 14.3016 60.8482 15.0371 60.6042 15.6909C65.4851 13.893 70.4473 12.7488 75.4095 12.1768ZM32.6205 28.7667C29.2038 37.4294 26.0313 46.0921 22.94 54.8365C22.3706 56.3893 21.8825 57.942 21.3131 59.5765C21.8012 59.3313 22.2893 59.1679 22.696 58.9227C23.9162 55.4903 25.2178 51.9762 26.6821 48.6255C29.936 41.1069 33.4339 33.5884 37.176 26.2332C35.7117 27.1322 34.1661 27.9494 32.6205 28.7667ZM55.9674 18.2243C54.1777 18.8781 52.4694 19.5319 50.6797 20.1857C48.4833 21.0029 46.3683 21.9836 44.2532 22.8826C41.7314 28.6849 39.1283 34.569 36.8506 40.4531C35.9557 42.8231 34.9796 45.2748 34.0034 47.6448C32.9459 50.1783 31.9697 52.7934 30.9935 55.3269C31.9697 53.8558 32.8645 52.3031 33.8407 50.7503C35.0609 48.7072 36.2811 46.7459 37.5827 44.7028C39.291 42.0876 41.0807 39.4725 43.1144 37.0208C45.3921 34.2422 47.7512 31.627 50.3543 29.1753C51.0865 28.4398 51.8999 27.7043 52.7134 27.0505C53.771 24.1084 54.8285 21.1664 55.9674 18.2243ZM27.8209 60.312C28.065 59.4948 28.3904 58.7592 28.7158 57.942C27.3328 58.5141 26.0313 59.0044 24.6484 59.5765C24.4043 59.6582 24.0789 59.8217 23.8349 59.9034C23.2654 61.4561 22.696 63.0906 22.2079 64.6433C22.452 64.9702 22.696 65.2154 23.0214 65.5423C23.2654 65.7875 23.2654 66.1961 23.0214 66.4413C22.7773 66.6864 22.3706 66.6864 22.1266 66.4413C22.0452 66.3595 21.8825 66.1961 21.8012 66.1144C21.3131 67.6671 20.825 69.1381 20.3369 70.6909C21.8825 68.7295 23.3468 66.6864 24.8924 64.7251C25.7872 63.254 26.8448 61.783 27.8209 60.312ZM14.4798 76.8202C15.7814 72.1619 17.327 67.5854 18.7913 63.0089L18.7099 62.9272C18.6286 62.8454 18.4659 62.9272 18.3032 62.9272C18.1405 63.0089 17.9778 63.0089 17.8151 62.9272C17.4084 62.7637 17.2457 62.4368 17.327 62.0282C17.4897 61.3744 19.0353 60.6389 19.6861 60.312C20.3369 58.3506 20.9877 56.3893 21.7198 54.3462C24.567 46.0921 27.5769 37.838 30.8308 29.7474C28.1463 31.3001 25.5432 32.9346 23.1027 34.7325C17.8151 38.6552 12.6088 42.9866 8.54144 48.2169C3.82326 54.101 0.732031 60.9658 1.38282 68.6478C1.46416 69.9554 1.70821 71.263 2.11495 72.4888C2.68438 74.3685 3.66056 76.3298 5.20617 77.6374C6.50774 78.6998 8.1347 79.1901 9.76166 79.0267C10.2498 78.945 10.7378 78.8633 11.2259 78.6998C12.4461 78.3729 13.585 77.6374 14.4798 76.8202ZM111.121 30.728C109.006 32.1173 106.891 33.5066 104.776 34.8142C104.532 35.1411 104.288 35.468 104.044 35.7949C103.8 36.1218 103.393 36.2035 103.149 35.9584C103.068 35.9584 103.068 35.8766 102.987 35.7949C102.01 36.367 100.953 36.939 99.9766 37.5111C103.312 36.5304 106.647 35.5497 109.982 34.7325C110.308 33.7518 110.633 32.6894 110.877 31.7087C111.04 31.3818 111.04 31.0549 111.121 30.728ZM53.9336 27.8677C53.4456 29.3387 52.9575 30.8915 52.4694 32.3625C49.1341 42.9049 45.6361 53.2838 42.0568 63.7444C43.6024 60.312 45.2294 56.9613 46.8564 53.6107C48.402 50.3417 50.0289 47.1545 51.8186 43.9673C54.5844 38.9004 57.513 33.9153 60.6042 29.0936C61.3363 27.9494 66.7866 19.2867 67.7628 18.7964C68.1696 18.6329 68.4949 18.7147 68.6576 19.1233C68.739 19.2867 68.739 19.5319 68.6576 19.6953C68.5763 20.104 68.4136 20.5943 68.2509 21.0029C68.0069 21.7384 67.6815 22.3922 67.3561 23.1277C66.4612 25.1708 65.5664 27.2956 64.6716 29.3387C62.4752 34.2422 60.3601 39.1456 58.2451 44.049C57.4316 45.9286 56.6995 47.8083 55.9674 49.6879C54.3404 53.6924 52.7948 57.6968 51.4932 61.783C50.8424 63.8261 50.1916 66.1144 49.8662 68.2392C49.7849 68.8112 49.5409 70.6909 50.273 71.0178C51.0865 71.3447 53.0388 69.2199 53.4456 68.7295C55.2352 66.6864 56.8622 64.3982 58.3264 62.1916C60.0347 59.6582 61.6617 56.9613 63.37 54.3462C63.6954 53.8558 63.9395 53.3655 64.2648 52.9569C64.3462 52.7934 64.5089 52.63 64.5902 52.3848C65.4851 50.0965 66.6239 47.8083 67.7628 45.6835C68.2509 44.7845 68.739 43.8855 69.3084 43.15C69.7152 42.6597 70.366 41.8424 71.0981 42.0876C71.0981 42.0876 71.1794 42.0876 71.1794 42.1693C72.237 42.7414 71.4235 44.2942 71.0167 44.9479C70.1219 46.5824 68.983 48.2169 67.9255 49.6879C67.1934 50.8321 66.3799 51.8945 65.6478 53.0386C65.4037 53.6924 65.0783 54.4279 64.9156 55.0817C64.4275 56.5527 64.0208 58.2689 63.8581 59.9034C63.7768 60.5572 63.7768 61.2927 63.8581 61.8647C63.8581 62.0282 64.0208 62.4368 64.1835 62.4368C64.1835 62.4368 64.1835 62.4368 64.2648 62.4368C64.5902 62.4368 65.6478 61.4561 65.8918 61.2927C66.9493 60.312 67.9255 59.2496 68.8203 58.1872C69.3898 57.5334 69.8779 56.8796 70.4473 56.2258C71.4235 55 72.3997 53.7741 73.2131 52.4665C73.8639 51.5676 74.5147 50.5052 75.0028 49.5245C75.4095 48.7072 75.8163 47.8083 76.223 46.991C76.1417 46.991 76.0603 46.991 75.979 46.991C75.6536 46.9093 75.2468 46.8276 75.1655 46.419C75.0841 45.8469 75.979 45.4383 76.3857 45.1931C76.6297 45.1114 76.8738 44.9479 77.1992 44.8662C77.5246 44.1307 77.9313 43.3135 78.2567 42.578C78.6634 41.679 79.0702 40.8618 79.4769 39.9628C79.6396 39.6359 80.0464 39.4725 80.3718 39.6359C80.6972 39.7994 80.8598 40.208 80.6971 40.5349C80.2904 41.3521 79.8837 42.1693 79.5583 42.9866C79.3956 43.3952 79.1515 43.8038 78.9888 44.2124C80.5344 43.6404 82.0801 43.15 83.6257 42.6597C84.3578 41.2704 87.3677 35.5497 88.4252 35.1411C88.7506 34.9777 89.2387 34.8959 89.5641 35.0594C90.3776 35.5497 89.5641 37.3477 89.32 37.9197C88.832 39.0639 88.1812 40.2897 87.6117 41.4338C89.4827 40.8618 91.2724 40.2897 93.1434 39.7176C94.1196 39.2273 95.0957 38.737 96.1533 38.1649C97.0481 36.367 97.9429 34.569 98.9191 32.7711C99.3258 32.0356 99.8139 31.2184 100.302 30.5646C100.546 30.2377 100.953 29.9925 101.36 29.9925C101.766 30.0742 102.01 30.4011 101.929 30.8098C101.848 31.2184 101.441 31.9539 101.197 32.2808C100.627 33.2615 100.139 34.1604 99.5699 35.1411C99.2445 35.6315 99.0005 36.1218 98.6751 36.6121C100.139 35.7949 101.685 34.9777 103.149 34.0787L103.881 33.6701C104.939 32.1991 106.24 30.6463 107.623 29.3387C108.6 28.5215 110.064 27.3774 111.447 27.7043C111.609 27.7043 111.691 27.786 111.853 27.8677C112.016 27.9494 112.097 28.1129 112.26 28.2763C114.701 26.5601 117.06 24.8439 119.337 23.046C114.538 19.8588 108.844 17.4071 103.312 15.7726C95.0144 13.3209 86.2288 12.3402 77.6873 13.0757C77.1178 13.1575 76.467 13.1575 75.8976 13.2392C68.0882 17.3254 60.4415 22.2288 53.9336 27.8677ZM17.1643 76.1664C16.6762 76.6567 16.1882 77.1471 15.7001 77.5557C15.2933 78.8633 14.9679 80.2526 14.5612 81.5601C14.2358 82.8677 13.8291 84.3387 13.6664 85.728C13.6664 85.8098 13.6664 85.9732 13.585 86.1367C14.0731 85.3194 14.6425 83.7667 14.7239 83.5215C15.6187 81.0698 16.3509 78.6181 17.1643 76.1664ZM49.5409 6.86474C48.7274 8.00887 47.5071 10.1337 47.1818 10.5423C45.1481 14.0564 43.1957 17.6523 41.3247 21.1664C40.918 21.9019 40.5926 22.6374 40.1858 23.2912C41.2434 22.8008 42.2195 22.3105 43.2771 21.8202L43.6024 21.0847C44.904 18.0609 46.2869 15.0371 47.5072 12.0133C47.9952 10.8692 48.402 9.72507 48.8901 8.66266C49.1341 8.17232 49.3782 7.51853 49.5409 6.86474ZM58.3264 16.0995C58.6518 16.0178 58.9772 15.8543 59.3026 15.7726C59.5467 14.7919 59.7907 13.8112 60.1161 12.8306C60.1974 12.5037 60.3601 12.0951 60.4415 11.6864C59.628 12.994 58.8959 14.5468 58.3264 16.0995ZM85.9034 44.3759C84.1951 47.3179 82.4055 50.26 80.6158 53.1203L80.3718 53.4472C80.2091 53.8558 80.1277 54.2644 79.965 54.6731C79.3956 56.5527 78.8261 58.4324 78.3381 60.312C78.094 61.4561 77.85 62.6003 77.7686 63.7444C77.7686 63.9896 77.6873 65.3789 78.1754 65.3789C78.5821 65.3789 80.1277 63.7444 80.4531 63.4992C82.0801 61.783 83.5443 59.8217 84.9272 57.942C86.7169 55.4903 88.3439 52.8751 89.8081 50.26C91.0284 47.6448 92.4113 45.1114 93.7942 42.578C94.1196 41.8424 94.445 41.1887 94.8517 40.4531L93.5501 40.8618C92.1672 41.5156 90.8657 42.1693 89.4827 42.8231C88.3439 43.3952 87.1236 43.8855 85.9034 44.3759ZM84.0324 45.0297H83.9511C83.8697 45.2748 83.707 45.52 83.6257 45.7652C83.707 45.52 83.8697 45.2748 84.0324 45.0297ZM70.1219 65.624C73.3758 61.5378 76.467 57.3699 79.2329 52.9569C80.1277 50.5052 81.1039 48.0534 82.1614 45.6835C80.7785 46.0921 79.3142 46.5007 77.85 46.8276C75.0841 52.9569 72.481 59.2496 70.1219 65.624ZM85.4153 42.0876C85.578 42.0876 85.6594 42.0059 85.8221 42.0059C86.6356 40.5349 87.5304 38.9821 88.1812 37.4294C88.1812 37.4294 88.1812 37.4294 88.1812 37.3477C87.9371 37.7563 87.6931 38.0832 87.6117 38.2466C86.7982 39.4725 86.0661 40.78 85.4153 42.0876ZM107.217 31.7087C108.518 30.8915 109.82 29.9925 111.121 29.1753C110.308 29.0118 109.088 29.9925 108.518 30.5646C108.03 30.8915 107.623 31.3001 107.217 31.7087ZM120.395 23.945C117.792 25.9881 115.189 27.8677 112.504 29.7474C112.504 30.4829 112.423 31.2184 112.26 31.9539C112.097 32.7711 111.853 33.5884 111.609 34.3239C116.897 33.098 122.266 32.3625 127.635 31.7904C126.74 29.9925 125.52 28.4398 124.137 27.0505C122.998 25.9881 121.697 24.9257 120.395 23.945ZM111.04 35.8766C109.332 40.3714 106.729 44.8662 104.044 48.8707C101.848 52.1396 99.6512 55.4086 97.3735 58.5958C97.0481 59.0861 94.689 62.3551 93.8755 63.7444C94.3636 63.3358 95.0957 62.7637 95.2584 62.6003C96.8041 61.211 98.2683 59.7399 99.5699 58.1872C100.465 57.2065 101.278 56.2258 102.092 55.1634C103.312 53.6107 104.613 51.9762 105.996 50.5052C106.484 49.9331 107.867 48.5438 108.762 49.2793C109.576 49.9331 108.274 52.8751 107.949 53.6107C107.217 55.2451 106.24 57.043 105.102 58.4324C104.532 59.1679 104.044 60.1485 103.637 60.9658C102.987 62.2734 102.417 63.5809 101.848 64.8885C100.058 68.9747 98.431 73.2243 96.9668 77.474C96.316 79.4353 95.5838 82.0505 95.6652 84.1753C95.6652 84.5022 95.7465 84.9108 95.8279 85.2377C95.8279 85.2377 95.8279 85.2377 95.8279 85.3194C96.56 84.9108 97.9429 82.7043 98.3497 81.9688C99.9766 79.3536 101.441 76.6567 102.905 74.0416C104.044 72.0802 105.183 70.0371 106.24 68.0757C108.681 63.7444 111.365 59.4948 114.294 55.4086C115.677 53.3655 117.222 51.4041 118.687 49.4427C119.826 48.0534 120.964 46.5824 122.266 45.2748C123.73 43.7221 125.276 42.3328 126.821 40.9435C127.066 40.78 128.286 39.6359 128.367 39.3907V39.309C128.937 37.2659 128.774 35.3046 128.042 33.3432C122.347 33.6701 116.653 34.4873 111.04 35.8766ZM120.314 22.3105C123.812 19.6136 127.472 15.6092 128.855 11.2778C129.343 9.64334 129.587 7.92715 129.018 6.29267C128.448 4.6582 127.147 3.51407 125.683 2.77856C121.615 0.817192 115.514 1.22581 111.203 1.79788C100.221 3.35062 89.32 6.94646 79.2329 11.6864C79.1515 11.6864 79.0702 11.7682 79.0702 11.7682C87.3677 11.1961 95.6652 12.2585 103.637 14.6285C109.413 16.4264 115.351 18.9598 120.314 22.3105ZM71.9116 13.9747C68.0069 14.6285 64.1835 15.6092 60.4415 16.7533C60.3601 16.9985 60.0347 17.2436 59.7094 17.1619C59.628 17.1619 59.5467 17.0802 59.4653 17.0802C58.8145 17.2436 58.2451 17.4888 57.6757 17.6523C56.6181 20.1857 55.642 22.8826 54.7471 25.4977C60.0347 21.1664 65.8918 17.3254 71.9116 13.9747ZM29.2852 56.3075C30.4241 53.2838 31.6443 50.1783 32.8645 47.1545C33.8407 44.7845 34.7355 42.4145 35.7117 39.9628C37.8267 34.4873 40.1858 29.0936 42.5449 23.6998C41.406 24.1901 40.3485 24.7622 39.2097 25.3343C35.2236 33.1797 31.4002 41.1069 27.9023 49.1976C26.6007 52.2214 25.4618 55.2451 24.323 58.2689C26.0313 57.6151 27.6582 56.9613 29.2852 56.3075ZM16.3509 75.104C16.7576 74.6954 17.1643 74.2867 17.5711 73.7964C17.7338 73.6329 17.8965 73.4695 18.0592 73.306C18.954 70.5274 19.7675 67.7488 20.7436 64.9702C20.4996 64.6433 20.1742 64.3165 19.9302 63.9896C18.6286 67.7488 17.4897 71.4264 16.3509 75.104ZM66.4612 72.1619C65.8105 72.9792 65.0783 73.7964 64.4275 74.5319C62.2311 77.0653 59.9534 79.6805 58.001 82.3774C56.6181 84.257 55.0725 86.5453 54.259 88.8335C52.9575 92.5928 51.8186 96.8425 51.6559 100.847C51.5746 103.299 51.8186 106.241 53.3642 108.284C53.4456 108.447 53.771 108.774 54.015 108.611C54.9098 107.957 55.8046 104.688 56.13 103.544C56.2927 103.135 56.3741 102.645 56.5368 102.236C58.0824 97.4145 59.7094 92.5928 61.255 87.8529C62.9633 82.5408 64.6716 77.3105 66.4612 72.1619ZM20.7436 61.2927C20.5809 61.7013 20.4183 62.1916 20.2556 62.6003C20.5809 62.9271 20.825 63.1723 21.069 63.4992C21.3944 62.5185 21.7198 61.5378 22.0452 60.6389C21.7198 60.8841 21.2317 61.0475 20.7436 61.2927Z" fill="#1E48B5"/>
</svg>
