<svg width="560" height="229" viewBox="0 0 560 229" fill="none" xmlns="http://www.w3.org/2000/svg">
<path d="M147.233 224.42V187.169H168.638V148.392H147.233V82.44H105.341V148.392H45.867L116.043 4.58H70.1765L0 148.392V187.169H105.341V224.42H147.233Z" fill="#1E48B5"/>
<path d="M280.054 229C335.4 229 369.953 189.001 369.953 114.5C369.953 39.9987 335.4 0 280.054 0C224.708 0 190.002 39.9987 190.002 114.5C190.002 189.001 224.708 229 280.054 229ZM280.054 189.917C249.017 189.917 234.034 160.3 234.034 114.5C234.034 68.7 249.017 39.0827 280.054 39.0827C310.938 39.0827 325.921 68.7 325.921 114.5C325.921 160.3 310.938 189.917 280.054 189.917Z" fill="#1E48B5"/>
<path d="M538.595 224.42V187.169H560V148.392H538.595V82.44H496.704V148.392H437.229L507.406 4.58H461.539L391.362 148.392V187.169H496.704V224.42H538.595Z" fill="#1E48B5"/>
</svg>
