<svg xmlns="http://www.w3.org/2000/svg" xmlns:xlink="http://www.w3.org/1999/xlink"><symbol fill="none" viewBox="0 0 11 18" id="arrow"><path d="M1.3 0l8.9 9-8.9 9L0 16.7 7.7 9 0 1.3 1.3 0z" fill="#1E48B5"/></symbol><symbol fill="none" viewBox="0 0 15 15" id="close"><path d="M1.414 0L0 1.4l5.728 5.67L0 12.74l1.414 1.4 5.728-5.67L12.728 14l1.414-1.4-5.586-5.53 5.586-5.53-1.414-1.4-5.586 5.53L1.414 0z" fill="#1E48B5"/></symbol><symbol fill="none" viewBox="0 0 18 14" id="menu"><path d="M0 0h18v2H0V0zm0 6h18v2H0V6zm0 6h18v2H0v-2z" fill="#1E48B5"/></symbol><symbol fill="none" viewBox="0 0 18 18" id="plus"><path d="M10.1 0h-2v8.1H0v2h8.1V18h2v-7.9H18v-2h-7.9V0z" fill="#1E48B5"/></symbol><symbol fill="none" viewBox="0 0 18 16" id="telegram"><path d="M16.785.1L.84 6.247c-1.088.438-1.08 1.045-.2 1.316L4.735 8.84l9.472-5.976c.448-.273.857-.126.52.172L7.053 9.962H7.05h.002l-.283 4.22c.414 0 .597-.19.829-.413l1.988-1.934 4.136 3.055c.762.42 1.31.204 1.5-.706L17.938 1.39C18.216.276 17.513-.229 16.785.1z" fill="#1E48B5"/></symbol><symbol fill="none" viewBox="0 0 18 18" id="whatsapp"><path fill-rule="evenodd" clip-rule="evenodd" d="M13.061 10.787c-.223-.112-1.319-.65-1.523-.726-.204-.074-.353-.11-.502.113-.148.222-.575.724-.705.873-.13.149-.26.167-.483.056-.223-.112-.941-.347-1.792-1.106-.662-.591-1.11-1.321-1.24-1.545-.13-.222-.014-.343.098-.454.1-.1.222-.26.334-.39.112-.13.148-.224.223-.373.075-.148.037-.278-.019-.39-.056-.112-.501-1.209-.687-1.655-.18-.434-.364-.375-.501-.383a9.642 9.642 0 00-.428-.007.817.817 0 00-.594.279c-.204.223-.78.762-.78 1.86 0 1.096.799 2.155.91 2.305.112.148 1.572 2.4 3.807 3.365.533.23.947.367 1.27.469.535.17 1.02.146 1.405.088.427-.064 1.318-.539 1.504-1.06.185-.52.185-.966.13-1.06-.056-.092-.204-.148-.428-.26h.001zm-4.066 5.552h-.003a7.402 7.402 0 01-3.774-1.034l-.27-.16-2.807.736.75-2.736-.177-.28A7.396 7.396 0 011.581 8.92c.002-4.088 3.327-7.413 7.417-7.413a7.36 7.36 0 015.24 2.173 7.37 7.37 0 012.17 5.245c-.002 4.087-3.327 7.414-7.413 7.414zm6.309-13.723A8.862 8.862 0 008.994 0C4.079 0 .076 4.001.075 8.919c0 1.572.41 3.106 1.19 4.459L0 18l4.728-1.24a8.911 8.911 0 004.263 1.085h.004c4.915 0 8.917-4 8.919-8.92a8.864 8.864 0 00-2.61-6.309z" fill="#1E48B5"/></symbol></svg>