<svg width="6" height="10" viewBox="0 0 6 10" fill="none" xmlns="http://www.w3.org/2000/svg">
<path d="M4.09409 0.5C4.69709 0.5 4.99859 0.9104 4.99859 1.38065C4.99859 1.9679 4.47479 2.51105 3.79304 2.51105C3.22199 2.51105 2.88899 2.17355 2.90474 1.61555C2.90474 1.1462 3.30119 0.5 4.09409 0.5ZM2.23874 9.5C1.76264 9.5 1.41389 9.2066 1.74689 7.9142L2.29319 5.6228C2.38814 5.2565 2.40389 5.10935 2.29319 5.10935C2.15054 5.10935 1.53314 5.36225 1.16729 5.612L0.929688 5.216C2.08709 4.2323 3.41864 3.65585 3.99014 3.65585C4.46579 3.65585 4.54499 4.2287 4.30739 5.10935L3.68144 7.51775C3.57074 7.943 3.61799 8.0897 3.72914 8.0897C3.87179 8.0897 4.33979 7.9133 4.79969 7.54655L5.06969 7.91285C3.94379 9.059 2.71394 9.5 2.23874 9.5Z" fill="white"/>
</svg>
