<svg width="90" height="22" viewBox="0 0 90 22" fill="none" xmlns="http://www.w3.org/2000/svg">
<path d="M30.7021 4.26862C29.4259 4.81589 28.0038 6.31174 27.5663 8.20892C26.9829 10.6169 29.353 11.6384 29.5353 11.3101C29.7541 10.9088 29.0977 10.7993 28.9884 9.52236C28.806 7.91705 29.5718 6.09284 30.5198 5.32667C30.7021 5.18073 30.7021 5.39964 30.7021 5.76448C30.7021 6.45768 30.6657 12.5141 30.6657 13.791C30.6657 15.5058 30.5927 16.053 30.4833 16.6003C30.374 17.1476 30.1552 17.5124 30.301 17.6583C30.4833 17.8043 31.2126 17.4394 31.6502 16.8192C32.1607 16.0895 32.343 15.2139 32.3794 14.2653C32.4159 13.1343 32.4159 11.3101 32.4159 10.2885C32.4159 9.33993 32.4159 6.56713 32.4159 4.88886C32.3794 4.45105 31.2126 4.04972 30.7021 4.26862ZM89.6997 13.2802C89.5174 13.2802 89.4445 13.4627 89.3715 13.791C89.1163 14.922 88.861 15.1774 88.5329 15.1774C88.1682 15.1774 87.8401 14.6301 87.7307 13.4991C87.6578 12.6235 87.6578 11.0182 87.7671 9.4129C87.7671 9.08454 87.6942 8.75619 86.8191 8.42783C86.4545 8.28189 85.8711 8.09947 85.6158 8.75619C84.8501 10.6169 84.5219 12.1127 84.449 12.733C84.449 12.7695 84.4125 12.7695 84.4125 12.6965C84.3761 12.2222 84.2667 11.3466 84.2667 9.48587C84.2667 9.12103 84.1937 8.82915 83.7926 8.57376C83.5374 8.42783 82.7352 8.13595 82.48 8.46431C82.2247 8.75619 81.9695 9.48587 81.6413 10.398C81.3861 11.1277 81.2402 11.602 81.2402 11.602C81.2402 11.602 81.2402 9.63181 81.2402 8.90212C81.2402 8.61025 81.0579 8.53728 80.985 8.5008C80.7297 8.42783 80.2192 8.28189 80.0005 8.28189C79.7452 8.28189 79.6723 8.42783 79.6723 8.64673C79.6723 8.68322 79.6358 11.2371 79.6358 13.0248V13.2802C79.49 14.1194 79.016 15.2139 78.469 15.2139C77.9221 15.2139 77.7033 14.7396 77.7033 12.6235C77.7033 11.3831 77.7397 10.8358 77.7762 9.96017C77.7762 9.44939 77.8127 9.04806 77.8127 8.93861C77.8127 8.64673 77.3386 8.53728 77.1199 8.46431C76.9011 8.42783 76.7188 8.39134 76.5365 8.39134C76.3177 8.39134 76.1718 8.53728 76.1718 8.75619V9.04806C75.8801 8.61025 75.4426 8.31838 75.1509 8.20892C74.3487 7.99002 73.51 8.17244 72.8901 9.04806C72.3796 9.74126 72.0879 10.5439 71.9785 11.6749C71.9056 12.5141 71.9056 13.3532 72.0879 14.0464C71.9056 14.8491 71.541 15.1774 71.1764 15.1774C70.6294 15.1774 70.2283 14.2653 70.2648 12.733C70.3012 11.7114 70.4836 11.0182 70.7388 9.96017C70.8482 9.52236 70.7388 9.30345 70.5565 9.08454C70.3742 8.90212 70.0095 8.79267 69.4626 8.90212C69.0615 9.01158 68.5145 9.08454 68.0041 9.15751C68.0041 9.15751 68.0405 9.04806 68.077 8.82915C68.2228 7.69814 66.9831 7.8076 66.582 8.17244C66.3632 8.39134 66.1809 8.64673 66.1444 9.08454C66.035 9.81423 66.6549 10.1426 66.6549 10.1426C66.4726 11.0182 65.9986 12.1857 65.4881 13.0248C65.2328 13.4627 65.0141 13.791 64.7588 14.1559C64.7588 14.0099 64.7588 13.9005 64.7588 13.7545C64.7588 11.8938 64.7953 10.4345 64.7953 9.8872C64.7953 9.37642 64.8317 8.97509 64.8317 8.90212C64.8317 8.7197 64.7224 8.61025 64.4671 8.53728C64.2483 8.46431 63.9931 8.39134 63.7379 8.35486C63.4097 8.31838 63.1909 8.5008 63.1909 8.7197V9.01158C62.8992 8.57377 62.4616 8.28189 62.1699 8.17244C61.3677 7.95353 60.5291 8.13595 59.9092 9.01158C59.3987 9.70478 59.0706 10.6899 58.9976 11.6384C58.9247 12.5141 58.9247 13.2437 59.0341 13.864C58.9247 14.4842 58.5601 15.1409 58.1225 15.1409C57.612 15.1409 57.2839 14.6666 57.2839 12.5505C57.2839 11.3101 57.3203 10.7628 57.3568 9.8872C57.3568 9.37642 57.3932 8.97509 57.3932 8.86564C57.3932 8.57376 56.9192 8.46431 56.7004 8.39134C56.4817 8.31838 56.2629 8.31838 56.117 8.31838C55.8982 8.31838 55.7524 8.5008 55.7524 8.64673V8.97509C55.4607 8.53728 55.0231 8.24541 54.7314 8.13595C53.9292 7.91705 53.127 8.09947 52.4707 8.97509C52.0696 9.55884 51.7414 10.1791 51.5591 11.5655C51.5226 11.9668 51.4862 12.3316 51.4862 12.6965C51.3403 13.718 50.6111 14.8491 49.9912 14.8491C49.6266 14.8491 49.2984 14.1923 49.2984 12.733C49.2984 10.8358 49.4078 8.09947 49.4442 7.84408C49.4442 7.84408 50.21 7.84408 50.3558 7.84408C50.7205 7.84408 51.0851 7.84408 51.5591 7.8076C51.8144 7.8076 52.0331 6.89549 51.7779 6.78604C51.6685 6.74955 50.8298 6.67658 50.5017 6.67658C50.21 6.67658 49.4442 6.60362 49.4442 6.60362C49.4442 6.60362 49.5172 4.7794 49.5172 4.59698C49.5172 4.45105 49.3349 4.34159 49.189 4.30511C48.8973 4.19566 48.6421 4.12269 48.3503 4.04972C47.9128 3.97675 47.7305 4.04972 47.694 4.41456C47.6211 4.96183 47.6211 6.53065 47.6211 6.53065C47.2929 6.53065 46.2719 6.45768 45.9438 6.45768C45.6521 6.45768 45.3604 7.69814 45.7615 7.69814C46.2355 7.69814 47.0012 7.73463 47.5482 7.73463C47.5482 7.73463 47.5117 10.5074 47.5117 11.3466V11.602C47.22 13.0978 46.199 13.9369 46.199 13.9369C46.4178 12.9519 45.9802 12.1857 45.178 11.5655C44.8863 11.3466 44.3029 10.8723 43.6466 10.398C43.6466 10.398 44.0112 10.0331 44.3758 9.26697C44.6311 8.7197 44.6311 8.13595 44.0477 7.99002C43.0632 7.77111 42.2974 8.46431 42.0422 9.23048C41.8599 9.81423 41.9693 10.252 42.3339 10.7263L42.4068 10.8358C42.1881 11.2736 41.8963 11.8209 41.6411 12.2587C40.9483 13.4991 40.4014 14.4477 40.0003 14.4477C39.6721 14.4477 39.6721 13.4627 39.6721 12.5505C39.6721 11.7479 39.745 10.5804 39.7815 9.33993C39.7815 8.93861 39.5992 8.68322 39.2345 8.5008C39.0157 8.39134 38.5782 8.13595 38.3229 8.13595C37.9583 8.13595 36.828 8.17244 35.7705 11.2371C35.6247 11.6384 35.3694 12.3316 35.3694 12.3316L35.4059 8.68322C35.4059 8.61025 35.3694 8.5008 35.26 8.46431C35.0777 8.35486 34.6037 8.17244 34.2026 8.17244C33.9838 8.17244 33.9109 8.28189 33.9109 8.46431L33.8744 14.1559C33.8744 14.5937 33.8744 15.1044 33.9109 15.3233C33.9474 15.5423 34.0203 15.7247 34.0932 15.8341C34.1661 15.9436 34.2755 16.0166 34.4578 16.053C34.6037 16.0895 35.4424 16.199 35.4788 15.8706C35.5153 15.5058 35.5517 15.068 35.9528 13.5356C36.6456 11.1277 37.5208 9.96017 37.9219 9.55884C37.9948 9.48587 38.0677 9.48587 38.0677 9.59532C38.0312 10.1061 37.9948 11.4195 37.9583 12.5505C37.8489 15.5423 38.3959 16.0895 39.1616 16.0895C39.745 16.0895 40.5837 15.5058 41.4953 14.0099C42.0422 13.0978 42.5892 12.1857 42.9902 11.529C43.2455 11.7844 43.5737 12.0398 43.8654 12.3316C44.5582 12.9884 44.8134 13.6451 44.6676 14.2288C44.5582 14.7031 44.1206 15.1774 43.3184 14.7031C43.0996 14.5572 42.9902 14.4477 42.7715 14.3018C42.6621 14.2288 42.4433 14.1923 42.3339 14.2653C42.0422 14.4842 41.8599 14.7761 41.787 15.1409C41.6776 15.4693 42.0422 15.6517 42.4068 15.8341C42.6985 15.9801 43.3549 16.0895 43.7924 16.126C45.4333 16.199 46.746 15.3233 47.6211 13.1708C47.7669 15.0315 48.4597 16.0895 49.663 16.0895C50.4652 16.0895 51.2674 15.0315 51.632 14.0099C51.7414 14.4112 51.8873 14.7761 52.0696 15.1044C52.9812 16.5638 54.8043 16.2719 55.6795 14.995C55.9712 14.5937 56.0076 14.4842 56.0076 14.4842C56.1535 15.6517 57.1015 16.0895 57.612 16.0895C58.2319 16.0895 58.8518 15.7976 59.2893 14.8126C59.3258 14.922 59.3987 15.0315 59.4716 15.1044C60.3832 16.5638 62.2064 16.2719 63.0815 14.995C63.118 14.922 63.1544 14.8855 63.1909 14.8491L63.2274 15.6152C63.2274 15.6152 62.7169 16.0895 62.3887 16.3814C61.0031 17.6583 59.9457 18.6434 59.8727 19.7744C59.7634 21.1973 60.9302 21.7446 61.8418 21.8175C62.7898 21.8905 63.592 21.3797 64.066 20.65C64.5036 20.0298 64.7953 18.6434 64.7588 17.2935C64.7588 16.7462 64.7224 16.053 64.7224 15.3233C65.1964 14.7396 65.7798 14.0464 66.2903 13.2073C66.8372 12.2952 67.4206 11.0547 67.7488 10.1061C67.7488 10.1061 68.2593 10.1061 68.8062 10.0696C68.9886 10.0696 69.025 10.1061 68.9886 10.2156C68.9521 10.3615 68.2958 12.9154 68.8792 14.5937C69.2803 15.7612 70.2283 16.126 70.7753 16.126C71.4316 16.126 72.015 15.6517 72.3432 14.922C72.3796 14.995 72.4161 15.068 72.489 15.1409C73.4006 16.6003 75.2238 16.3084 76.0989 15.0315C76.3177 14.7396 76.4271 14.5207 76.4271 14.5207C76.6094 15.7247 77.5574 16.126 78.1044 16.126C78.6878 16.126 79.1983 15.9071 79.6358 14.8491C79.6358 15.2869 79.6723 15.6882 79.7452 15.7976C79.7817 15.8706 79.9275 15.9436 80.0369 16.0166C80.5474 16.199 81.0944 16.126 81.2767 16.0895C81.4225 16.053 81.5319 15.9436 81.5319 15.6882C81.5684 14.9585 81.5319 13.718 81.7872 12.8059C82.1518 11.2736 82.5164 10.6534 82.6623 10.3615C82.7717 10.1791 82.8446 10.1791 82.8446 10.325C82.8446 10.6899 82.8811 11.7114 83.0269 13.1343C83.1363 14.1559 83.2822 14.7761 83.3915 14.9585C83.7197 15.5058 84.0844 15.5423 84.4125 15.5423C84.5948 15.5423 85.0324 15.4693 84.9959 15.1409C84.9595 14.9585 84.9959 13.9005 85.3606 12.4046C85.6158 11.4195 86.0169 10.5074 86.1628 10.1791C86.2357 10.0696 86.2357 10.1426 86.2357 10.1791C86.1992 10.8723 86.1263 13.0978 86.418 14.3018C86.7826 15.9436 87.8765 16.1625 88.2776 16.1625C89.0798 16.1625 89.7362 15.5423 89.9914 13.9369C90.0279 13.5721 89.9549 13.2802 89.6997 13.2802ZM55.7159 12.2587C55.6795 13.1343 55.4971 13.8275 55.2419 14.3748C54.7679 15.3234 53.7834 15.6152 53.3823 14.2653C53.0906 13.2802 53.1635 11.9303 53.3094 11.2006C53.4917 10.1061 53.9657 9.37642 54.695 9.44939C55.4242 9.52236 55.8253 10.4709 55.7159 12.2587ZM63.118 12.2952C63.0815 13.0978 62.8627 13.9369 62.644 14.3748C62.1699 15.3234 61.1854 15.6152 60.7843 14.2653C60.4926 13.3167 60.5655 12.1127 60.7114 11.3466C60.8937 10.3615 61.3313 9.44939 62.097 9.44939C62.8627 9.4129 63.2274 10.252 63.118 12.2952ZM63.3368 17.8408C63.3368 19.3366 63.0815 20.6136 62.6075 21.0149C61.9147 21.5622 60.9302 21.1608 61.149 20.0663C61.3313 19.1177 62.1335 18.1326 63.3732 16.9287C63.3368 16.8922 63.3368 17.184 63.3368 17.8408ZM76.1354 12.2952C76.0989 13.1708 75.8801 13.9005 75.6613 14.3748C75.1873 15.3234 74.2028 15.6152 73.8017 14.2653C73.5829 13.5356 73.5465 12.2587 73.7288 11.2371C73.9111 10.1791 74.3487 9.37642 75.1144 9.44939C75.8801 9.48587 76.2083 10.4709 76.1354 12.2952Z" fill="#070707"/>
<path d="M18.1954 5.14424C18.1954 4.41456 17.612 3.83081 16.8826 3.83081C16.1533 3.83081 15.5698 4.41456 15.5698 5.14424C15.5698 5.87393 16.1533 6.45768 16.8826 6.45768C17.5755 6.45768 18.1954 5.87393 18.1954 5.14424Z" fill="url(#paint0_linear_110_909)"/>
<path d="M19.9454 15.4328C19.9089 16.4909 19.7266 17.0746 19.5808 17.476C19.3985 17.9867 19.1432 18.3516 18.7421 18.7529C18.3775 19.1542 17.9764 19.3731 17.4659 19.5556C17.0648 19.7015 16.4814 19.8839 15.424 19.9204C14.2571 19.9569 13.929 19.9934 10.9754 19.9934C8.02192 19.9934 7.69375 19.9934 6.52692 19.9204C5.46949 19.8839 4.88608 19.7015 4.48498 19.5556C3.9745 19.3731 3.60986 19.1177 3.20877 18.7529C2.80767 18.3516 2.58889 17.9867 2.37011 17.476C2.22426 17.0746 2.04194 16.4909 2.00548 15.4328C1.93255 14.2653 1.93255 13.937 1.93255 10.9818C1.93255 8.02653 1.93255 7.69818 2.00548 6.53068C2.04194 5.47264 2.22426 4.88889 2.37011 4.48756C2.62535 4.01327 2.84413 3.64842 3.24523 3.2471C3.64633 2.84577 4.01096 2.62687 4.52144 2.40796C4.92254 2.26202 5.50595 2.0796 6.56339 2.04312C7.73021 2.00663 8.05838 1.97015 11.0119 1.97015C13.9654 1.97015 14.2936 1.97015 15.4604 2.04312C16.5179 2.0796 17.1013 2.26202 17.5024 2.40796C18.0128 2.59038 18.3775 2.84577 18.7786 3.2471C19.1797 3.64842 19.3985 4.01327 19.6172 4.52405C19.7631 4.92537 19.9454 5.50912 19.9819 6.56716C20.0183 7.73466 20.0548 8.06302 20.0548 11.0182C20.0183 13.937 19.9819 14.3018 19.9454 15.4328ZM21.9144 6.45771C21.878 5.29022 21.6592 4.48756 21.4039 3.79436C21.1122 3.06468 20.7476 2.44444 20.1277 1.8607C19.5078 1.24046 18.888 0.875622 18.1952 0.583748C17.5024 0.328358 16.7002 0.109453 15.5333 0.0729685C14.3665 0 13.9654 0 10.9754 0C8.02192 0 7.62082 0 6.454 0.0729685C5.28717 0.109453 4.48498 0.328358 3.79218 0.583748C3.06291 0.875622 2.44304 1.24046 1.85963 1.8607C1.23975 2.48093 0.875118 3.10116 0.583412 3.79436C0.328169 4.48756 0.10939 5.29022 0.0729265 6.45771C0 7.62521 0 8.02653 0 11.0182C0 14.0099 0 14.3748 0.0729265 15.5423C0.145853 16.7098 0.328169 17.5124 0.583412 18.2056C0.875118 18.9353 1.23975 19.5556 1.85963 20.1393C2.4795 20.7595 3.09938 21.1244 3.79218 21.4163C4.48498 21.6716 5.28717 21.8905 6.454 21.927C7.62082 21.9635 7.98545 22 10.9754 22C13.9654 22 14.3301 22 15.4969 21.927C16.6637 21.8541 17.4659 21.6716 18.1587 21.4163C18.888 21.1244 19.5078 20.7595 20.0913 20.1393C20.7111 19.5191 21.0758 18.8988 21.3675 18.2056C21.6592 17.5124 21.8415 16.7098 21.878 15.5423C21.9144 14.3748 21.9509 14.0099 21.9509 11.0182C21.9873 8.02653 21.9873 7.62521 21.9144 6.45771Z" fill="url(#paint1_linear_110_909)"/>
<path d="M10.9755 14.6666C8.97006 14.6666 7.32921 13.0248 7.32921 11.0182C7.32921 8.9751 8.97006 7.33331 10.9755 7.33331C12.981 7.33331 14.6583 8.9751 14.6583 11.0182C14.6583 13.0248 13.0175 14.6666 10.9755 14.6666ZM10.9755 5.36316C7.8397 5.36316 5.32373 7.88057 5.32373 11.0182C5.32373 14.1194 7.8397 16.6733 10.9755 16.6733C14.1114 16.6733 16.6273 14.1559 16.6273 11.0182C16.6273 7.88057 14.1114 5.36316 10.9755 5.36316Z" fill="url(#paint2_linear_110_909)"/>
<defs>
<linearGradient id="paint0_linear_110_909" x1="0.183168" y1="21.7596" x2="20.1525" y2="1.79947" gradientUnits="userSpaceOnUse">
<stop stop-color="#FFD521"/>
<stop offset="0.05" stop-color="#FFD521"/>
<stop offset="0.5011" stop-color="#F50000"/>
<stop offset="0.95" stop-color="#B900B4"/>
<stop offset="0.9501" stop-color="#B900B4"/>
<stop offset="1" stop-color="#B900B4"/>
</linearGradient>
<linearGradient id="paint1_linear_110_909" x1="0.199133" y1="21.7999" x2="20.1851" y2="1.82542" gradientUnits="userSpaceOnUse">
<stop stop-color="#FFD521"/>
<stop offset="0.05" stop-color="#FFD521"/>
<stop offset="0.5011" stop-color="#F50000"/>
<stop offset="0.95" stop-color="#B900B4"/>
<stop offset="0.9501" stop-color="#B900B4"/>
<stop offset="1" stop-color="#B900B4"/>
</linearGradient>
<linearGradient id="paint2_linear_110_909" x1="0.208633" y1="21.8036" x2="20.1898" y2="1.83375" gradientUnits="userSpaceOnUse">
<stop stop-color="#FFD521"/>
<stop offset="0.05" stop-color="#FFD521"/>
<stop offset="0.5011" stop-color="#F50000"/>
<stop offset="0.95" stop-color="#B900B4"/>
<stop offset="0.9501" stop-color="#B900B4"/>
<stop offset="1" stop-color="#B900B4"/>
</linearGradient>
</defs>
</svg>
