<svg width="94" height="22" viewBox="0 0 94 22" fill="none" xmlns="http://www.w3.org/2000/svg">
<path d="M29.9787 17.4311H27.4154V10.9844H25.6335V8.88767H27.3841V7.38554C27.3841 5.63305 28.1656 4.34998 30.729 4.34998C31.2604 4.34998 32.1357 4.47515 32.1357 4.47515V6.41541H31.2292C30.3226 6.41541 29.9475 6.69706 29.9475 7.44813V8.85638H32.0732L31.8856 10.9531H29.9475L29.9787 17.4311ZM35.887 8.7312C35.8557 8.7312 35.8244 8.7312 35.7619 8.7312C33.3861 8.7312 32.292 10.515 32.292 13.0811C32.292 16.3045 33.6987 17.5875 35.7932 17.5875C36.9811 17.5875 37.7626 17.0868 38.2315 16.148V17.4311H40.6698V8.88767H38.2315V10.202C37.8251 9.35709 37.0436 8.7312 35.887 8.7312ZM36.5122 10.734C37.5125 10.734 38.1064 11.4225 38.1064 12.6117V13.8322C38.1064 14.6459 37.6063 15.5847 36.5122 15.5847C34.7928 15.5847 34.8554 13.7383 34.8554 13.1124C34.8241 11.0783 35.7619 10.734 36.5122 10.734ZM41.6701 13.175C41.6701 12.1423 41.6076 8.76249 46.0153 8.76249C47.7972 8.76249 48.5162 9.32579 48.5162 9.32579L47.9222 11.1722C47.9222 11.1722 47.172 10.7653 46.2341 10.7653C45.015 10.7653 44.2022 11.4851 44.2022 12.7369V13.6444C44.2022 14.8649 44.9525 15.6473 46.2341 15.6473C47.1094 15.6473 47.9222 15.2404 47.9222 15.2404L48.5162 17.0555C48.5162 17.0555 47.8284 17.6188 46.0466 17.6188C41.8264 17.5875 41.6701 14.552 41.6701 13.175ZM62.8959 8.7312C65.2717 8.7312 66.3971 10.515 66.3971 13.0811C66.3971 16.3045 64.9904 17.5875 62.8959 17.5875C61.708 17.5875 60.8328 17.0868 60.3638 16.148V17.4311H57.9568V4.63163L60.5201 4.41256V10.0769C60.864 9.10673 62.0832 8.7312 62.8959 8.7312ZM62.1769 10.734C61.1766 10.734 60.4889 11.4225 60.4889 12.6117V13.8322C60.4889 14.6459 60.9578 15.5847 62.1769 15.5847C63.8963 15.5847 63.8337 13.7383 63.8337 13.1124C63.8337 11.0783 62.9272 10.734 62.1769 10.734ZM52.9864 8.7312C50.2667 8.7312 48.86 10.202 48.86 12.8308V13.3315C48.86 16.7426 50.8607 17.6188 53.2677 17.6188C55.581 17.6188 56.6439 16.9616 56.6439 16.9616L56.1749 15.2404C56.1749 15.2404 54.9245 15.7724 53.5803 15.7724C52.1736 15.7724 51.5797 15.4282 51.4234 14.0513H56.8627V12.6743C56.8314 9.8265 55.2371 8.7312 52.9864 8.7312ZM53.0489 10.4837C53.9867 10.4837 54.5807 11.047 54.5494 12.3926H51.3921C51.4546 10.9844 52.1111 10.4837 53.0489 10.4837ZM71.5238 8.7312C68.7416 8.7312 67.2724 10.2959 67.2724 13.1124C67.2724 16.9616 69.8045 17.5875 71.5238 17.5875C74.0559 17.5875 75.744 16.2106 75.744 13.1437C75.7127 9.95168 73.8371 8.7312 71.5238 8.7312ZM71.4925 10.7653C72.7117 10.7653 73.2119 11.6729 73.2119 12.7369V13.6444C73.2119 14.8962 72.5241 15.6473 71.4925 15.6473C70.5235 15.6473 69.8357 14.9588 69.8357 13.6444V12.7369C69.8357 11.3286 70.6485 10.7653 71.4925 10.7653ZM80.8394 8.7312C78.0572 8.7312 76.588 10.2959 76.588 13.1124C76.588 16.9616 79.1201 17.5875 80.8394 17.5875C83.3715 17.5875 85.0596 16.2106 85.0596 13.1437C85.0596 9.95168 83.1527 8.7312 80.8394 8.7312ZM80.8081 10.7653C82.0273 10.7653 82.5275 11.6729 82.5275 12.7369V13.6444C82.5275 14.8962 81.8397 15.6473 80.8081 15.6473C79.8391 15.6473 79.1513 14.9588 79.1513 13.6444V12.7369C79.1513 11.3286 79.9641 10.7653 80.8081 10.7653ZM86.0286 17.4311V4.63163L88.592 4.41256V12.9872L91.1553 8.91897H93.875L91.2178 13.1437L94 17.4311H91.2804L88.6232 13.2689V17.4311H86.0286Z" fill="#1877F2"/>
<path d="M22.1011 11.0782C22.1011 4.94452 17.162 0 11.0662 0C4.93914 0 0 4.94452 0 11.0782C0 16.5861 4.03259 21.1863 9.3156 22V14.2703H6.50216V11.0782H9.3156V8.63727C9.3156 5.85206 10.9724 4.31863 13.5045 4.31863C14.7236 4.31863 15.9741 4.5377 15.9741 4.5377V7.26031H14.5673C13.1919 7.26031 12.7542 8.10526 12.7542 8.98151V11.0469H15.8178L15.3176 14.239H12.7542V21.9687C18.0685 21.1863 22.1011 16.5861 22.1011 11.0782Z" fill="#1877F2"/>
</svg>
