<svg width="60" height="22" viewBox="0 0 60 22" fill="none" xmlns="http://www.w3.org/2000/svg">
<path fill-rule="evenodd" clip-rule="evenodd" d="M11.8033 15.6V9.92727H9.34432V12.6L6.88529 9.59999L0 17.9454L2.2951 19.8545L6.88529 14.2909L11.4755 19.8545L13.7706 17.9454L11.8033 15.6ZM10.5465 0C8.68857 0 7.21316 1.52727 7.21316 3.38182C7.21316 4.09091 7.43174 4.8 7.8689 5.4L8.08748 5.72727L10.5465 8.67272L13.2241 5.4C13.6613 4.8 13.8799 4.09091 13.8799 3.38182C13.8799 1.47273 12.4044 0 10.5465 0ZM10.5465 4.85454C9.72683 4.85454 9.01645 4.14545 9.01645 3.32727C9.01645 2.45454 9.72683 1.8 10.5465 1.8C11.3662 1.8 12.0766 2.50909 12.0766 3.32727C12.0766 4.2 11.3662 4.85454 10.5465 4.85454Z" fill="#0468FF"/>
<path fill-rule="evenodd" clip-rule="evenodd" d="M44.9183 9.76355C43.7708 9.76355 42.7872 10.0908 42.0768 10.6363C41.421 11.1817 40.9839 11.9454 40.9292 12.7635H43.115C43.2243 12.3272 43.7161 11.6181 44.9183 11.6181C46.0659 11.6181 46.7216 12.3272 46.7216 13.4726V13.5272H44.5358C43.2243 13.5272 42.2407 13.7999 41.5303 14.3999C40.8746 14.9454 40.5467 15.7635 40.5467 16.7999C40.5467 17.6726 40.8746 18.4363 41.5303 18.9817C42.1861 19.5272 43.0604 19.8545 44.0987 19.8545C45.738 19.8545 46.6123 19.0363 46.8856 18.709L47.0495 19.5272V19.6363H48.9074V13.4726C48.9074 11.1817 47.3774 9.76355 44.9183 9.76355ZM46.7216 15.5454C46.7216 16.309 46.503 16.909 46.0659 17.3454C45.6287 17.7817 45.0276 17.9999 44.2079 17.9999C43.2243 17.9999 42.6779 17.5635 42.6779 16.7454C42.6779 15.8726 43.3883 15.3817 44.5905 15.3817H46.7216V15.5454ZM57.7053 9.92719V13.7454H53.2244V9.92719H51.0386V19.6363H53.2244V15.7635H57.7053V19.6363H59.8911V9.92719H57.7053ZM32.0221 16.4726V9.92719H29.8363V19.6363H32.0221L36.6123 13.0908V19.6363H38.7981V9.92719H36.6123L32.0221 16.4726ZM26.9947 9.92719H24.8089V17.6181H20.492V9.92719H18.3062V19.6363H26.3936V21.5999H28.3062V17.6181H26.9401V9.92719H26.9947Z" fill="#152242"/>
</svg>
