<svg width="124" height="19" viewBox="0 0 124 19" fill="none" xmlns="http://www.w3.org/2000/svg">
<path fill-rule="evenodd" clip-rule="evenodd" d="M7.01284 0C3.10796 0 0 3.09956 0 6.99388C0 8.90131 0.796914 10.6498 2.07198 11.9214C3.34704 13.193 6.29562 15.021 6.5347 16.9284C6.5347 17.2463 6.77377 17.4847 7.09254 17.4847C7.4113 17.4847 7.57068 17.2463 7.65038 16.9284C7.80976 15.021 10.838 13.193 12.1131 11.9214C13.3882 10.6498 14.1851 8.90131 14.1851 6.99388C14.0257 3.09956 10.838 0 7.01284 0Z" fill="#FF4433"/>
<path fill-rule="evenodd" clip-rule="evenodd" d="M7.01267 9.45766C8.36742 9.45766 9.4831 8.345 9.4831 6.99391C9.4831 5.64282 8.36742 4.53015 7.01267 4.53015C5.65792 4.53015 4.54224 5.64282 4.54224 6.99391C4.54224 8.345 5.65792 9.45766 7.01267 9.45766Z" fill="white"/>
<path fill-rule="evenodd" clip-rule="evenodd" d="M27.6531 15.4978H29.8845V2.62268H26.6172C23.3498 2.62268 21.5966 4.29168 21.5966 6.75543C21.5966 8.74233 22.5529 9.93447 24.2264 11.1266L21.2778 15.4978H23.6686L26.9359 10.6498L25.8202 9.85499C24.4655 8.90128 23.7483 8.186 23.7483 6.67595C23.7483 5.32486 24.7046 4.37115 26.5375 4.37115H27.5735V15.4978H27.6531ZM70.9256 15.6567C71.9616 15.6567 72.6788 15.4978 73.2366 15.1004V13.2725C72.6788 13.6698 72.0412 13.9083 71.085 13.9083C69.4911 13.9083 68.8536 12.7161 68.8536 10.8087C68.8536 8.8218 69.6505 7.78862 71.085 7.78862C71.9616 7.78862 72.7585 8.10652 73.2366 8.34495V6.43753C72.7585 6.1991 71.9616 5.96067 70.8459 5.96067C68.0567 5.96067 66.5425 7.94757 66.5425 10.8087C66.5425 13.9083 67.977 15.6567 70.9256 15.6567ZM57.139 14.862V13.034C56.4217 13.5109 55.3061 13.9083 54.1904 13.9083C52.5965 13.9083 51.959 13.193 51.8793 11.6035H57.2187V10.4113C57.2187 7.15281 55.7842 5.96067 53.5528 5.96067C50.8433 5.96067 49.5683 8.02705 49.5683 10.8087C49.5683 14.0672 51.1621 15.5773 53.9513 15.5773C55.4654 15.6567 56.5014 15.2594 57.139 14.862ZM64.1518 15.4978L60.8845 10.9677V15.4978H58.6531V6.1991H60.8845V10.5703L63.9924 6.1991H66.2238L63.1158 10.5703L66.6222 15.4978H64.1518ZM49.0901 13.7493H48.1338V6.1991H41.6788V6.99386C41.6788 9.29866 41.5194 12.2393 40.7225 13.7493H40.0053V17.6436H42.0773V15.4978H47.0182V17.6436H49.0901V13.7493ZM36.8973 6.1991V9.85499H33.9488V6.1991H31.7174V15.4978H33.9488V11.6035H36.8973V15.4978H39.1287V6.1991H36.8973ZM53.5528 7.70914C54.6685 7.70914 54.9873 8.58338 54.9873 9.77552V9.93447H51.8793C51.959 8.5039 52.5169 7.70914 53.5528 7.70914ZM45.9025 13.7493H42.7945C43.432 12.3187 43.5914 9.77552 43.5914 8.186V7.86809H45.9025V13.7493ZM84.7122 15.4978H87.342L82.7996 8.74233L86.9435 2.62268H84.6325L80.6479 8.5039V2.62268H78.4166V15.4978H80.6479V9.45761L84.7122 15.4978ZM94.833 9.13971C94.833 6.91438 93.7173 6.04015 91.3266 6.04015C89.8921 6.04015 88.6968 6.517 88.0592 6.91438V8.74233C88.6171 8.26547 89.9718 7.78862 91.0875 7.78862C92.1235 7.78862 92.6016 8.186 92.6016 9.13971V9.61656H92.2829C88.9358 9.61656 87.4217 10.7292 87.4217 12.6366C87.4217 14.5441 88.5374 15.5773 90.2906 15.5773C91.5657 15.5773 92.1235 15.1799 92.6016 14.703H92.6813C92.6813 14.9415 92.761 15.2594 92.8407 15.4183H94.9924C94.9127 14.6235 94.9127 13.9083 94.9127 13.1135V9.13971H94.833ZM92.6813 13.2725C92.3626 13.6698 91.8844 13.9877 91.0875 13.9877C90.1312 13.9877 89.7327 13.4314 89.7327 12.6366C89.7327 11.6035 90.5297 11.2061 92.3626 11.2061H92.6813V13.2725ZM98.6582 6.1991H96.5862V18.2H98.8176V14.4646C99.3754 15.2594 100.172 15.7362 101.129 15.7362C103.28 15.7362 104.794 13.9877 104.794 10.8882C104.794 7.78862 103.36 6.04015 101.288 6.04015C100.252 6.04015 99.3754 6.517 98.8176 7.39124L98.6582 6.1991ZM100.571 13.9083C99.3754 13.9083 98.8176 12.9546 98.8176 10.8087C98.8176 8.66285 99.4551 7.70914 100.73 7.70914C101.926 7.70914 102.563 8.66285 102.563 10.8087C102.483 12.9546 101.846 13.9083 100.571 13.9083ZM112.524 7.86809V6.1991H105.193V7.94757H107.823V15.4978H110.054V7.86809H112.524ZM113.879 6.1991V15.4978H117.226C119.378 15.4978 120.972 14.3851 120.972 12.2393C120.972 10.1729 119.617 9.06023 117.306 9.06023H116.111V6.1991H113.879ZM121.769 6.1991V15.4978H124V6.1991H121.769ZM117.067 13.7493H116.031V10.8087H117.147C118.103 10.8087 118.661 11.2061 118.661 12.3187C118.661 13.4314 118.023 13.7493 117.067 13.7493Z" fill="black"/>
</svg>
