<svg width="18" height="18" viewBox="0 0 18 18" fill="none" xmlns="http://www.w3.org/2000/svg">
<path fill-rule="evenodd" clip-rule="evenodd" d="M13.0613 10.7865C12.8378 10.6747 11.742 10.1362 11.538 10.0612C11.334 9.98697 11.1855 9.95022 11.0363 10.1737C10.8877 10.3957 10.461 10.8982 10.3312 11.0467C10.2007 11.196 10.071 11.214 9.84825 11.103C9.6255 10.9905 8.907 10.7557 8.05575 9.99672C7.3935 9.40572 6.94575 8.67597 6.816 8.45247C6.68625 8.22972 6.80175 8.10897 6.9135 7.99797C7.014 7.89822 7.13625 7.73772 7.248 7.60797C7.35975 7.47747 7.3965 7.38447 7.47075 7.23522C7.54575 7.08672 7.50825 6.95697 7.452 6.84522C7.3965 6.73347 6.951 5.63622 6.765 5.18997C6.58425 4.75572 6.4005 4.81497 6.264 4.80747C6.1335 4.80147 5.985 4.79997 5.8365 4.79997C5.688 4.79997 5.4465 4.85547 5.2425 5.07897C5.03775 5.30172 4.4625 5.84097 4.4625 6.93822C4.4625 8.03472 5.2605 9.09447 5.37225 9.24372C5.484 9.39222 6.9435 11.6437 9.17925 12.609C9.71175 12.8385 10.1265 12.9757 10.4497 13.0777C10.9837 13.248 11.4698 13.224 11.8538 13.1662C12.2812 13.1025 13.1723 12.627 13.3583 12.1065C13.5435 11.586 13.5435 11.1397 13.488 11.0467C13.4325 10.9537 13.284 10.8982 13.0605 10.7865H13.0613ZM8.99475 16.3387H8.99175C7.66382 16.339 6.36028 15.982 5.21775 15.3052L4.94775 15.1447L2.14125 15.8812L2.8905 13.1452L2.71425 12.8647C1.97185 11.683 1.57897 10.3153 1.581 8.91972C1.5825 4.83222 4.908 1.50672 8.99775 1.50672C10.9777 1.50672 12.8393 2.27922 14.2388 3.68022C14.929 4.36766 15.4762 5.18514 15.8485 6.08539C16.2208 6.98564 16.4109 7.95078 16.4078 8.92497C16.4062 13.0125 13.0807 16.3387 8.99475 16.3387ZM15.3038 2.61597C14.4774 1.78416 13.4942 1.12462 12.4111 0.67557C11.328 0.226518 10.1665 -0.00311822 8.994 -3.0302e-05C4.0785 -3.0302e-05 0.0765 4.00122 0.075 8.91897C0.07425 10.491 0.4845 12.0255 1.26525 13.3777L0 18L4.728 16.7595C6.03591 17.4721 7.50157 17.8454 8.991 17.8455H8.99475C13.9102 17.8455 17.9123 13.8442 17.9137 8.92572C17.9174 7.75368 17.6886 6.59254 17.2406 5.50949C16.7926 4.42644 16.1343 3.44297 15.3038 2.61597Z" fill="#1E48B5"/>
</svg>
