<svg width="6" height="12" viewBox="0 0 6 12" fill="none" xmlns="http://www.w3.org/2000/svg">
<path d="M4.45943 0C5.26343 0 5.66543 0.5472 5.66543 1.1742C5.66543 1.9572 4.96703 2.6814 4.05803 2.6814C3.29663 2.6814 2.85263 2.2314 2.87363 1.4874C2.87363 0.8616 3.40223 0 4.45943 0ZM1.98563 12C1.35083 12 0.885834 11.6088 1.32983 9.8856L2.05823 6.8304C2.18483 6.342 2.20583 6.1458 2.05823 6.1458C1.86803 6.1458 1.04483 6.483 0.557034 6.816L0.240234 6.288C1.78343 4.9764 3.55883 4.2078 4.32083 4.2078C4.95503 4.2078 5.06063 4.9716 4.74383 6.1458L3.90923 9.357C3.76163 9.924 3.82463 10.1196 3.97283 10.1196C4.16303 10.1196 4.78703 9.8844 5.40023 9.3954L5.76023 9.8838C4.25903 11.412 2.61923 12 1.98563 12Z" fill="#1E48B5"/>
</svg>
