<svg width="140" height="38" viewBox="0 0 140 38" fill="none" xmlns="http://www.w3.org/2000/svg">
<ellipse cx="19.0217" cy="19" rx="19.0217" ry="19" fill="white"/>
<path d="M57.7329 12.7699H49.1961L49.2281 27.4521H45.1035V9.38916H57.7649L57.7329 12.7699Z" fill="white"/>
<path d="M71.6731 10.1617C72.8561 10.709 73.7513 11.4496 74.3908 12.4477C75.0303 13.4136 75.35 14.6049 75.35 15.925C75.35 17.2452 75.0303 18.4043 74.3908 19.4024C73.7513 20.4005 72.8561 21.1411 71.6731 21.6884C70.4901 22.2036 69.1152 22.4612 67.5166 22.4612H63.9036V27.4518H59.7471V9.38891H67.5166C69.1152 9.35672 70.522 9.6143 71.6731 10.1617ZM70.1703 18.2111C70.8098 17.6637 71.1295 16.891 71.1295 15.8929C71.1295 14.8625 70.8098 14.0898 70.1703 13.5424C69.5309 12.9951 68.5717 12.7375 67.3247 12.7375H63.9356V19.016H67.3247C68.5717 19.0482 69.4989 18.7584 70.1703 18.2111Z" fill="white"/>
<path d="M93.8949 27.4199L93.863 16.6014L88.5874 25.5202H86.7329L81.4574 16.8268V27.4521H77.5566V9.38916H81.0097L87.7241 20.6262L94.3426 9.38916H97.7637L97.7957 27.4521L93.8949 27.4199Z" fill="white"/>
<path d="M115.733 9.93632H113.846V13.1883H113.59V9.71094H115.733V9.93632Z" fill="white"/>
<path fill-rule="evenodd" clip-rule="evenodd" d="M113.48 9.60156H115.843V10.0458H113.956V13.2978H113.48V9.60156ZM113.7 9.82044V13.0789H113.736V9.82695H115.623V9.82044H113.7Z" fill="white"/>
<path d="M115.637 10.5803H115.893V12.802L117.715 10.5803H117.939V13.1561H117.683V10.9345L115.861 13.1561H115.637V10.5803Z" fill="white"/>
<path fill-rule="evenodd" clip-rule="evenodd" d="M115.527 10.4709H116.003V12.495L117.663 10.4709H118.049V13.2656H117.573V11.2416L115.913 13.2656H115.527V10.4709ZM115.747 10.6898V13.0468H115.783V10.6898H115.747ZM117.793 10.6898V13.0468H117.829V10.6898H117.793Z" fill="white"/>
<path d="M121.008 10.5803V13.1561H120.753V10.8057H119.41L119.378 11.4819C119.346 11.836 119.314 12.1258 119.282 12.3834C119.25 12.6088 119.186 12.8342 119.09 12.963C118.994 13.1239 118.866 13.1883 118.706 13.1883C118.642 13.1883 118.578 13.1883 118.482 13.1561L118.514 12.9308C118.578 12.9308 118.61 12.963 118.642 12.963C118.77 12.963 118.898 12.8986 118.962 12.7698C119.026 12.641 119.09 12.48 119.122 12.2546C119.154 12.0614 119.154 11.8038 119.186 11.4819L119.218 10.5803H121.008Z" fill="white"/>
<path fill-rule="evenodd" clip-rule="evenodd" d="M119.112 10.4709H121.008V10.5804H121.118V13.2656H120.643V10.9152H119.515L119.487 11.4917C119.455 11.8471 119.423 12.1381 119.391 12.3969L119.391 12.3988C119.358 12.6256 119.293 12.8714 119.182 13.0236C119.126 13.1149 119.059 13.1847 118.976 13.2312C118.893 13.2785 118.801 13.2978 118.706 13.2978C118.639 13.2978 118.56 13.2978 118.447 13.2599L118.361 13.2309L118.419 12.8214H118.514C118.567 12.8214 118.606 12.835 118.632 12.8455C118.639 12.8484 118.643 12.8502 118.646 12.8515C118.648 12.8523 118.65 12.8529 118.651 12.8534C118.739 12.8507 118.822 12.8053 118.864 12.7213C118.924 12.6004 118.983 12.4506 119.013 12.2394L119.013 12.2369C119.028 12.1466 119.036 12.0394 119.044 11.9098C119.045 11.8941 119.046 11.8781 119.047 11.8618C119.054 11.7464 119.062 11.6166 119.076 11.4746L119.112 10.4709ZM120.898 10.6898H119.324L119.324 10.6963H120.862V13.0468H120.898V10.6898ZM118.977 12.9355C118.887 13.0274 118.763 13.0725 118.642 13.0725C118.629 13.0725 118.617 13.0707 118.606 13.0684L118.605 13.0739C118.64 13.0789 118.671 13.079 118.706 13.079C118.771 13.079 118.823 13.0661 118.868 13.041C118.906 13.0195 118.942 12.9864 118.977 12.9355Z" fill="white"/>
<path d="M123.822 11.7395C123.982 11.8683 124.078 12.0615 124.078 12.3513C124.078 12.641 123.982 12.8342 123.822 12.9952C123.63 13.1562 123.374 13.2206 123.054 13.2206H122.095V10.6448H122.351V11.5785H123.118C123.406 11.5463 123.662 11.6107 123.822 11.7395ZM123.63 12.8342C123.758 12.7376 123.822 12.5766 123.822 12.3513C123.822 12.1581 123.758 11.9971 123.63 11.9005C123.502 11.8039 123.31 11.7395 123.022 11.7395H122.319V12.9952H123.022C123.278 12.9952 123.502 12.9308 123.63 12.8342Z" fill="white"/>
<path fill-rule="evenodd" clip-rule="evenodd" d="M121.985 10.5354H122.461V11.4691H123.112C123.418 11.4362 123.703 11.5034 123.891 11.6545C124.081 11.8075 124.188 12.0344 124.188 12.3513C124.188 12.6709 124.08 12.8915 123.9 13.0722L123.893 13.0793C123.673 13.2635 123.388 13.3301 123.054 13.3301H121.985V10.5354ZM122.205 10.7543V13.1112H123.054C123.358 13.1112 123.583 13.0503 123.747 12.9147C123.885 12.7743 123.968 12.6091 123.968 12.3513C123.968 12.0887 123.883 11.9292 123.753 11.8246C123.69 11.774 123.606 11.7335 123.505 11.7083C123.578 11.7366 123.642 11.7719 123.696 11.8134C123.86 11.9367 123.932 12.1354 123.932 12.3513C123.932 12.5961 123.862 12.7966 123.696 12.9215C123.543 13.0375 123.292 13.1047 123.023 13.1047H122.209V11.6301H122.241V10.7543H122.205ZM122.429 11.849V12.8858H123.023C123.264 12.8858 123.461 12.8243 123.564 12.7471C123.654 12.6788 123.712 12.5574 123.712 12.3513C123.712 12.1808 123.656 12.0575 123.564 11.9877C123.46 11.9098 123.294 11.849 123.023 11.849H122.429Z" fill="white"/>
<path d="M127.115 12.963V13.8323H126.891V13.1884H124.461V13.8323H124.237V12.963H124.397C124.557 12.963 124.685 12.802 124.749 12.5444C124.813 12.2868 124.845 11.9005 124.877 11.4497L124.909 10.6125H126.731V12.9952L127.115 12.963ZM124.973 12.4478C124.909 12.7054 124.845 12.8986 124.717 12.963H126.443V10.8057H125.101L125.069 11.4497C125.069 11.8361 125.037 12.1902 124.973 12.4478Z" fill="white"/>
<path fill-rule="evenodd" clip-rule="evenodd" d="M124.803 10.5032H126.841V12.8762L127.225 12.844V13.9418H126.781V13.2979H124.571V13.9418H124.127V12.8536H124.397C124.436 12.8536 124.479 12.8353 124.524 12.7808C124.57 12.725 124.613 12.6371 124.642 12.5182C124.703 12.272 124.735 11.8968 124.767 11.4438L124.803 10.5032ZM124.683 12.9323C124.61 13.0159 124.513 13.0725 124.397 13.0725H124.347V13.7229H124.351V13.079H126.621V10.7221H126.553V13.0725H124.717L124.683 12.9323ZM124.954 12.8536H126.334V10.9152H125.205L125.179 11.4525C125.178 11.8422 125.146 12.2051 125.079 12.4741C125.047 12.6032 125.014 12.7244 124.969 12.8228C124.964 12.8331 124.96 12.8434 124.954 12.8536ZM127.001 13.0824V13.7229H127.005V13.0821L127.001 13.0824Z" fill="white"/>
<path d="M127.818 10.5803H128.074V12.802L129.897 10.5803H130.12V13.1561H129.865V10.9345L128.042 13.1561H127.818V10.5803Z" fill="white"/>
<path fill-rule="evenodd" clip-rule="evenodd" d="M127.708 10.4709H128.184V12.495L129.845 10.4709H130.23V13.2656H129.755V11.2416L128.094 13.2656H127.708V10.4709ZM127.928 10.6898V13.0468H127.964V10.6898H127.928ZM129.975 10.6898V13.0468H130.011V10.6898H129.975Z" fill="white"/>
<path d="M133.094 10.5803V13.1561H132.87V12.2546H132.007C131.943 12.2546 131.911 12.2546 131.879 12.2546L131.24 13.1561H130.984L131.655 12.2224C131.432 12.1902 131.272 12.0936 131.176 11.9648C131.08 11.836 131.016 11.6428 131.016 11.4497C131.016 11.1599 131.112 10.9667 131.304 10.8057C131.495 10.6447 131.751 10.5803 132.071 10.5803H133.094ZM132.039 12.0936H132.87V10.8057H132.071C131.527 10.8057 131.24 11.0311 131.24 11.4497C131.24 11.8682 131.495 12.0936 132.039 12.0936Z" fill="white"/>
<path fill-rule="evenodd" clip-rule="evenodd" d="M132.071 10.6898C131.765 10.6898 131.539 10.7517 131.374 10.8894C131.289 10.9615 131.228 11.0376 131.188 11.1249C131.148 11.2124 131.126 11.3171 131.126 11.4497C131.126 11.509 131.133 11.5679 131.145 11.6242C131.135 11.5688 131.13 11.5105 131.13 11.4497C131.13 11.2132 131.213 11.0176 131.384 10.8845C131.551 10.755 131.786 10.6963 132.071 10.6963H132.98V13.0468H132.984V10.6898H132.071ZM133.094 10.5804V10.4709H132.071C131.738 10.4709 131.452 10.5379 131.233 10.7221C131.127 10.811 131.044 10.912 130.988 11.034C130.932 11.1558 130.906 11.2926 130.906 11.4497C130.906 11.6642 130.976 11.8807 131.087 12.0301C131.175 12.1482 131.305 12.2394 131.47 12.2923L130.77 13.2656H131.297L131.936 12.3641H132.76V13.2656H133.204V10.5804H133.094ZM131.519 11.0571C131.411 11.1413 131.35 11.2677 131.35 11.4497C131.35 11.6359 131.406 11.7619 131.506 11.8444C131.61 11.9301 131.78 11.9842 132.039 11.9842H132.76V10.9152H132.071C131.812 10.9152 131.632 10.9693 131.519 11.0571Z" fill="white"/>
<path d="M115.445 17.6639C115.637 17.7605 115.796 17.9215 115.892 18.1147C115.988 18.3078 116.052 18.5332 116.052 18.7908C116.052 19.0484 115.988 19.2738 115.892 19.467C115.796 19.6601 115.637 19.8211 115.445 19.9177C115.253 20.0143 115.029 20.0787 114.805 20.0787C114.581 20.0787 114.358 20.0143 114.198 19.9177C114.006 19.8211 113.878 19.6601 113.782 19.467V21.0125H113.526V17.4707H113.75V18.0825C113.846 17.8893 114.006 17.7283 114.166 17.6317C114.358 17.5351 114.55 17.4707 114.773 17.4707C115.061 17.5029 115.253 17.5673 115.445 17.6639ZM115.317 19.7889C115.477 19.6923 115.605 19.5636 115.701 19.4026C115.796 19.2416 115.828 19.0484 115.828 18.823C115.828 18.5976 115.796 18.4366 115.701 18.2434C115.605 18.0825 115.477 17.9537 115.317 17.8571C115.157 17.7605 114.997 17.7283 114.773 17.7283C114.581 17.7283 114.39 17.7605 114.23 17.8571C114.07 17.9537 113.942 18.0825 113.846 18.2434C113.75 18.4044 113.718 18.5976 113.718 18.823C113.718 19.0484 113.75 19.2094 113.846 19.4026C113.942 19.5636 114.07 19.6923 114.23 19.7889C114.39 19.8855 114.55 19.9177 114.773 19.9177C114.997 19.9177 115.157 19.8533 115.317 19.7889Z" fill="white"/>
<path fill-rule="evenodd" clip-rule="evenodd" d="M113.417 17.3613H113.86V17.7394C113.938 17.6584 114.023 17.5901 114.109 17.5382L114.116 17.5338C114.317 17.4326 114.527 17.3613 114.773 17.3613H114.78L114.786 17.362C115.087 17.3957 115.291 17.4639 115.494 17.5663C115.708 17.6737 115.885 17.852 115.991 18.0662C116.094 18.2727 116.162 18.5146 116.162 18.7909C116.162 19.0671 116.094 19.309 115.991 19.5155C115.885 19.7298 115.708 19.9081 115.494 20.0155C115.29 20.1182 115.05 20.1882 114.805 20.1882C114.564 20.1882 114.322 20.1198 114.144 20.0135C114.046 19.9633 113.963 19.8984 113.892 19.8235V21.122H113.417V17.3613ZM115.936 18.923C115.94 18.88 115.942 18.836 115.942 18.7909C115.942 18.552 115.883 18.3431 115.794 18.1632C115.708 17.9911 115.566 17.8474 115.395 17.7616C115.216 17.6715 115.038 17.6112 114.767 17.5802C114.57 17.5814 114.399 17.6376 114.219 17.7275C114.187 17.7471 114.155 17.7698 114.123 17.795C114.14 17.7842 114.156 17.7737 114.173 17.7636C114.356 17.6526 114.571 17.6189 114.773 17.6189C115.01 17.6189 115.191 17.6532 115.374 17.7636C115.549 17.8695 115.69 18.0113 115.795 18.1877L115.799 18.1949C115.904 18.4054 115.938 18.5836 115.938 18.8231C115.938 18.8568 115.938 18.8901 115.936 18.923ZM113.796 18.1187C113.78 18.1411 113.766 18.1641 113.752 18.1877C113.695 18.2835 113.658 18.3875 113.636 18.498V17.5802H113.64V18.0825L113.796 18.1187ZM113.636 19.1365V20.9031H113.672V19.467L113.747 19.4497C113.693 19.341 113.658 19.2409 113.636 19.1365ZM114.773 17.8378C114.592 17.8378 114.423 17.8685 114.287 17.9507C114.143 18.0379 114.027 18.1537 113.941 18.2993C113.859 18.436 113.828 18.6064 113.828 18.8231C113.828 19.0329 113.857 19.1763 113.943 19.3504C114.029 19.4943 114.144 19.6089 114.287 19.6954C114.424 19.7783 114.562 19.8084 114.773 19.8084C114.97 19.8084 115.111 19.7538 115.267 19.6909C115.408 19.6043 115.521 19.4899 115.606 19.3468C115.687 19.2101 115.719 19.0397 115.719 18.8231C115.719 18.6132 115.69 18.4699 115.604 18.2958C115.517 18.1518 115.403 18.0372 115.26 17.9507C115.123 17.8679 114.985 17.8378 114.773 17.8378Z" fill="white"/>
<path d="M116.884 17.5352H117.14V19.7568L118.962 17.5352H119.186V20.111H118.93V17.8893L117.108 20.111H116.884V17.5352Z" fill="white"/>
<path fill-rule="evenodd" clip-rule="evenodd" d="M116.773 17.4255H117.249V19.4496L118.909 17.4255H119.295V20.2202H118.82V18.1962L117.159 20.2202H116.773V17.4255ZM116.993 17.6444V20.0014H117.029V17.6444H116.993ZM119.04 17.6444V20.0014H119.076V17.6444H119.04Z" fill="white"/>
<path d="M121.52 17.6638C121.712 17.7926 121.871 17.9214 121.999 18.1467C122.127 18.3399 122.191 18.5653 122.191 18.8229C122.191 19.0805 122.127 19.3059 121.999 19.499C121.871 19.6922 121.712 19.8532 121.52 19.982C121.328 20.1108 121.104 20.143 120.848 20.143C120.657 20.143 120.465 20.1108 120.273 20.0464C120.113 19.982 119.953 19.8854 119.825 19.7566L119.953 19.5956C120.177 19.7888 120.465 19.9176 120.816 19.9176C121.008 19.9176 121.2 19.8854 121.36 19.7888C121.52 19.6922 121.648 19.5634 121.776 19.4347C121.871 19.2737 121.935 19.1127 121.935 18.9195H120.497V18.7263H121.935C121.903 18.5331 121.84 18.3721 121.744 18.2111C121.648 18.0502 121.52 17.9536 121.36 17.857C121.2 17.7604 121.008 17.7282 120.816 17.7282C120.465 17.7282 120.177 17.8248 119.953 18.0502L119.825 17.9214C119.953 17.7926 120.081 17.696 120.273 17.6316C120.433 17.5672 120.625 17.535 120.848 17.535C121.104 17.5028 121.328 17.5672 121.52 17.6638Z" fill="white"/>
<path fill-rule="evenodd" clip-rule="evenodd" d="M121.086 17.642C121.201 17.6634 121.314 17.7013 121.417 17.7635C121.582 17.8636 121.728 17.9715 121.838 18.1554C121.94 18.3267 122.009 18.5004 122.044 18.7086L122.065 18.8358H122.045V18.9196C122.045 19.1393 121.972 19.3199 121.87 19.4906L121.863 19.5021L121.85 19.5157C121.724 19.6419 121.588 19.7788 121.417 19.8825C121.233 19.9934 121.019 20.0271 120.816 20.0271C120.538 20.0271 120.296 19.9522 120.091 19.8303C120.161 19.8754 120.236 19.9133 120.311 19.9438C120.491 20.0039 120.67 20.0336 120.848 20.0336C121.097 20.0336 121.294 20.0018 121.458 19.8913C121.638 19.7707 121.787 19.6201 121.907 19.4389C122.022 19.2656 122.081 19.0617 122.081 18.823C122.081 18.5843 122.022 18.3804 121.907 18.207L121.903 18.2008C121.789 17.9991 121.647 17.8819 121.464 17.7585C121.348 17.7008 121.223 17.6573 121.086 17.642ZM120.841 17.4256C121.122 17.392 121.366 17.4637 121.569 17.5662L121.575 17.5693L121.581 17.5731C121.778 17.7052 121.953 17.8448 122.093 18.0897C122.233 18.3021 122.301 18.5479 122.301 18.823C122.301 19.0994 122.232 19.3463 122.091 19.5593C121.955 19.7645 121.785 19.9359 121.581 20.0728C121.362 20.2199 121.111 20.2525 120.848 20.2525C120.644 20.2525 120.44 20.2182 120.237 20.1502L120.231 20.1481C120.06 20.0793 119.887 19.975 119.747 19.8336L119.678 19.7648L119.938 19.438L120.025 19.513C120.231 19.6908 120.494 19.8083 120.816 19.8083C120.997 19.8083 121.167 19.7776 121.303 19.6953C121.445 19.6091 121.562 19.4939 121.688 19.3675C121.754 19.2545 121.8 19.1466 121.817 19.029H120.387V18.6169H121.8C121.766 18.4925 121.716 18.3805 121.649 18.267C121.567 18.1289 121.457 18.0437 121.303 17.9506C121.167 17.8684 120.997 17.8377 120.816 17.8377C120.486 17.8377 120.229 17.9274 120.031 18.1272L119.953 18.2059L119.67 17.9214L119.747 17.8445C119.882 17.7082 120.023 17.6004 120.234 17.529C120.408 17.4595 120.612 17.4263 120.841 17.4256Z" fill="white"/>
<path d="M124.973 17.5352V20.111H124.717V17.7605H123.374L123.342 18.4367C123.31 18.7909 123.278 19.0806 123.246 19.3382C123.214 19.5958 123.15 19.789 123.054 19.9178C122.958 20.0788 122.83 20.1432 122.671 20.1432C122.607 20.1432 122.543 20.1432 122.447 20.111L122.479 19.8856C122.543 19.8856 122.575 19.9178 122.607 19.9178C122.735 19.9178 122.862 19.8534 122.926 19.7246C122.99 19.5958 123.054 19.4348 123.086 19.2094C123.118 19.0163 123.118 18.7587 123.15 18.4367L123.182 17.5352H124.973Z" fill="white"/>
<path fill-rule="evenodd" clip-rule="evenodd" d="M123.076 17.4255H125.083V20.2202H124.607V17.8698H123.479L123.452 18.4463C123.42 18.8017 123.387 19.0927 123.355 19.3515C123.323 19.6147 123.256 19.8279 123.146 19.9782C123.091 20.0695 123.023 20.1393 122.941 20.1858C122.857 20.2331 122.766 20.2524 122.671 20.2524C122.604 20.2524 122.525 20.2524 122.412 20.2145L122.325 20.1855L122.383 19.776H122.479C122.531 19.776 122.57 19.7896 122.596 19.8001C122.603 19.803 122.608 19.8048 122.611 19.8061C122.612 19.8069 122.614 19.8075 122.615 19.808C122.704 19.8053 122.786 19.7599 122.828 19.6759C122.888 19.555 122.947 19.4052 122.977 19.194L122.978 19.1915C122.993 19.1012 123 18.994 123.009 18.8644C123.009 18.8487 123.01 18.8327 123.011 18.8164C123.019 18.701 123.026 18.5712 123.04 18.4292L123.076 17.4255ZM123.288 17.6444L123.288 17.6509H124.827V20.0014H124.863V17.6444H123.288ZM122.942 19.8901C122.851 19.982 122.727 20.027 122.607 20.027C122.593 20.027 122.581 20.0253 122.57 20.023L122.57 20.0285C122.605 20.0335 122.636 20.0336 122.671 20.0336C122.735 20.0336 122.788 20.0207 122.832 19.9955C122.87 19.9741 122.907 19.941 122.942 19.8901Z" fill="white"/>
<path d="M127.755 17.7605H126.764V20.111H126.508V17.7605H125.517V17.5352H127.787L127.755 17.7605Z" fill="white"/>
<path fill-rule="evenodd" clip-rule="evenodd" d="M125.406 17.4255H127.913L127.85 17.8698H126.873V20.2202H126.397V17.8698H125.406V17.4255ZM125.626 17.6444V17.6509H126.617V20.0014H126.653V17.6509H127.659L127.66 17.6444H125.626Z" fill="white"/>
<path d="M128.522 19.9822C128.33 19.8856 128.17 19.7246 128.074 19.4992C127.978 19.306 127.915 19.0806 127.915 18.823C127.915 18.5655 127.978 18.3401 128.074 18.1469C128.17 17.9537 128.33 17.7927 128.522 17.6639C128.714 17.5673 128.938 17.5029 129.193 17.5029C129.449 17.5029 129.641 17.5673 129.865 17.6639C130.057 17.7605 130.217 17.9215 130.313 18.1469C130.408 18.3401 130.472 18.5655 130.472 18.823C130.472 19.0806 130.408 19.306 130.313 19.4992C130.217 19.6924 130.057 19.8534 129.865 19.9822C129.673 20.0787 129.449 20.1431 129.193 20.1431C128.938 20.1431 128.714 20.0787 128.522 19.9822ZM129.705 19.789C129.865 19.6924 129.993 19.5636 130.089 19.4026C130.185 19.2416 130.217 19.0484 130.217 18.823C130.217 18.5977 130.185 18.4367 130.089 18.2435C129.993 18.0825 129.865 17.9537 129.705 17.8571C129.545 17.7605 129.385 17.7283 129.161 17.7283C128.97 17.7283 128.778 17.7605 128.618 17.8571C128.458 17.9537 128.33 18.0825 128.234 18.2435C128.138 18.4045 128.106 18.5977 128.106 18.823C128.106 19.0484 128.138 19.2094 128.234 19.4026C128.33 19.5636 128.458 19.6924 128.618 19.789C128.778 19.8856 128.938 19.9178 129.161 19.9178C129.385 19.9178 129.545 19.8534 129.705 19.789Z" fill="white"/>
<path fill-rule="evenodd" clip-rule="evenodd" d="M128.354 19.7256C128.402 19.7712 128.455 19.8129 128.511 19.8505C128.454 19.8159 128.402 19.7743 128.354 19.7256ZM129.011 20.0214C129.069 20.0293 129.13 20.0335 129.194 20.0335C129.427 20.0335 129.632 19.9755 129.809 19.8874C129.987 19.7667 130.13 19.6203 130.214 19.4505C130.303 19.2706 130.363 19.0618 130.363 18.8229C130.363 18.584 130.303 18.3751 130.214 18.1952L130.211 18.1895C130.126 17.9894 129.986 17.8481 129.818 17.7628C129.602 17.6695 129.426 17.6122 129.194 17.6122C129.121 17.6122 129.05 17.6178 128.983 17.6283C129.043 17.6215 129.103 17.6187 129.162 17.6187C129.398 17.6187 129.58 17.653 129.762 17.7634C129.938 17.8693 130.078 18.0111 130.183 18.1875L130.188 18.1947C130.292 18.4052 130.327 18.5834 130.327 18.8229C130.327 19.057 130.294 19.273 130.183 19.4582C130.078 19.6346 129.938 19.7764 129.762 19.8823L129.755 19.8869L129.743 19.8917C129.583 19.9559 129.407 20.027 129.162 20.027C129.109 20.027 129.059 20.0253 129.011 20.0214ZM128.472 17.5661C128.678 17.4627 128.919 17.3933 129.194 17.3933C129.471 17.3933 129.679 17.4642 129.909 17.5633L129.915 17.5659C130.129 17.6736 130.306 17.853 130.413 18.101C130.514 18.3069 130.582 18.5479 130.582 18.8229C130.582 19.0991 130.514 19.341 130.411 19.5475C130.305 19.7623 130.129 19.9365 129.926 20.0727L129.921 20.0765L129.915 20.0796C129.709 20.183 129.469 20.2524 129.194 20.2524C128.919 20.2524 128.678 20.183 128.472 20.0796C128.259 19.972 128.081 19.7927 127.975 19.5447C127.873 19.3388 127.805 19.0979 127.805 18.8229C127.805 18.5466 127.873 18.3047 127.976 18.0982C128.083 17.8835 128.258 17.7092 128.461 17.573L128.466 17.5692L128.472 17.5661ZM129.162 17.8376C128.98 17.8376 128.811 17.8683 128.675 17.9505C128.531 18.0377 128.416 18.1535 128.329 18.2991C128.247 18.4358 128.216 18.6062 128.216 18.8229C128.216 19.0327 128.245 19.1761 128.331 19.3501C128.418 19.4941 128.532 19.6087 128.675 19.6952C128.812 19.7781 128.95 19.8081 129.162 19.8081C129.359 19.8081 129.499 19.7536 129.655 19.6907C129.796 19.604 129.909 19.4897 129.994 19.3466C130.076 19.2099 130.107 19.0395 130.107 18.8229C130.107 18.613 130.078 18.4697 129.992 18.2956C129.906 18.1516 129.791 18.037 129.648 17.9505C129.511 17.8676 129.373 17.8376 129.162 17.8376Z" fill="white"/>
<path d="M133.222 17.6639C133.414 17.7605 133.574 17.9215 133.67 18.1147C133.766 18.3078 133.83 18.5332 133.83 18.7908C133.83 19.0484 133.766 19.2738 133.67 19.467C133.574 19.6601 133.414 19.8211 133.222 19.9177C133.03 20.0143 132.806 20.0787 132.583 20.0787C132.359 20.0787 132.135 20.0143 131.975 19.9177C131.783 19.8211 131.655 19.6601 131.56 19.467V21.0125H131.304V17.4707H131.528V18.0825C131.623 17.8893 131.783 17.7283 131.943 17.6317C132.135 17.5351 132.327 17.4707 132.551 17.4707C132.806 17.5029 133.03 17.5673 133.222 17.6639ZM133.094 19.7889C133.254 19.6923 133.382 19.5636 133.478 19.4026C133.574 19.2416 133.606 19.0484 133.606 18.823C133.606 18.5976 133.574 18.4366 133.478 18.2434C133.382 18.0825 133.254 17.9537 133.094 17.8571C132.934 17.7605 132.774 17.7283 132.551 17.7283C132.359 17.7283 132.167 17.7605 132.007 17.8571C131.847 17.9537 131.719 18.0825 131.623 18.2434C131.528 18.4044 131.496 18.5976 131.496 18.823C131.496 19.0484 131.528 19.2094 131.623 19.4026C131.719 19.5636 131.847 19.6923 132.007 19.7889C132.167 19.8855 132.327 19.9177 132.551 19.9177C132.743 19.9177 132.934 19.8533 133.094 19.7889Z" fill="white"/>
<path fill-rule="evenodd" clip-rule="evenodd" d="M131.194 17.3613H131.638V17.7394C131.715 17.6584 131.8 17.5901 131.886 17.5382L131.893 17.5338C132.095 17.4325 132.304 17.3613 132.551 17.3613H132.558L132.565 17.3622C132.83 17.3957 133.067 17.463 133.272 17.5663C133.485 17.6737 133.662 17.852 133.768 18.0662C133.871 18.2727 133.94 18.5146 133.94 18.7909C133.94 19.0671 133.871 19.309 133.768 19.5155C133.662 19.7298 133.485 19.9081 133.272 20.0155C133.068 20.1182 132.827 20.1882 132.583 20.1882C132.341 20.1882 132.099 20.1198 131.922 20.0135C131.823 19.9633 131.74 19.8984 131.669 19.8235V21.122H131.194V17.3613ZM133.714 18.923C133.718 18.88 133.72 18.836 133.72 18.7909C133.72 18.552 133.661 18.3431 133.571 18.1632C133.486 17.9911 133.343 17.8474 133.173 17.7616C132.996 17.6725 132.787 17.6114 132.544 17.5802C132.347 17.5815 132.176 17.6377 131.997 17.7275C131.965 17.7471 131.932 17.7698 131.901 17.795C131.917 17.7842 131.933 17.7737 131.95 17.7636C132.134 17.6526 132.348 17.6189 132.551 17.6189C132.787 17.6189 132.969 17.6532 133.151 17.7636C133.327 17.8695 133.467 18.0113 133.573 18.1877L133.577 18.1949C133.681 18.4054 133.716 18.5836 133.716 18.8231C133.716 18.8568 133.715 18.8901 133.714 18.923ZM131.573 18.1187C131.558 18.1411 131.543 18.1641 131.529 18.1877C131.472 18.2835 131.436 18.3875 131.414 18.498V17.5802H131.418V18.0825L131.573 18.1187ZM131.414 19.1365V20.9031H131.45V19.467L131.524 19.4497C131.47 19.341 131.435 19.2409 131.414 19.1365ZM132.551 17.8378C132.37 17.8378 132.2 17.8685 132.064 17.9507C131.92 18.0379 131.805 18.1537 131.718 18.2993C131.637 18.436 131.606 18.6064 131.606 18.8231C131.606 19.0329 131.634 19.1763 131.72 19.3504C131.807 19.4943 131.921 19.6089 132.064 19.6954C132.201 19.7783 132.339 19.8084 132.551 19.8084C132.717 19.8084 132.889 19.753 133.045 19.6909C133.186 19.6042 133.298 19.4899 133.383 19.3468C133.465 19.2101 133.496 19.0397 133.496 18.8231C133.496 18.6132 133.467 18.4699 133.381 18.2958C133.295 18.1518 133.18 18.0372 133.037 17.9507C132.9 17.8679 132.762 17.8378 132.551 17.8378Z" fill="white"/>
<path d="M135.012 19.9822C134.82 19.8856 134.661 19.7246 134.565 19.4992C134.469 19.306 134.405 19.0806 134.405 18.823C134.405 18.5655 134.469 18.3401 134.565 18.1469C134.661 17.9537 134.82 17.7927 135.012 17.6639C135.204 17.5673 135.428 17.5029 135.684 17.5029C135.94 17.5029 136.131 17.5673 136.355 17.6639C136.547 17.7605 136.707 17.9215 136.803 18.1469C136.899 18.3401 136.963 18.5655 136.963 18.823C136.963 19.0806 136.899 19.306 136.803 19.4992C136.707 19.6924 136.547 19.8534 136.355 19.9822C136.163 20.0787 135.94 20.1431 135.684 20.1431C135.428 20.1431 135.204 20.0787 135.012 19.9822ZM136.195 19.789C136.355 19.6924 136.483 19.5636 136.579 19.4026C136.675 19.2416 136.707 19.0484 136.707 18.823C136.707 18.5977 136.675 18.4367 136.579 18.2435C136.483 18.0825 136.355 17.9537 136.195 17.8571C136.035 17.7605 135.876 17.7283 135.652 17.7283C135.46 17.7283 135.268 17.7605 135.108 17.8571C134.948 17.9537 134.82 18.0825 134.725 18.2435C134.629 18.4045 134.597 18.5977 134.597 18.823C134.597 19.0484 134.629 19.2094 134.725 19.4026C134.82 19.5636 134.948 19.6924 135.108 19.789C135.268 19.8856 135.428 19.9178 135.652 19.9178C135.876 19.9178 136.035 19.8534 136.195 19.789Z" fill="white"/>
<path fill-rule="evenodd" clip-rule="evenodd" d="M134.844 19.7255C134.892 19.7712 134.945 19.8129 135.001 19.8506C134.945 19.816 134.892 19.7743 134.844 19.7255ZM135.501 20.0214C135.56 20.0293 135.621 20.0335 135.684 20.0335C135.918 20.0335 136.123 19.9755 136.299 19.8874C136.478 19.7667 136.62 19.6203 136.704 19.4505C136.794 19.2706 136.853 19.0618 136.853 18.8229C136.853 18.584 136.794 18.3751 136.704 18.1952L136.701 18.1895C136.616 17.9894 136.476 17.8481 136.308 17.7628C136.092 17.6695 135.917 17.6122 135.684 17.6122C135.611 17.6122 135.541 17.6178 135.473 17.6283C135.533 17.6215 135.593 17.6187 135.652 17.6187C135.888 17.6187 136.07 17.653 136.252 17.7634C136.428 17.8693 136.569 18.0111 136.674 18.1875L136.678 18.1947C136.782 18.4052 136.817 18.5834 136.817 18.8229C136.817 19.057 136.784 19.273 136.674 19.4582C136.569 19.6346 136.428 19.7764 136.252 19.8823L136.245 19.8869L136.233 19.8917C136.074 19.9559 135.897 20.027 135.652 20.027C135.599 20.027 135.549 20.0253 135.501 20.0214ZM134.963 17.5661C135.168 17.4627 135.409 17.3933 135.684 17.3933C135.961 17.3933 136.169 17.4642 136.399 17.5633L136.405 17.5659C136.619 17.6736 136.796 17.853 136.903 18.101C137.005 18.3069 137.073 18.5479 137.073 18.8229C137.073 19.0991 137.004 19.341 136.901 19.5475C136.795 19.7623 136.62 19.9365 136.417 20.0727L136.411 20.0765L136.405 20.0796C136.199 20.183 135.959 20.2524 135.684 20.2524C135.409 20.2524 135.168 20.183 134.963 20.0796C134.749 19.972 134.571 19.7927 134.465 19.5447C134.363 19.3388 134.295 19.0979 134.295 18.8229C134.295 18.5466 134.364 18.3047 134.466 18.0982C134.573 17.8835 134.748 17.7092 134.951 17.573L134.957 17.5692L134.963 17.5661ZM135.652 17.8376C135.471 17.8376 135.301 17.8683 135.165 17.9505C135.021 18.0377 134.906 18.1535 134.819 18.2991C134.738 18.4358 134.707 18.6062 134.707 18.8229C134.707 19.0327 134.735 19.1761 134.821 19.3501C134.908 19.4941 135.022 19.6087 135.165 19.6952C135.302 19.7781 135.44 19.8081 135.652 19.8081C135.849 19.8081 135.99 19.7536 136.146 19.6907C136.287 19.604 136.399 19.4897 136.484 19.3466C136.566 19.2099 136.597 19.0395 136.597 18.8229C136.597 18.613 136.568 18.4697 136.482 18.2956C136.396 18.1516 136.281 18.037 136.138 17.9505C136.001 17.8676 135.863 17.8376 135.652 17.8376Z" fill="white"/>
<path d="M139.84 19.4346C139.84 19.66 139.744 19.821 139.584 19.9498C139.425 20.0786 139.169 20.143 138.849 20.143H137.73V17.5671H138.817C139.105 17.5671 139.329 17.6315 139.489 17.7281C139.648 17.8569 139.744 18.0179 139.744 18.2111C139.744 18.3721 139.712 18.5009 139.616 18.5975C139.52 18.6941 139.425 18.7585 139.265 18.8228C139.648 18.855 139.84 19.0482 139.84 19.4346ZM137.986 18.6941H138.817C139.041 18.6941 139.201 18.6619 139.329 18.5653C139.457 18.4687 139.52 18.3721 139.52 18.2111C139.52 18.0501 139.457 17.9213 139.361 17.8569C139.233 17.7603 139.073 17.7281 138.849 17.7281H138.018L137.986 18.6941ZM139.584 19.4024C139.584 19.2414 139.52 19.1126 139.425 19.016C139.297 18.9194 139.137 18.8872 138.913 18.8872H138.018V19.8854H138.881C139.361 19.9176 139.584 19.7566 139.584 19.4024Z" fill="white"/>
<path fill-rule="evenodd" clip-rule="evenodd" d="M137.62 17.4578H138.817C139.121 17.4578 139.365 17.5258 139.546 17.6346L139.552 17.6385L139.558 17.6431C139.736 17.787 139.854 17.9769 139.854 18.2112C139.854 18.3852 139.82 18.5484 139.695 18.6745C139.655 18.7147 139.615 18.7499 139.571 18.7818C139.65 18.815 139.719 18.8606 139.776 18.9206C139.898 19.0482 139.95 19.2242 139.95 19.4347C139.95 19.6982 139.835 19.8888 139.654 20.0349C139.465 20.1867 139.179 20.2525 138.849 20.2525H137.62V17.4578ZM139.509 18.5486C139.519 18.5396 139.529 18.5303 139.538 18.5206C139.605 18.4535 139.634 18.3591 139.634 18.2112C139.634 18.1766 139.631 18.1431 139.623 18.1105C139.628 18.1432 139.63 18.1768 139.63 18.2112C139.63 18.3071 139.611 18.3907 139.568 18.4662C139.551 18.4959 139.532 18.5231 139.509 18.5486ZM137.91 17.6766H137.84V20.0336H138.849C139.158 20.0336 139.384 19.9705 139.515 19.8648C139.654 19.7533 139.73 19.6219 139.73 19.4347C139.73 19.2588 139.687 19.145 139.617 19.0713C139.608 19.0625 139.599 19.054 139.59 19.0459C139.654 19.1448 139.694 19.2641 139.694 19.4025C139.694 19.6038 139.629 19.7718 139.476 19.8786C139.33 19.9798 139.125 20.011 138.877 19.9949H137.908V18.8036H137.872L137.91 17.6766ZM139.076 18.7845C139.132 18.7896 139.186 18.798 139.237 18.8107L139.227 18.7443C139.179 18.7622 139.129 18.7753 139.076 18.7845ZM138.124 17.8376L138.099 18.5847H138.817C139.032 18.5847 139.163 18.5532 139.262 18.4781C139.32 18.4348 139.355 18.3971 139.377 18.3586C139.398 18.3214 139.411 18.2762 139.411 18.2112C139.411 18.0767 139.357 17.9868 139.299 17.9477L139.294 17.9443C139.195 17.8693 139.064 17.8376 138.849 17.8376H138.124ZM138.128 18.9967V19.776H138.888C139.119 19.7915 139.264 19.7584 139.35 19.6991C139.428 19.6449 139.475 19.5554 139.475 19.4025C139.475 19.2762 139.427 19.1761 139.352 19.0987C139.253 19.027 139.124 18.9967 138.913 18.9967H138.128Z" fill="white"/>
<path d="M116.852 27.0655V24.1033L115.413 26.6147H115.285L113.846 24.1033V27.0655H113.59V23.5881H113.814L115.349 26.2605L116.884 23.5881H117.075V27.0655H116.852Z" fill="white"/>
<path fill-rule="evenodd" clip-rule="evenodd" d="M113.48 23.4788H113.878L115.349 26.0401L116.82 23.4788H117.185V27.175H116.742V24.5161L115.477 26.7242H115.221L113.956 24.5161V27.175H113.48V23.4788ZM113.7 23.6976V26.9561H113.736V23.6976H113.7ZM113.74 23.6976L115.349 26.5053L116.958 23.6976H116.947L115.349 26.4811L113.75 23.6976H113.74ZM116.966 23.6976H116.962V26.9561H116.966V23.6976Z" fill="white"/>
<path d="M118.642 26.9045C118.45 26.8079 118.29 26.6469 118.195 26.4215C118.099 26.2284 118.035 26.003 118.035 25.7454C118.035 25.4878 118.099 25.2624 118.195 25.0692C118.29 24.8761 118.45 24.7151 118.642 24.5863C118.834 24.4897 119.058 24.4253 119.314 24.4253C119.569 24.4253 119.761 24.4897 119.985 24.5863C120.177 24.6829 120.337 24.8439 120.433 25.0692C120.529 25.2624 120.593 25.4878 120.593 25.7454C120.593 26.003 120.529 26.2284 120.433 26.4215C120.337 26.6147 120.177 26.7757 119.985 26.9045C119.793 27.0011 119.569 27.0655 119.314 27.0655C119.058 27.0655 118.834 27.0333 118.642 26.9045ZM119.825 26.7113C119.985 26.6147 120.113 26.4859 120.209 26.325C120.305 26.164 120.337 25.9708 120.337 25.7454C120.337 25.52 120.305 25.359 120.209 25.1658C120.113 25.0049 119.985 24.8761 119.825 24.7795C119.665 24.6829 119.505 24.6507 119.282 24.6507C119.09 24.6507 118.898 24.6829 118.738 24.7795C118.578 24.8761 118.45 25.0049 118.354 25.1658C118.258 25.3268 118.227 25.52 118.227 25.7454C118.227 25.9708 118.258 26.1318 118.354 26.325C118.45 26.4859 118.578 26.6147 118.738 26.7113C118.898 26.8079 119.058 26.8401 119.282 26.8401C119.473 26.8401 119.665 26.8079 119.825 26.7113Z" fill="white"/>
<path fill-rule="evenodd" clip-rule="evenodd" d="M118.474 26.6482C118.522 26.6938 118.575 26.7355 118.631 26.7731C118.574 26.7385 118.522 26.6969 118.474 26.6482ZM118.76 26.8481C118.913 26.9311 119.093 26.9561 119.314 26.9561C119.548 26.9561 119.752 26.8981 119.929 26.81C120.107 26.6893 120.25 26.5429 120.334 26.3731C120.423 26.1932 120.483 25.9844 120.483 25.7455C120.483 25.5066 120.423 25.2977 120.334 25.1178L120.331 25.1121L120.332 25.112C120.246 24.9119 120.106 24.7707 119.938 24.6854C119.722 24.5921 119.547 24.5348 119.314 24.5348C119.241 24.5348 119.17 24.5405 119.103 24.5509C119.163 24.5441 119.223 24.5413 119.282 24.5413C119.518 24.5413 119.7 24.5756 119.882 24.686C120.058 24.7919 120.198 24.9337 120.303 25.1101L120.308 25.1173L120.307 25.1174C120.412 25.328 120.447 25.506 120.447 25.7455C120.447 25.9796 120.414 26.1956 120.303 26.3809C120.198 26.5572 120.058 26.699 119.882 26.8049C119.699 26.9159 119.484 26.9496 119.282 26.9496C119.08 26.9496 118.917 26.9245 118.76 26.8481ZM118.593 24.4887C118.798 24.3853 119.039 24.3159 119.314 24.3159C119.591 24.3159 119.799 24.3868 120.029 24.4859L120.035 24.4885L120.035 24.4887C120.249 24.5964 120.426 24.7756 120.533 25.0237C120.634 25.2295 120.703 25.4705 120.703 25.7455C120.703 26.0217 120.634 26.2636 120.531 26.4701C120.425 26.6849 120.249 26.8591 120.047 26.9953L120.041 26.9991L120.035 27.0022C119.829 27.1056 119.589 27.175 119.314 27.175C119.053 27.175 118.804 27.143 118.587 26.9991C118.375 26.8911 118.2 26.7129 118.095 26.4673C117.993 26.2614 117.925 26.0205 117.925 25.7455C117.925 25.4692 117.994 25.2273 118.096 25.0208C118.203 24.8061 118.378 24.6318 118.581 24.4956L118.586 24.4918L118.593 24.4887ZM119.282 24.7602C119.101 24.7602 118.931 24.7909 118.795 24.8731C118.651 24.9603 118.536 25.0761 118.449 25.2217C118.368 25.3584 118.337 25.5288 118.337 25.7455C118.337 25.9553 118.365 26.0987 118.451 26.2728C118.538 26.4167 118.652 26.5313 118.795 26.6178C118.932 26.7007 119.07 26.7307 119.282 26.7307C119.463 26.7307 119.632 26.7001 119.768 26.6178C119.913 26.5306 120.028 26.4148 120.114 26.2692C120.196 26.1325 120.227 25.9621 120.227 25.7455C120.227 25.5356 120.198 25.3923 120.112 25.2182C120.026 25.0742 119.911 24.9596 119.768 24.8731C119.631 24.7903 119.493 24.7602 119.282 24.7602Z" fill="white"/>
<path d="M121.744 26.9045C121.552 26.808 121.392 26.647 121.296 26.4216C121.2 26.1962 121.136 26.003 121.136 25.7454C121.136 25.4878 121.2 25.2625 121.296 25.0693C121.392 24.8761 121.552 24.7151 121.744 24.6185C121.936 24.5219 122.159 24.4575 122.415 24.4575C122.607 24.4575 122.799 24.4897 122.991 24.5863C123.151 24.6829 123.31 24.7795 123.406 24.9405L123.214 25.0693C123.119 24.9405 123.023 24.8439 122.863 24.7795C122.735 24.7151 122.575 24.6829 122.415 24.6829C122.223 24.6829 122.031 24.7151 121.872 24.8117C121.712 24.9083 121.584 25.0371 121.488 25.1981C121.392 25.3591 121.36 25.5522 121.36 25.7776C121.36 26.003 121.392 26.1962 121.488 26.3572C121.584 26.5182 121.712 26.647 121.872 26.7436C122.031 26.8402 122.223 26.8723 122.415 26.8723C122.575 26.8723 122.735 26.8402 122.863 26.7758C122.991 26.7114 123.119 26.6148 123.214 26.486L123.406 26.6148C123.31 26.7758 123.151 26.8723 122.991 26.9689C122.831 27.0655 122.639 27.0977 122.415 27.0977C122.159 27.0655 121.936 27.0333 121.744 26.9045Z" fill="white"/>
<path fill-rule="evenodd" clip-rule="evenodd" d="M122.415 24.567C122.179 24.567 121.972 24.6264 121.793 24.7162C121.623 24.8021 121.48 24.9457 121.395 25.1178C121.305 25.2977 121.246 25.5066 121.246 25.7455C121.246 25.7897 121.248 25.8319 121.252 25.8726C121.251 25.8414 121.25 25.8097 121.25 25.7777C121.25 25.5436 121.283 25.3276 121.393 25.1423C121.499 24.966 121.639 24.8242 121.815 24.7182C121.998 24.6072 122.213 24.5735 122.415 24.5735C122.587 24.5735 122.763 24.6076 122.908 24.6798C123.053 24.739 123.152 24.8222 123.238 24.9219L123.25 24.9133C123.171 24.8254 123.063 24.7583 122.937 24.6822C122.766 24.5965 122.593 24.567 122.415 24.567ZM122.366 26.9812C122.385 26.9836 122.403 26.986 122.422 26.9884C122.634 26.9877 122.8 26.9563 122.934 26.8755C123.061 26.7984 123.171 26.7308 123.25 26.6421L123.236 26.6322C123.139 26.7366 123.025 26.8167 122.912 26.8735C122.766 26.9472 122.588 26.9819 122.415 26.9819C122.399 26.9819 122.383 26.9816 122.366 26.9812ZM121.694 24.5209C121.9 24.4175 122.14 24.3481 122.415 24.3481C122.62 24.3481 122.83 24.3827 123.04 24.4887L123.048 24.4925C123.051 24.4944 123.054 24.4966 123.057 24.4985C123.211 24.5911 123.391 24.7 123.501 24.8847L123.554 24.9735L123.189 25.2186L123.126 25.1345C123.037 25.0145 122.956 24.935 122.822 24.881L122.813 24.8776C122.704 24.8225 122.562 24.7924 122.415 24.7924C122.234 24.7924 122.065 24.8231 121.929 24.9053C121.784 24.9925 121.669 25.1083 121.583 25.254C121.501 25.3906 121.47 25.561 121.47 25.7777C121.47 25.9943 121.501 26.1647 121.583 26.3014C121.669 26.447 121.784 26.5628 121.929 26.6501C122.065 26.7323 122.234 26.763 122.415 26.763C122.562 26.763 122.704 26.7333 122.813 26.6782C122.929 26.62 123.042 26.5337 123.126 26.4209L123.189 26.3368L123.554 26.5818L123.501 26.6707C123.391 26.8554 123.211 26.9643 123.057 27.0569C123.054 27.0588 123.051 27.0607 123.048 27.0626C122.863 27.1741 122.648 27.2072 122.415 27.2072H122.408L122.401 27.2064C122.151 27.1749 121.904 27.1415 121.688 26.9992C121.476 26.8907 121.3 26.7115 121.195 26.4643C121.097 26.2332 121.026 26.0243 121.026 25.7455C121.026 25.4692 121.095 25.2274 121.198 25.0208C121.304 24.8066 121.481 24.6283 121.694 24.5209Z" fill="white"/>
<path d="M124.973 25.842H124.333V27.0333H124.078V24.4575H124.333V25.6166H124.973L125.932 24.4575H126.188L125.133 25.7132L126.252 27.0333H125.964L124.973 25.842Z" fill="white"/>
<path fill-rule="evenodd" clip-rule="evenodd" d="M123.968 24.3481H124.443V25.5073H124.921L125.88 24.3481H126.423L125.276 25.713L126.489 27.1428H125.912L124.921 25.9515H124.443V27.1428H123.968V24.3481ZM124.188 24.567V26.924H124.224V25.7327H125.005L125 25.7261H124.224V24.567H124.188Z" fill="white"/>
<path d="M129.001 26.3572C129.001 26.5826 128.905 26.7436 128.746 26.8724C128.586 27.0012 128.33 27.0656 128.01 27.0656H126.891V24.4897H127.978C128.266 24.4897 128.49 24.5541 128.65 24.6507C128.81 24.7795 128.905 24.9405 128.905 25.1337C128.905 25.2947 128.873 25.4235 128.778 25.5201C128.682 25.6167 128.586 25.6811 128.426 25.7455C128.81 25.7777 129.001 26.003 129.001 26.3572ZM127.147 25.6489H127.978C128.202 25.6489 128.362 25.6167 128.49 25.5201C128.618 25.4235 128.682 25.3269 128.682 25.1659C128.682 25.0049 128.618 24.8761 128.522 24.8117C128.394 24.7151 128.234 24.6829 128.01 24.6829H127.179V25.6489H127.147ZM128.746 26.3572C128.746 26.1962 128.682 26.0674 128.586 25.9708C128.458 25.8742 128.298 25.842 128.074 25.842H127.179V26.8402H128.042C128.522 26.8402 128.746 26.6792 128.746 26.3572Z" fill="white"/>
<path fill-rule="evenodd" clip-rule="evenodd" d="M126.781 24.3804H127.978C128.282 24.3804 128.527 24.4484 128.707 24.5572L128.713 24.5611L128.719 24.5657C128.897 24.7096 129.015 24.8995 129.015 25.1338C129.015 25.3078 128.981 25.471 128.856 25.5971C128.815 25.6385 128.773 25.6747 128.728 25.7075C128.81 25.7438 128.881 25.7935 128.939 25.8569C129.058 25.9868 129.111 26.1608 129.111 26.3573C129.111 26.6208 128.996 26.8114 128.815 26.9575C128.626 27.1093 128.34 27.1751 128.01 27.1751H126.781V24.3804ZM128.768 25.3327C128.787 25.2795 128.796 25.2147 128.796 25.1338C128.796 25.0669 128.781 25.0039 128.753 24.9447C128.778 25.0121 128.792 25.0873 128.792 25.166C128.792 25.226 128.784 25.2813 128.768 25.3327ZM127.069 24.5993H127.001V26.9562H128.01C128.32 26.9562 128.545 26.8931 128.676 26.7874C128.815 26.6759 128.891 26.5445 128.891 26.3573C128.891 26.1996 128.849 26.0838 128.776 26.0044C128.758 25.9846 128.737 25.9662 128.714 25.9496C128.8 26.0574 128.856 26.1941 128.856 26.3573C128.856 26.5469 128.787 26.7045 128.637 26.8093C128.494 26.9087 128.291 26.9497 128.042 26.9497H127.069V25.7327H127.147V25.6489H127.069V24.5993ZM128.237 25.7393C128.295 25.7446 128.351 25.7534 128.403 25.7668L128.393 25.6974C128.344 25.7162 128.292 25.7298 128.237 25.7393ZM127.289 25.5395V24.7924H128.01C128.225 24.7924 128.356 24.8239 128.455 24.899L128.46 24.9025C128.519 24.9416 128.572 25.0315 128.572 25.166C128.572 25.231 128.559 25.2762 128.538 25.3134C128.516 25.3519 128.481 25.3896 128.423 25.4329C128.324 25.508 128.193 25.5395 127.978 25.5395H127.289ZM127.289 25.9516V26.7308H128.042C128.273 26.7308 128.422 26.6913 128.511 26.6297C128.592 26.5735 128.636 26.4896 128.636 26.3573C128.636 26.231 128.588 26.1309 128.513 26.0535C128.415 25.9818 128.285 25.9516 128.074 25.9516H127.289Z" fill="white"/>
<path d="M131.623 25.6166C131.783 25.7454 131.879 25.9386 131.879 26.2284C131.879 26.5182 131.783 26.7114 131.623 26.8723C131.431 27.0333 131.175 27.0977 130.856 27.0977H129.896V24.5219H130.152V25.4556H130.92C131.207 25.4235 131.463 25.4878 131.623 25.6166ZM131.431 26.7114C131.559 26.6148 131.623 26.4538 131.623 26.2284C131.623 26.0352 131.559 25.8742 131.431 25.7776C131.303 25.681 131.111 25.6166 130.824 25.6166H130.12V26.8723H130.824C131.079 26.8723 131.271 26.808 131.431 26.7114ZM132.326 24.4575H132.582V27.0333H132.326V24.4575Z" fill="white"/>
<path fill-rule="evenodd" clip-rule="evenodd" d="M132.217 24.3481H132.692V27.1428H132.217V24.3481ZM132.436 24.567V26.924H132.472V24.567H132.436ZM129.787 24.4125H130.262V25.3463H130.914C131.219 25.3134 131.505 25.3806 131.692 25.5316C131.882 25.6846 131.989 25.9115 131.989 26.2285C131.989 26.548 131.881 26.7686 131.701 26.9494L131.694 26.9564C131.475 27.1406 131.189 27.2072 130.856 27.2072H129.787V24.4125ZM130.006 24.6314V26.9884H130.856C131.16 26.9884 131.385 26.9275 131.548 26.7919C131.687 26.6514 131.769 26.4862 131.769 26.2285C131.769 25.9659 131.684 25.8064 131.554 25.7018C131.491 25.6512 131.407 25.6106 131.307 25.5854C131.379 25.6137 131.443 25.649 131.498 25.6905C131.661 25.8139 131.733 26.0126 131.733 26.2285C131.733 26.4732 131.663 26.6737 131.498 26.7986L131.493 26.802L131.488 26.805C131.312 26.9117 131.1 26.9819 130.824 26.9819H130.01V25.5073H130.042V24.6314H130.006ZM130.23 25.7261V26.763H130.824C131.056 26.763 131.227 26.7057 131.369 26.621C131.457 26.5521 131.513 26.4312 131.513 26.2285C131.513 26.058 131.457 25.9347 131.365 25.8649C131.262 25.7869 131.096 25.7261 130.824 25.7261H130.23Z" fill="white"/>
<path fill-rule="evenodd" clip-rule="evenodd" d="M105.294 27.7737V9.00244H106.027V27.7737H105.294Z" fill="white"/>
<path d="M30.428 7.3285C33.0178 9.93651 34.5845 13.2207 35.0641 16.6336L36.7906 16.5048C36.2791 12.7055 34.5525 9.00278 31.6749 6.07279C30.4919 4.88147 29.213 3.91554 27.8382 3.1106L27.0708 4.68828C28.2538 5.39663 29.4048 6.29817 30.428 7.3285Z" fill="#223334"/>
<path d="M7.27933 7.32833C7.75893 6.84536 8.23853 6.39459 8.7501 6.00822L7.75893 4.55933C7.15144 5.04229 6.57592 5.52526 6.03238 6.10482C5.26502 6.87756 4.62556 7.6825 4.01807 8.51964L5.48883 9.45338C6.03238 8.68063 6.6079 7.97228 7.27933 7.32833Z" fill="#00A48A"/>
<path d="M33.689 25.9709L35.2237 26.8081C36.4387 24.2323 37.0142 21.3989 36.9502 18.5977L35.2237 18.7264C35.2557 21.2057 34.7441 23.6849 33.689 25.9709Z" fill="#005D62"/>
<path d="M25.1842 3.78656L25.9515 2.20888C20.644 -0.0449635 14.5051 0.341409 9.48535 3.36799L10.4765 4.81689C14.9528 2.14448 20.4522 1.79031 25.1842 3.78656Z" fill="#005D62"/>
<path d="M4.40161 11.2243L2.93085 10.2905C-0.202528 16.1183 0.0212845 23.2984 3.63425 28.9008L5.04108 27.8705C1.84376 22.8154 1.65192 16.4403 4.40161 11.2243Z" fill="#223334"/>
<path d="M30.4279 30.6718C26.9108 34.2135 22.1788 35.7912 17.5746 35.437L17.3188 37.1757C22.4346 37.5943 27.7101 35.8556 31.6428 31.8953C32.634 30.8972 33.4973 29.8024 34.2007 28.6755L32.666 27.8384C32.0585 28.8365 31.3231 29.7702 30.4279 30.6718Z" fill="#223334"/>
<path d="M7.27934 30.6716C6.92763 30.3175 6.6079 29.9633 6.28817 29.5769L4.88135 30.6072C5.23305 31.058 5.6487 31.4766 6.06436 31.8951C8.68616 34.5353 11.9154 36.2096 15.3046 36.8858L15.5604 35.1471C12.491 34.5032 9.61338 33.0221 7.27934 30.6716Z" fill="#00A48A"/>
<path d="M11.7558 31.058C11.436 30.8649 11.1483 30.6717 10.8285 30.4463L9.70947 31.7986C10.0612 32.0562 10.4449 32.3138 10.8605 32.5391C13.5782 34.149 16.5837 34.8574 19.5252 34.7286L19.3334 32.9899C16.7755 33.0865 14.1537 32.4747 11.7558 31.058Z" fill="#223334"/>
<path d="M6.86375 11.8682C7.11954 11.4174 7.4073 10.9988 7.72703 10.5803L6.41613 9.42114C6.03245 9.90411 5.71272 10.4193 5.39299 10.9666C4.94536 11.7072 4.59366 12.5121 4.27393 13.2849L5.93653 13.8C6.19232 13.1561 6.51205 12.4799 6.86375 11.8682Z" fill="#00A48A"/>
<path d="M5.29682 15.8286L3.63422 15.3135C2.32331 20.7871 4.01789 26.6149 8.14243 30.5108L9.2615 29.1585C5.6805 25.6811 4.20973 20.5939 5.29682 15.8286Z" fill="#005D62"/>
<path d="M20.7079 5.10677L21.0596 3.40029C16.2317 2.72414 11.2758 4.33402 7.75879 7.84357L9.06969 9.00269C12.1711 5.94391 16.4875 4.52721 20.7079 5.10677Z" fill="#1C3B40"/>
<path d="M25.9515 6.94202C28.6053 8.51971 30.5236 10.8379 31.6427 13.4782L33.3053 12.8986C32.0584 9.87202 29.8522 7.2318 26.8467 5.42873C25.6637 4.72038 24.4168 4.20522 23.1378 3.81885L22.7861 5.52533C23.8412 5.8473 24.9283 6.33027 25.9515 6.94202Z" fill="#213030"/>
<path d="M32.5702 21.4311L34.2648 21.8497C34.6805 19.4993 34.5846 17.1166 33.9771 14.8628L32.3145 15.4424C32.826 17.3742 32.9219 19.4349 32.5702 21.4311Z" fill="#213030"/>
<path d="M30.8435 26.1319C28.7332 29.738 25.2482 32.0563 21.4434 32.7646L21.6352 34.5033C25.9516 33.7305 29.9482 31.1225 32.3462 27.0012C32.9217 26.0031 33.4013 24.9406 33.753 23.878L32.0585 23.4595C31.7387 24.361 31.3231 25.2625 30.8435 26.1319Z" fill="#1C3B40"/>
<path d="M14.6332 29.7057C14.2815 29.5769 13.9618 29.4159 13.6421 29.2549L12.7148 30.736C13.1305 30.9614 13.5461 31.1545 13.9938 31.3155C14.6332 31.5731 15.2727 31.7663 15.9122 31.9273L16.1679 30.1886C15.6564 30.0598 15.1448 29.8988 14.6332 29.7057Z" fill="#1C3B40"/>
<path d="M29.5006 23.234C29.4047 23.4594 29.3088 23.6848 29.2129 23.9101L30.7156 24.8117C30.8435 24.5219 31.0034 24.1999 31.1313 23.9101C32.0905 21.4631 32.2823 18.9195 31.8347 16.5369L30.1401 16.9876C30.4918 19.0161 30.3 21.1733 29.5006 23.234Z" fill="#005D62"/>
<path d="M18.2138 30.5108L17.958 32.2495C22.5302 32.5715 27.0064 30.4142 29.6602 26.6149L28.1575 25.7134C25.8874 28.9331 22.0825 30.704 18.2138 30.5108Z" fill="#005D62"/>
<path d="M23.0741 8.26202C26.2075 9.51773 28.4776 11.997 29.5647 14.9269L31.2592 14.4762C30.0123 11.031 27.3585 8.10104 23.7136 6.61994C22.8503 6.26577 21.987 6.04038 21.1237 5.87939L20.9639 7.61807C21.6673 7.77906 22.3707 8.00444 23.0741 8.26202Z" fill="#00A48A"/>
<path d="M7.40745 19.4347L5.64893 19.3381C5.77682 23.3629 7.69521 27.1944 10.9565 29.6092L11.8837 28.1281C9.16598 26.0675 7.53534 22.8477 7.40745 19.4347Z" fill="#1C3B40"/>
<path d="M18.8857 7.45709L19.0456 5.71841C17.1591 5.68622 15.3367 6.07259 13.6421 6.81314L14.4734 8.35863C15.8482 7.77907 17.351 7.45709 18.8857 7.45709Z" fill="#005D62"/>
<path d="M8.20633 14.7338C9.10158 12.4477 10.6683 10.5803 12.5867 9.32454L11.7554 7.77905C9.48526 9.22795 7.63081 11.3852 6.5757 14.0898C6.16005 15.1201 5.90426 16.1827 5.77637 17.2452L7.53489 17.3418C7.63081 16.4724 7.85462 15.6031 8.20633 14.7338Z" fill="#213030"/>
<path d="M27.8061 18.3721L29.5647 18.4687C29.3728 14.8625 27.3905 11.514 24.2891 9.67871L23.5537 11.2886C26.0156 12.8019 27.6143 15.4743 27.8061 18.3721Z" fill="#223334"/>
<path d="M9.93333 20.0786H8.1748C8.33467 21.4631 8.71835 22.8154 9.38979 24.0389L10.8606 23.073C10.381 22.1393 10.0612 21.1411 9.93333 20.0786Z" fill="#005D62"/>
<path d="M16.3914 27.7093C14.6009 27.1942 13.1301 26.1639 12.0111 24.8438L10.5723 25.8097C11.9151 27.484 13.7376 28.7397 15.9438 29.3836C16.7431 29.609 17.5424 29.7378 18.3417 29.77L18.2458 27.9991C17.6064 27.9669 16.9989 27.8703 16.3914 27.7093Z" fill="#213030"/>
<path d="M20.3242 27.935L20.4201 29.7058C23.4896 29.2551 26.2712 27.452 27.9658 24.7796L26.3991 24.0068C24.9923 26.0675 22.7542 27.5164 20.3242 27.935Z" fill="#00A48A"/>
<path d="M27.4863 21.4954C27.4223 21.6886 27.3584 21.8818 27.2944 22.0749L28.8611 22.8477C28.957 22.5579 29.0849 22.2681 29.1489 21.9462C29.2768 21.4632 29.3727 21.0124 29.4366 20.5295L27.6781 20.4329C27.6781 20.8192 27.5822 21.1412 27.4863 21.4954Z" fill="#1C3B40"/>
<path d="M10.2211 16.5048C10.9245 14.0256 12.5871 12.0937 14.6973 10.9668L14.0579 9.32471C11.468 10.6448 9.38979 12.9952 8.52651 16.0218C8.33467 16.6658 8.20678 17.3419 8.1748 18.0181H9.93333C9.9653 17.5029 10.0612 16.9878 10.2211 16.5048Z" fill="#005D62"/>
<path d="M21.3154 10.2906C21.4113 10.3228 21.5392 10.355 21.6351 10.3872L22.3705 8.77728C22.1786 8.71288 21.9868 8.64849 21.795 8.58409C19.8446 8.00453 17.8303 8.03673 16.0078 8.55189L16.6473 10.194C18.118 9.8398 19.7487 9.8398 21.3154 10.2906Z" fill="#1C3B40"/>
</svg>
