<svg width="99" height="38" viewBox="0 0 99 38" fill="none" xmlns="http://www.w3.org/2000/svg">
<g clip-path="url(#clip0_125_985)">
<path fill-rule="evenodd" clip-rule="evenodd" d="M38.2962 38H0V0H38.2962V38Z" fill="#E42A35"/>
<path fill-rule="evenodd" clip-rule="evenodd" d="M19.0692 34.1791H2.7959L4.27289 31.6667H16.3525L21.7066 22.6116H31.1488L35.4215 29.8609H21.6275L19.0692 34.1791Z" fill="white"/>
<path fill-rule="evenodd" clip-rule="evenodd" d="M15.3766 29.861L20.8098 20.6489H30.0146L28.5377 18.1365H18.3306L11.4204 29.861H15.3766Z" fill="white"/>
<path fill-rule="evenodd" clip-rule="evenodd" d="M9.38935 29.8608L17.3545 16.3305H27.4561L20.3876 4.34424L5.354 29.8608H9.38935Z" fill="white"/>
<path fill-rule="evenodd" clip-rule="evenodd" d="M20.6513 10.7825L19.0688 13.321H22.1019L20.6513 10.7825Z" fill="#E42A35"/>
<path fill-rule="evenodd" clip-rule="evenodd" d="M24.1595 25.1501L22.9463 27.27H30.3312L29.0916 25.1501H24.1595Z" fill="#E42A35"/>
<path d="M42.3579 12.7714V7.45874C43.1492 7.45874 43.914 7.45874 44.7316 7.45874C46.024 7.45874 46.6834 8.45323 46.657 9.44772C46.657 10.416 45.9976 11.3844 44.7316 11.3844H43.7558V12.7714H42.3579ZM44.7316 10.2067C45.1009 10.2067 45.3119 9.81411 45.3119 9.42155C45.3119 9.02899 45.1009 8.6626 44.7316 8.6626H43.7558V10.1805H44.7316V10.2067Z" fill="white"/>
<path d="M49.9803 12.876C48.556 12.876 47.2373 11.9601 47.2373 10.1281C47.2373 8.29615 48.6088 7.354 50.0067 7.354C51.3781 7.354 52.7496 8.26998 52.7496 10.1281C52.7496 11.7507 51.6155 12.876 49.9803 12.876ZM49.9803 11.5675C50.6397 11.5675 51.3254 11.0703 51.3254 10.1281C51.3254 9.18596 50.666 8.68871 50.0067 8.68871C49.3209 8.68871 48.6352 9.15979 48.6352 10.1281C48.6352 11.0703 49.2945 11.5675 49.9803 11.5675Z" fill="white"/>
<path d="M56.2049 7.43262C57.3126 7.43262 58.5259 8.03455 58.7105 9.44777H57.3654C57.1808 8.89818 56.7588 8.68882 56.2049 8.68882C55.3873 8.68882 54.8598 9.26457 54.8598 10.1544C54.8598 10.9133 55.3873 11.5938 56.2049 11.5938C56.7851 11.5938 57.2335 11.3321 57.3918 10.7563H58.7369C58.5259 12.2742 57.339 12.8761 56.2049 12.8761C54.8334 12.8761 53.4619 11.9602 53.4619 10.1806C53.4619 8.29625 54.8334 7.43262 56.2049 7.43262Z" fill="white"/>
<path d="M62.1653 7.43262C63.2731 7.43262 64.4863 8.03455 64.671 9.44777H63.3258C63.1412 8.89818 62.7192 8.68882 62.1653 8.68882C61.3477 8.68882 60.8202 9.26457 60.8202 10.1544C60.8202 10.9133 61.3477 11.5938 62.1653 11.5938C62.7456 11.5938 63.194 11.3321 63.3522 10.7563H64.6973C64.4863 12.2742 63.2995 12.8761 62.1653 12.8761C60.7939 12.8761 59.4224 11.9602 59.4224 10.1806C59.4224 8.29625 60.7939 7.43262 62.1653 7.43262Z" fill="white"/>
<path d="M66.069 12.7976H65.647V7.48491H67.0448V10.0758L69.8406 7.45874H70.2889V12.7976H68.8911V10.0496L66.069 12.7976Z" fill="white"/>
<path d="M72.0031 12.7975H71.5811V7.48485H72.9789V10.0758L75.7746 7.45868H76.223V12.7975H74.8252V10.0496L72.0031 12.7975ZM72.847 5.96694C72.8734 6.77823 73.3218 7.19697 74.113 7.19697C74.9307 7.19697 75.379 6.77823 75.4054 5.96694C75.1416 5.94077 74.9043 5.9146 74.6405 5.88843C74.5878 6.20248 74.4032 6.28099 74.0867 6.28099C73.7702 6.28099 73.6119 6.15014 73.5855 5.88843L72.847 5.96694Z" fill="white"/>
<path d="M79.9686 7.43262C81.0763 7.43262 82.2896 8.03455 82.4742 9.44777H81.1291C80.9444 8.89818 80.5224 8.68882 79.9686 8.68882C79.151 8.68882 78.6235 9.26457 78.6235 10.1544C78.6235 10.9133 79.151 11.5938 79.9686 11.5938C80.5488 11.5938 80.9972 11.3321 81.1554 10.7563H82.5005C82.2896 12.2742 81.1027 12.8761 79.9686 12.8761C78.5971 12.8761 77.2256 11.9602 77.2256 10.1806C77.2256 8.29625 78.5971 7.43262 79.9686 7.43262Z" fill="white"/>
<path d="M85.5333 10.73C85.3751 10.7562 85.0586 10.7562 84.8739 10.7562V12.7713H83.4497V7.48484H84.8476V9.55233C85.0586 9.55233 85.4278 9.5785 85.6388 9.47382C85.8762 9.34297 85.9553 9.02892 86.1136 8.40082C86.2718 7.74655 86.7993 7.22313 88.0389 7.48484V8.42699C87.696 8.40082 87.485 8.47933 87.3796 8.81955C87.1949 9.44765 87.0103 9.89255 86.7202 10.2328C87.2213 11.0179 87.7224 11.8292 88.2499 12.6143V12.8237H86.6674L85.5333 10.73Z" fill="white"/>
<path d="M90.2281 12.117L89.9116 12.7713H88.4609V12.5881L90.9138 7.40625H91.5468L93.9733 12.5881V12.7713H92.5227L92.2062 12.117H90.2281ZM90.7028 10.9655H91.8105L91.2567 9.68311L90.7028 10.9655Z" fill="white"/>
<path d="M95.3187 10.8871C94.7912 10.5207 94.5274 9.94497 94.5274 9.34304C94.5274 8.40089 95.1604 7.45874 96.4528 7.45874H98.8001V12.7714H97.4023V11.1227H96.6638L95.7407 12.7976H94.2637V12.5882L95.3187 10.8871ZM97.4286 9.99731V8.68877H96.4528C96.0572 8.68877 95.8725 9.00282 95.8725 9.31687C95.8725 9.63092 96.0572 9.99731 96.4528 9.99731H97.4286Z" fill="white"/>
<path d="M75.722 21.591C75.1945 21.2246 74.9307 20.6488 74.9307 20.0469C74.9307 19.1047 75.5637 18.1626 76.8561 18.1626H79.2035V23.4753H77.8056V21.8265H77.0671L76.144 23.5014H74.667V23.2921L75.722 21.591ZM77.832 20.7273V19.4188H76.8561C76.4605 19.4188 76.2759 19.7328 76.2759 20.0469C76.2759 20.3609 76.4605 20.7273 76.8561 20.7273H77.832Z" fill="white"/>
<path d="M43.7558 19.4187V23.5275C43.3074 23.5275 42.8327 23.5275 42.3579 23.5275V18.2148C43.4393 18.2148 44.5998 18.2148 45.6811 18.2148C45.6811 18.6597 45.6811 18.9738 45.6811 19.4187H43.7558Z" fill="white"/>
<path d="M46.9205 23.5276H46.5249V18.2149H47.9228V20.8058L50.7185 18.1887H51.1669V23.5276H49.769V20.7796L46.9205 23.5276Z" fill="white"/>
<path d="M54.174 21.8788C54.0421 23.4229 53.5146 23.7108 51.9849 23.4752L52.0112 22.4807C52.6179 22.5331 52.7234 22.4022 52.7761 21.8265L53.1454 18.1887C54.3058 18.1887 55.7828 18.1887 56.917 18.1887V23.5014H55.5191V19.4449H54.3586L54.174 21.8788Z" fill="white"/>
<path d="M59.5805 19.7851H60.5563C63.1147 19.7851 63.1147 23.5014 60.5563 23.5014C59.7651 23.5014 58.9739 23.5014 58.209 23.5014C58.209 21.7218 58.209 19.9683 58.209 18.1887C58.6574 18.1887 59.1321 18.1887 59.5805 18.1887V19.7851ZM59.5805 21.0152C59.5805 21.4601 59.5805 21.8788 59.5805 22.2975C59.897 22.2975 60.2398 22.3237 60.5563 22.2975C61.3476 22.2975 61.2948 21.0152 60.5563 21.0152H59.5805Z" fill="white"/>
<path d="M63.2203 22.3498C63.6423 22.3498 63.7214 22.1666 63.7742 21.6694L64.1698 18.2148C65.3303 18.2148 66.7018 18.2148 67.8622 18.2148V22.3498H68.3897V24.1556H67.2556V23.5275H64.0643V24.1556H63.0093V22.3498H63.2203ZM65.1456 21.7217C65.1193 21.9311 65.0665 22.2451 64.9083 22.376H66.4908V19.3925H65.4094L65.1456 21.7217Z" fill="white"/>
<path d="M69.8932 23.5276H69.4712V18.2149H70.8691V20.8058L73.6912 18.1887H74.1395V23.5276H72.7417V20.7796L69.8932 23.5276Z" fill="white"/>
<path d="M42.3579 34.2314V28.9187C43.1492 28.9187 43.914 28.9187 44.7316 28.9187C46.024 28.9187 46.6834 29.9132 46.657 30.9077C46.657 31.876 45.9976 32.8443 44.7316 32.8443H43.7558V34.2052H42.3579V34.2314ZM44.7316 31.6666C45.1009 31.6666 45.3119 31.2741 45.3119 30.8815C45.3119 30.489 45.1009 30.1226 44.7316 30.1226H43.7558V31.6405L44.7316 31.6666Z" fill="white"/>
<path d="M47.9493 34.2576H47.5273V28.9187H48.9252V31.5097L51.7209 28.8926H52.1693V34.2314H50.7451V31.4835L47.9493 34.2576Z" fill="white"/>
<path d="M54.5165 30.8816H53.1714C53.3824 29.4684 54.5956 28.8665 55.7034 28.8665C57.0749 28.8665 58.3936 29.7824 58.3936 31.5882C58.3936 33.394 56.9958 34.31 55.6506 34.31C54.5165 34.31 53.3033 33.7081 53.0923 32.2163H54.4374C54.5693 32.7921 55.044 33.08 55.6243 33.0538C56.2045 33.0538 56.732 32.7397 56.8903 32.164H55.1495V31.0125H56.9166C56.7848 30.4105 56.2836 30.0965 55.677 30.0965C55.1231 30.1227 54.7011 30.3582 54.5165 30.8816Z" fill="white"/>
<path d="M61.1105 32.6088C60.9786 34.1529 60.4511 34.4407 58.9214 34.2052L58.9478 33.2107C59.5544 33.263 59.6599 33.1322 59.7126 32.5564L60.0819 28.9187C61.2424 28.9187 62.7194 28.9187 63.8535 28.9187V34.2314H62.4556V30.1487H61.2951L61.1105 32.6088Z" fill="white"/>
<path d="M64.75 30.1487V28.9448H68.7326V30.1487H67.4139V34.2575H66.0687V30.1487H64.75Z" fill="white"/>
<path d="M72.056 34.336C70.6317 34.336 69.313 33.42 69.313 31.5881C69.313 29.7561 70.6845 28.814 72.0823 28.814C73.4538 28.814 74.8253 29.7299 74.8253 31.5881C74.799 33.2107 73.6648 34.336 72.056 34.336ZM72.056 33.0275C72.7153 33.0275 73.4011 32.5302 73.4011 31.5881C73.4011 30.6459 72.7417 30.1487 72.0823 30.1487C71.3966 30.1487 70.7109 30.6197 70.7109 31.5881C70.7109 32.5302 71.3702 33.0275 72.056 33.0275Z" fill="white"/>
<path d="M75.8013 34.2314V28.9187C76.5925 28.9187 77.3574 28.9187 78.175 28.9187C79.4674 28.9187 80.1267 29.9132 80.1004 30.9077C80.1004 31.876 79.441 32.8443 78.175 32.8443H77.1991V34.2052H75.8013V34.2314ZM78.175 31.6666C78.5443 31.6666 78.7553 31.2741 78.7553 30.8815C78.7553 30.489 78.5443 30.1226 78.175 30.1226H77.1991V31.6405L78.175 31.6666Z" fill="white"/>
<path d="M83.45 34.336C82.0258 34.336 80.707 33.42 80.707 31.5881C80.707 29.7561 82.0785 28.814 83.4764 28.814C84.8479 28.814 86.2194 29.7299 86.2194 31.5881C86.193 33.2107 85.0589 34.336 83.45 34.336ZM83.45 33.0275C84.1094 33.0275 84.7951 32.5302 84.7951 31.5881C84.7951 30.6459 84.1358 30.1487 83.4764 30.1487C82.7906 30.1487 82.1049 30.6197 82.1049 31.5881C82.1049 32.5302 82.7643 33.0275 83.45 33.0275Z" fill="white"/>
<path d="M90.8087 31.4573C91.257 31.6666 91.468 32.1115 91.468 32.6088C91.468 33.5248 90.8614 34.2314 89.78 34.2314H87.1953V28.9187H89.569C90.5713 28.9187 91.257 29.573 91.257 30.5413C91.257 30.8815 91.0988 31.2479 90.8087 31.4573ZM88.6195 30.1226V31.0124H89.4899C89.7537 31.0124 89.8855 30.803 89.9119 30.5936C89.9119 30.3581 89.78 30.1226 89.4899 30.1226H88.6195ZM88.6195 32.1377V33.0275H89.7009C89.9647 33.0275 90.0965 32.8182 90.1229 32.6088C90.1493 32.3732 89.9647 32.1377 89.7009 32.1377H88.6195Z" fill="white"/>
</g>
<defs>
<clipPath id="clip0_125_985">
<rect width="98.8" height="38" fill="white"/>
</clipPath>
</defs>
</svg>
