<svg width="160" height="12" viewBox="0 0 160 12" fill="none" xmlns="http://www.w3.org/2000/svg">
<path fill-rule="evenodd" clip-rule="evenodd" d="M1.4101 3.82139C1.53271 3.53937 1.65533 3.31375 1.83926 3.08813C1.90057 2.91892 2.02318 2.74971 2.20711 2.6369C2.32972 2.58049 2.45234 2.52409 2.57496 2.52409C2.69758 2.52409 2.75888 2.52409 2.8815 2.58049C3.00412 2.6369 3.06543 2.6933 3.12674 2.74971C3.18804 2.86251 3.24935 2.91892 3.31066 3.03173C3.37197 3.14454 3.43328 3.31375 3.49459 3.42656C3.5559 3.59577 3.6172 3.76498 3.67851 3.9342C3.73982 4.047 3.80113 4.15981 3.92375 4.27262C3.98506 4.38543 4.04636 4.44183 4.16898 4.49824C4.23029 4.55464 4.2916 4.61105 4.41422 4.61105C4.47552 4.61105 4.53683 4.61105 4.59814 4.61105C4.65945 4.61105 4.65945 4.61105 4.72076 4.61105C4.78207 4.61105 4.84338 4.55464 4.90468 4.49824C4.96599 4.44183 5.08861 4.32903 5.14992 4.27262C5.21123 4.15981 5.27254 4.047 5.33384 3.9342C5.45646 3.65217 5.64039 3.48296 5.82431 3.31375C5.94693 3.20094 6.19216 3.14454 6.37609 3.20094C6.62132 3.20094 6.86656 3.25734 7.05048 3.42656C7.23441 3.59577 7.35703 3.87779 7.35703 4.15981C7.41833 4.27262 7.41833 4.44183 7.47964 4.66745C7.54095 4.83666 7.60226 5.06228 7.72488 5.2879C7.84749 5.51351 7.9088 5.73913 7.97011 6.02115C8.03142 6.30317 8.15404 6.47239 8.27665 6.698C8.39927 6.92362 8.46058 7.09283 8.52189 7.31845C8.5832 7.54407 8.64451 7.65687 8.70581 7.71328C8.70581 7.76968 8.76712 7.88249 8.82843 7.9953C8.88974 8.10811 8.95105 8.27732 8.95105 8.44653C9.01236 8.61575 9.01236 8.78496 9.01236 8.95417C9.01236 9.12338 9.01236 9.2926 8.95105 9.40541C8.88974 9.57462 8.82843 9.68743 8.70581 9.80024C8.5832 9.91304 8.39927 10.0259 8.15404 10.0259C7.84749 10.0823 7.60226 10.0259 7.29572 9.91304C7.11179 9.85664 6.92787 9.68743 6.86656 9.51821C6.80525 9.349 6.74394 9.12339 6.74394 8.89777C6.68263 8.67215 6.62132 8.33373 6.56001 8.0517C6.49871 7.54407 6.37609 7.03643 6.19216 6.52879C6.13086 6.30317 6.00824 6.07756 5.763 5.90834C5.64039 5.90834 5.45646 5.96475 5.39515 6.07756C5.27254 6.19036 5.21123 6.35958 5.14992 6.52879C5.14992 6.75441 5.08861 6.92362 4.96599 7.09283C4.78207 7.20564 4.59814 7.31845 4.41422 7.26204C4.2916 7.26204 4.16898 7.20564 4.04636 7.14924C3.98506 7.09283 3.92375 7.03643 3.86244 6.92362C3.80113 6.81081 3.80113 6.75441 3.80113 6.6416C3.80113 6.52879 3.80113 6.41598 3.73982 6.24677C3.67851 6.13396 3.67851 6.07756 3.6172 6.02115C3.5559 5.96475 3.43328 5.90834 3.31066 5.90834C3.18804 5.90834 3.06543 5.96475 2.94281 6.02115C2.82019 6.13396 2.69758 6.30317 2.63627 6.41598C2.51365 6.698 2.45234 6.86722 2.32972 7.09283C2.26842 7.31845 2.20711 7.54407 2.1458 7.76968C2.08449 7.9953 2.02318 8.22092 1.96187 8.44653C1.90057 8.67215 1.83926 8.84136 1.77795 9.01058C1.71664 9.17979 1.65533 9.40541 1.59402 9.57462C1.53271 9.74383 1.4101 9.85664 1.28748 9.96945C1.16486 10.0823 1.04225 10.1387 0.919628 10.1951C0.797011 10.2515 0.674394 10.1951 0.551777 10.1387C0.42916 10.0823 0.306543 9.96945 0.183926 9.80024C0.122617 9.68743 0.0613086 9.51821 0 9.40541C0 9.23619 0 9.12338 0 8.95417C0 8.78496 0.0613086 8.61575 0.122617 8.44653C0.183926 8.33373 0.183926 8.22092 0.245234 8.0517C0.306543 7.88249 0.367851 7.65687 0.42916 7.43126C0.490468 7.20564 0.551777 6.92362 0.613086 6.698C0.674394 6.47239 0.735703 6.19036 0.797011 5.90834C1.04225 5.23149 1.22617 4.55464 1.4101 3.82139ZM16.7985 9.23619C16.9212 9.51821 16.9825 9.80024 17.0438 10.0823C17.1051 10.3079 17.0438 10.4771 16.9825 10.6463C16.9212 10.8155 16.7372 10.9283 16.6146 10.9847C16.3694 11.0975 16.1241 11.1539 15.8789 11.1539C15.6337 11.1539 15.3884 11.0975 15.2045 10.9283C15.0206 10.7591 14.898 10.5899 14.8367 10.3643C14.7141 10.1387 14.6527 9.85664 14.6527 9.63102C14.5914 9.349 14.5301 9.06698 14.4688 8.78496C14.4688 8.67215 14.4075 8.50294 14.2849 8.39013C14.2236 8.33372 14.101 8.33372 14.101 8.39013C13.9783 8.50294 13.917 8.55934 13.8557 8.67215C13.7944 8.78496 13.6718 8.95417 13.6105 9.12338C13.5492 9.2926 13.4266 9.46181 13.3653 9.63102C13.304 9.80023 13.2426 9.96945 13.12 10.0823C13.0587 10.2515 12.9361 10.4771 12.8748 10.6463C12.7522 10.8155 12.6296 10.9847 12.4456 11.0975C12.2617 11.2103 12.0778 11.3231 11.8939 11.3796C11.6486 11.436 11.4034 11.3796 11.1582 11.3231C10.9129 11.2103 10.729 11.0975 10.5451 10.9283C10.3611 10.7591 10.2385 10.5335 10.1772 10.3643C10.1159 10.1387 10.1159 9.91304 10.1159 9.68743C10.1772 9.46181 10.2998 9.17979 10.4838 9.01058C10.6064 8.84136 10.729 8.61575 10.7903 8.44653C10.9129 8.16451 11.0355 7.88249 11.1582 7.48766C11.2808 7.09283 11.4034 6.75441 11.5873 6.30317C11.7099 5.85194 11.8939 5.45711 12.0165 5.00588C12.323 3.9906 12.6909 2.86251 13.0587 1.67803C13.12 1.50881 13.1813 1.3396 13.304 1.22679C13.4266 1.11398 13.5492 1.00118 13.6718 0.944771C13.8557 0.831962 14.0397 0.831962 14.2236 0.831962C14.4075 0.888367 14.5914 0.944771 14.7141 1.05758C14.8367 1.17039 14.9593 1.3396 15.0819 1.50881C15.2045 1.67803 15.2658 1.90364 15.3271 2.07286C15.3884 2.29847 15.4498 2.46769 15.4498 2.6369C15.4498 2.74971 15.5111 2.91892 15.5724 3.20094C15.6337 3.48296 15.695 3.82139 15.7563 4.21622C15.8176 4.61105 15.9402 5.06228 16.0015 5.51351C16.0628 5.96475 16.1855 6.41598 16.3081 6.86722C16.4307 7.31845 16.492 7.71328 16.6146 8.10811C16.7372 8.50294 16.6759 9.01058 16.7985 9.23619ZM14.101 6.698C14.1623 6.698 14.2849 6.6416 14.2849 6.58519C14.3462 6.52879 14.3462 6.47239 14.3462 6.35958C14.3462 6.24677 14.3462 6.13396 14.3462 6.02115L14.2849 5.17509V5.11868C14.2849 5.11868 14.2849 5.06228 14.2236 5.06228C14.1623 5.06228 14.1623 5.06228 14.101 5.06228C14.0397 5.06228 13.9783 5.06228 13.917 5.11868C13.8557 5.17509 13.8557 5.17509 13.8557 5.23149C13.8557 5.2879 13.7944 5.3443 13.8557 5.40071V6.02115C13.8557 6.07756 13.8557 6.13396 13.8557 6.24677C13.8557 6.30317 13.8557 6.35958 13.8557 6.47239C13.8557 6.52879 13.917 6.58519 13.917 6.6416C13.9783 6.6416 14.0397 6.698 14.101 6.698ZM24.7073 3.59577C24.7073 3.65217 24.7073 3.65217 24.7073 3.70858C24.7687 4.047 24.83 4.38543 24.83 4.78026C24.83 4.94947 24.7687 5.11868 24.83 5.3443C24.83 5.45711 24.83 5.62632 24.83 5.73913C24.83 5.85194 24.83 5.96475 24.7687 6.02115C24.7687 6.07756 24.7687 6.19036 24.7687 6.30317C24.7687 6.41598 24.7687 6.58519 24.7687 6.75441C24.7687 6.92362 24.7687 7.09283 24.7687 7.31845C24.7687 7.54407 24.7687 7.71328 24.7687 7.9389C24.7687 8.44653 24.83 8.95417 24.83 9.51821C24.8913 9.68743 24.8913 9.85664 24.8913 10.0259C24.8913 10.1387 24.83 10.3079 24.7073 10.3643C24.5847 10.4771 24.4008 10.5335 24.2169 10.5335C24.0943 10.5335 23.9716 10.5335 23.849 10.5335C23.7877 10.5335 23.6651 10.4771 23.6038 10.4207C23.5425 10.3643 23.4812 10.3079 23.4199 10.2515C23.3586 10.1951 23.3586 10.1387 23.2972 10.0823C23.2359 9.91304 23.2359 9.74383 23.2359 9.57462L23.2972 5.45711C23.3586 4.66745 23.052 4.32902 22.3163 4.44183C22.255 4.44183 22.1937 4.44183 22.1324 4.44183C22.1937 4.49824 22.0711 4.55464 22.0711 4.61105C22.0098 4.66745 21.9485 4.78026 21.9485 4.89307C21.9485 5.00588 21.8872 5.11868 21.8872 5.23149C21.8258 5.3443 21.8258 5.51351 21.8258 5.68273C21.8258 5.85194 21.8258 6.13396 21.8258 6.58519C21.8258 6.98002 21.8258 7.37485 21.7645 7.76968C21.7032 8.22092 21.6419 8.61575 21.5806 9.01058C21.5193 9.2926 21.3967 9.57462 21.2128 9.85664C21.0288 10.0823 20.8449 10.2515 20.5997 10.3643C20.3544 10.4771 20.0479 10.5899 19.7414 10.5899C19.4961 10.5899 19.2509 10.5899 19.067 10.5899C18.8217 10.5899 18.5152 10.5335 18.3313 10.3079C18.1473 10.0823 18.0247 9.85664 17.9634 9.57462C17.9634 9.46181 18.0247 9.349 18.1473 9.2926C18.2699 9.23619 18.3926 9.17979 18.5152 9.17979C18.6991 9.17979 18.883 9.17979 19.1283 9.17979C19.3735 9.17979 19.5574 9.06698 19.7414 8.89777C19.9253 8.78496 20.0479 8.61575 20.1092 8.39013C20.2318 8.16451 20.2931 7.9389 20.3544 7.71328C20.4157 7.43126 20.4157 7.20564 20.4771 6.92362C20.5384 6.6416 20.5384 6.35958 20.5384 6.13396C20.5384 5.90834 20.5384 5.62632 20.5997 5.45711C20.5997 5.23149 20.5384 5.00588 20.4157 4.83666C20.2931 4.72385 20.2318 4.61105 20.1092 4.55464C19.9866 4.49824 19.9253 4.44183 19.8027 4.38543C19.68 4.32902 19.6187 4.27262 19.5574 4.15981C19.4961 4.047 19.4961 3.87779 19.4961 3.76498C19.4961 3.65217 19.5574 3.53937 19.68 3.48296C19.8027 3.37015 19.9253 3.25734 20.0479 3.20094C20.2931 2.91892 21.458 2.80611 23.4812 2.86251C23.6651 2.86251 23.7877 2.86251 23.9716 2.91892C24.1556 2.97532 24.2782 3.03173 24.4008 3.08813C24.5234 3.20094 24.646 3.31375 24.7073 3.42656C24.7687 3.48296 24.7687 3.53937 24.7687 3.59577C24.7073 3.48296 24.7073 3.53937 24.7073 3.59577ZM33.4132 5.00588C33.4132 5.23149 33.4132 5.45711 33.3519 5.68273C33.3519 5.90834 33.3519 6.13396 33.3519 6.30317C33.3519 6.47239 33.3519 6.698 33.3519 6.81081C33.3519 6.92362 33.3519 7.09283 33.3519 7.14924C33.3519 7.26204 33.3519 7.43126 33.3519 7.71328C33.3519 7.9389 33.3519 8.16451 33.3519 8.39013C33.3519 8.61575 33.2905 8.78496 33.2905 9.01058C33.2292 9.23619 33.1679 9.40541 33.1066 9.57462C33.0453 9.74383 32.9227 9.91304 32.8001 10.0823C32.6775 10.2515 32.4935 10.3643 32.3096 10.4771C32.187 10.5335 32.0031 10.5899 31.8804 10.5899C31.7578 10.5899 31.6965 10.5335 31.6352 10.4771C31.5739 10.3643 31.5126 10.3079 31.5126 10.1951C31.5126 10.0823 31.4513 9.91304 31.4513 9.80024C31.4513 9.63102 31.4513 9.51821 31.4513 9.349C31.4513 9.17979 31.5126 9.06698 31.5126 8.95417C31.5126 8.89777 31.5126 8.78496 31.5126 8.61575C31.5126 8.44653 31.5126 8.22092 31.5126 7.9953C31.5126 7.76968 31.5126 7.48766 31.5126 7.26204C31.5126 7.03643 31.5126 6.86722 31.5126 6.698C31.5126 6.58519 31.4513 6.41598 31.4513 6.30317C31.4513 6.24677 31.39 6.19036 31.3287 6.13396C31.2061 6.19036 31.0221 6.24677 30.8995 6.35958C30.7769 6.47239 30.593 6.58519 30.4704 6.75441C30.3477 6.92362 30.2251 7.03643 30.1025 7.20564C29.9799 7.37485 29.8573 7.54407 29.796 7.71328C29.7346 7.82609 29.612 7.9389 29.5507 8.10811C29.4894 8.27732 29.3668 8.44653 29.2442 8.61575C29.1216 8.78496 28.9989 9.01058 28.9376 9.23619C28.815 9.46181 28.6924 9.63102 28.5698 9.80024C28.4472 9.96945 28.2632 10.0823 28.0793 10.1951C27.8954 10.3079 27.7115 10.3643 27.5275 10.4207C27.2823 10.4771 27.0984 10.4771 26.8531 10.3643C26.7305 10.2515 26.6079 10.1387 26.6079 9.96945C26.5466 9.80023 26.5466 9.63102 26.6079 9.46181C26.6079 9.2926 26.6079 9.17979 26.6692 9.01058C26.6692 8.95417 26.6692 8.78496 26.6692 8.50294C26.6692 8.27732 26.6692 8.0517 26.6692 7.76968C26.6692 7.48766 26.6692 7.26205 26.6692 7.03643C26.6692 6.81081 26.6692 6.52879 26.6079 6.24677C26.5466 5.96475 26.5466 5.79554 26.5466 5.56992C26.5466 5.40071 26.4853 5.2879 26.4853 5.11868C26.3627 4.83666 26.3627 4.61105 26.3627 4.32902C26.3627 3.87779 26.3014 3.59577 26.3014 3.42656C26.3014 3.25734 26.3014 3.03173 26.3014 2.86251C26.3014 2.6933 26.3627 2.46769 26.424 2.29847C26.4853 2.12926 26.6079 1.96005 26.7305 1.84724C26.8531 1.73443 27.0371 1.62162 27.221 1.62162C27.4662 1.50881 27.7728 1.50881 28.018 1.56522C28.2019 1.67803 28.3246 1.79083 28.4472 1.96005C28.5698 2.18566 28.6311 2.41128 28.6311 2.6369C28.6311 2.91892 28.6311 3.20094 28.6311 3.42656C28.6311 3.65217 28.5698 4.047 28.5085 4.61105C28.4472 5.17509 28.3859 5.56992 28.3246 5.79554C28.2632 6.02115 28.2632 6.24677 28.2632 6.41598C28.2632 6.52879 28.3859 6.698 28.5085 6.698C28.6924 6.698 28.8763 6.6416 28.9989 6.52879C29.1216 6.41598 29.3055 6.30317 29.3668 6.19036C29.4894 6.02115 29.612 5.90834 29.6733 5.73913L29.9186 5.3443C29.9799 5.23149 30.0412 5.11868 30.1638 4.89307C30.2864 4.66745 30.409 4.49824 30.5317 4.21622C30.6543 3.9342 30.8382 3.70858 31.0221 3.48296C31.2061 3.25734 31.39 2.97532 31.5126 2.74971C31.6965 2.58049 31.8804 2.35488 32.0644 2.18566C32.187 2.07286 32.3709 1.96005 32.5548 1.84724C32.6775 1.79083 32.8614 1.73443 32.984 1.79083C33.1066 1.84724 33.2292 1.96005 33.2905 2.12926C33.3519 2.29847 33.4132 2.46769 33.4745 2.6369C33.5358 2.86251 33.5358 3.03173 33.5358 3.25734C33.4745 3.87779 33.4745 4.49824 33.4132 5.00588ZM35.0072 3.65217C35.0072 3.48296 35.0685 3.31375 35.1911 3.14454C35.3137 2.97532 35.4363 2.86251 35.6203 2.80611C35.8655 2.6933 36.172 2.58049 36.4173 2.58049C36.6012 2.58049 36.7851 2.58049 36.9077 2.6369C37.0304 2.6933 37.153 2.80611 37.2143 2.91892C37.2756 3.03173 37.3369 3.14454 37.3982 3.31375C37.3982 3.48296 37.4595 3.59577 37.4595 3.76498C37.4595 3.9342 37.4595 4.047 37.4595 4.15981C37.4595 4.27262 37.4595 4.38543 37.4595 4.49824C37.4595 4.61105 37.3982 4.72385 37.3982 4.89307C37.3982 5.00588 37.3982 5.17509 37.3982 5.2879C37.4595 5.40071 37.5208 5.51351 37.6435 5.56992C37.8274 5.68273 38.0113 5.68273 38.1952 5.68273C38.3792 5.68273 38.6244 5.62632 38.6857 5.45711C38.8083 5.2879 38.8696 5.06228 38.8696 4.89307C38.8696 4.66745 38.8696 4.44183 38.8083 4.21622C38.747 3.9906 38.747 3.76498 38.6857 3.65217C38.6857 3.53937 38.6857 3.42656 38.6857 3.31375C38.6857 3.14454 38.6857 3.03173 38.6857 2.86251C38.6857 2.6933 38.747 2.58049 38.747 2.41128C38.8083 2.24207 38.8696 2.12926 38.9309 1.96005C38.9922 1.84724 39.1149 1.73443 39.2375 1.62162C39.3601 1.50881 39.544 1.45241 39.7279 1.396C39.9119 1.3396 40.0345 1.3396 40.2184 1.396C40.341 1.45241 40.525 1.56522 40.5863 1.67803C40.7089 1.79083 40.8315 1.96005 40.8928 2.07286C40.9541 2.24207 41.0154 2.41128 41.0767 2.52409C41.138 2.6933 41.1993 2.80611 41.1993 2.97532C41.1993 3.14454 41.2607 3.20094 41.2607 3.25734C41.2607 3.37015 41.2607 3.59577 41.322 3.87779C41.3833 4.15981 41.3833 4.44183 41.4446 4.83666C41.5059 5.23149 41.5672 5.56992 41.6285 5.96475C41.6898 6.35958 41.8124 6.698 41.8737 7.09283C41.9351 7.48766 42.0577 7.76968 42.119 8.16451C42.1803 8.44653 42.2416 8.78496 42.2416 9.12338C42.2416 9.40541 42.1803 9.68743 42.0577 9.91304C41.8124 10.3079 41.2607 10.5335 40.7089 10.4771C40.525 10.4207 40.4023 10.3643 40.2184 10.2515C40.0958 10.1387 39.9732 10.0259 39.8506 9.91304C39.7279 9.80023 39.6666 9.63102 39.6053 9.46181C39.544 9.2926 39.4827 9.17979 39.4214 9.01058C39.3601 8.89777 39.2988 8.72855 39.2988 8.67215C39.2375 8.50294 39.1762 8.39013 39.1149 8.22092C39.0535 8.10811 38.9309 7.9389 38.8696 7.88249C38.747 7.76968 38.6857 7.71328 38.5631 7.65687C38.4405 7.60047 38.3178 7.60047 38.1952 7.60047C38.0726 7.60047 37.95 7.65687 37.8274 7.71328C37.7048 7.82609 37.6434 7.9389 37.5821 8.10811C37.5208 8.27732 37.4595 8.50294 37.4595 8.67215C37.4595 8.95417 37.4595 9.17979 37.5208 9.46181C37.5821 9.74383 37.5821 10.0823 37.5821 10.3643C37.5821 10.6463 37.5208 10.9283 37.4595 11.1539C37.3982 11.3796 37.2143 11.6052 37.0304 11.718C36.7851 11.8872 36.5399 12 36.2947 12C36.1107 12 35.8655 11.9436 35.6816 11.8872C35.4977 11.8308 35.375 11.718 35.2524 11.5488C35.1298 11.436 35.0685 11.2667 35.0072 11.0975C34.8846 10.7591 34.8233 10.4207 34.7619 10.0823C34.7619 9.91304 34.7619 9.80023 34.7619 9.68743C34.7619 9.57462 34.7619 9.46181 34.8233 9.23619C34.8233 9.01058 34.8233 8.78496 34.8233 8.50294C34.8233 8.22092 34.8233 7.88249 34.8233 7.54407C34.8233 7.20564 34.8233 6.86722 34.8233 6.52879C35.0685 5.51351 35.0685 4.61105 35.0072 3.65217ZM50.2117 6.52879C50.273 6.92362 50.273 7.37485 50.2117 7.76968C50.1504 8.16451 50.0278 8.55934 49.8439 8.95417C49.6599 9.2926 49.476 9.63102 49.2308 9.91304C48.9855 10.1387 48.7403 10.3643 48.4338 10.5335C48.2498 10.6463 48.0659 10.7027 47.882 10.8155C47.6981 10.9283 47.4528 10.9847 47.2689 11.0411C47.0237 11.0975 46.8397 11.0975 46.5945 11.0975C46.3493 11.0975 46.104 11.0411 45.8588 10.9283C45.6136 10.8155 45.3683 10.6463 45.1231 10.4771C44.8166 10.2515 44.5713 9.96945 44.3874 9.68743C44.2035 9.40541 44.0808 9.12338 43.9582 8.84136C43.8356 8.55934 43.7743 8.27732 43.7743 7.9953C43.7743 7.71328 43.7743 7.43126 43.7743 7.14924C43.7743 6.86722 43.8356 6.58519 43.8969 6.35958C44.0195 5.73913 44.2648 5.17509 44.5713 4.61105C44.6326 4.49824 44.6939 4.38543 44.7552 4.27262C44.8779 4.047 45.0618 3.87779 45.2457 3.76498C45.4909 3.59577 45.7975 3.42656 46.104 3.31375C46.901 3.08813 47.8207 3.20094 48.5564 3.59577C48.8629 3.76498 49.1695 4.047 49.3534 4.32902C49.6599 4.61105 49.7825 4.94947 49.9052 5.3443C50.0278 5.68273 50.1504 6.07756 50.2117 6.52879ZM47.8207 9.12338C48.0659 8.78496 48.2498 8.44653 48.3724 8.10811C48.4951 7.76968 48.4951 7.48766 48.4951 7.14924C48.4951 6.86722 48.4338 6.58519 48.3724 6.35958C48.3111 6.13396 48.1885 5.96475 48.1272 5.79554C48.0659 5.68273 47.882 5.56992 47.7594 5.45711C47.6367 5.40071 47.5141 5.3443 47.3915 5.3443C47.2689 5.2879 47.085 5.2879 46.9623 5.3443C46.7171 5.40071 46.5332 5.51351 46.4106 5.68273C46.288 5.85194 46.1653 6.07756 46.0427 6.30317C45.9814 6.52879 45.8588 6.75441 45.7975 6.98002C45.7362 7.20564 45.6749 7.37485 45.6136 7.54407C45.4909 7.88249 45.4909 8.16451 45.5523 8.50294C45.6136 8.78496 45.7362 9.01058 45.9201 9.23619C46.0427 9.349 46.1653 9.46181 46.288 9.51821C46.4106 9.57462 46.5945 9.63102 46.7171 9.63102C46.901 9.63102 47.085 9.57462 47.2689 9.51821C47.4528 9.46181 47.6367 9.2926 47.8207 9.12338ZM56.7104 8.27732C57.017 8.44653 57.3235 8.67215 57.5074 8.89777C57.6913 9.06698 57.814 9.2926 57.8753 9.57462C57.9366 9.80023 57.9366 10.0259 57.814 10.2515C57.6913 10.4771 57.5687 10.7027 57.3848 10.8719C57.2622 11.0411 57.0783 11.1539 56.8943 11.2667C56.7104 11.3796 56.4652 11.436 56.2199 11.4924C55.9747 11.5488 55.7295 11.6052 55.4842 11.6052C55.239 11.6616 54.9938 11.6616 54.8098 11.6616C54.6259 11.6616 54.3807 11.6616 54.2581 11.6616C54.1355 11.6616 54.0128 11.6616 53.8902 11.6052C53.8289 11.6052 53.7063 11.5488 53.645 11.5488C53.5224 11.5488 53.3997 11.5488 53.2771 11.4924C53.1545 11.4924 52.9706 11.436 52.848 11.3796C52.7254 11.3231 52.6027 11.2667 52.4801 11.2103C52.3575 11.0975 52.2962 10.9847 52.2349 10.8719C52.1736 10.7027 52.1736 10.5335 52.2349 10.3079C52.2349 10.1387 52.2349 9.91304 52.2349 9.57462C52.2349 9.23619 52.2349 8.89777 52.1736 8.44653C52.1736 8.0517 52.1123 7.60047 52.051 7.09283C51.9897 6.6416 51.9897 6.13396 51.9283 5.68273C51.8057 4.55464 51.7444 3.37015 51.5605 2.07286C51.5605 2.01645 51.5605 1.90364 51.5605 1.84724C51.5605 1.79083 51.5605 1.67803 51.6218 1.62162C51.6218 1.56522 51.6831 1.45241 51.7444 1.396C51.867 1.3396 51.9897 1.2832 52.1123 1.22679C52.2962 1.17039 52.5414 1.17039 52.7254 1.17039C53.0319 1.17039 53.3997 1.22679 53.7063 1.2832C54.0741 1.3396 54.3807 1.45241 54.7485 1.56522C54.9938 1.67803 55.239 1.84724 55.4229 2.07286C55.6069 2.46769 55.7295 2.6369 55.7908 2.91892C55.8521 3.14454 55.8521 3.37015 55.8521 3.59577C55.7908 3.82139 55.7295 4.047 55.6069 4.27262C55.4842 4.49824 55.3003 4.72385 55.0551 4.83666C54.8712 5.00588 54.7485 5.17509 54.6872 5.40071C54.5646 5.62632 54.5646 5.85194 54.5646 6.02115C54.6259 6.24677 54.6872 6.47239 54.8098 6.6416C54.9325 6.86722 55.1164 7.09283 55.3003 7.26204C55.4842 7.48766 55.7295 7.65687 55.9134 7.82609C56.1586 7.9953 56.4039 8.16451 56.7104 8.27732ZM53.645 3.76498C53.7063 3.76498 53.7676 3.70858 53.8289 3.65217C53.8902 3.59577 53.8902 3.53937 53.8902 3.42656C53.8902 3.31375 53.8902 3.25734 53.8289 3.14454C53.7676 3.08813 53.7063 3.08813 53.645 3.03173C53.4611 3.03173 53.2771 3.14454 53.2771 3.31375V3.37015C53.2771 3.42656 53.3384 3.53937 53.3997 3.59577C53.3997 3.70858 53.5224 3.76498 53.645 3.76498ZM54.0741 10.1951C54.1968 10.1951 54.2581 10.1387 54.3194 10.0823C54.3807 10.0259 54.3807 9.96945 54.3807 9.85664C54.3807 9.68743 54.3194 9.57462 54.1355 9.51821H54.0741C54.0128 9.51821 53.9515 9.57462 53.8902 9.57462C53.8289 9.63102 53.8289 9.74383 53.8289 9.80024C53.8289 9.85664 53.8289 9.96945 53.8902 10.0259C53.9515 10.1387 54.0128 10.1951 54.0741 10.1951ZM61.9829 6.86722C62.4121 6.81081 62.8413 6.86722 63.2091 7.03643C63.7609 7.26205 64.2514 7.65687 64.4966 8.16451C64.8031 8.55934 64.9258 9.01058 64.9871 9.51821C64.9258 9.80024 64.8644 10.0823 64.7418 10.3643C64.6192 10.5899 64.4353 10.8155 64.2514 11.0411C64.0674 11.2103 63.8222 11.3796 63.5157 11.4924C63.2091 11.6052 62.9026 11.718 62.596 11.718C62.3508 11.718 62.0443 11.718 61.799 11.718C61.5538 11.718 61.3699 11.6616 61.1246 11.6052C60.9407 11.5488 60.6955 11.4924 60.5115 11.436C60.2663 11.3796 60.0211 11.2103 59.8371 11.0411C59.7758 10.9283 59.6532 10.8719 59.5919 10.7591C59.5306 10.6463 59.4693 10.4771 59.408 10.3643C59.3467 10.1951 59.3467 10.0259 59.2854 9.85664C59.2854 9.63102 59.2854 9.40541 59.2854 9.17979C59.2854 8.89777 59.3467 8.50294 59.3467 8.16451C59.3467 7.76968 59.408 7.37485 59.4693 6.98002C59.4693 6.58519 59.5306 6.30317 59.5306 6.13396C59.5306 5.90834 59.5919 5.62632 59.5919 5.40071C59.5919 5.11868 59.5919 4.83666 59.5306 4.55464C59.5306 4.38543 59.4693 4.21622 59.3467 4.10341C59.2241 3.9906 59.1628 3.82139 59.1014 3.65217C59.0401 3.48296 59.0401 3.31375 59.0401 3.20094C59.0401 3.03173 59.1628 2.91892 59.2854 2.80611C59.4693 2.6369 59.7145 2.58049 59.9598 2.52409C60.205 2.46769 60.5115 2.52409 60.7568 2.6369C60.9407 2.74971 61.0633 2.86251 61.1859 3.03173C61.3086 3.20094 61.3086 3.37015 61.3699 3.53937C61.3699 3.70858 61.3699 3.9342 61.3086 4.10341C61.2472 4.44183 61.1859 4.78026 61.1246 5.17509C61.1246 5.40071 61.0633 5.62632 61.0633 5.85194C61.0633 5.90834 61.0633 6.02115 61.1246 6.30317C61.1246 6.52879 61.1859 6.698 61.1859 6.75441C61.1859 6.81081 61.1859 6.86722 61.2472 6.92362C61.2472 6.98002 61.3086 6.98002 61.3699 6.98002C61.6151 6.98002 61.799 6.92362 61.9829 6.86722ZM61.9829 8.10811C61.8603 8.16451 61.7377 8.27732 61.6764 8.33373C61.6151 8.44653 61.5538 8.50294 61.4925 8.61575C61.4312 8.67215 61.4312 8.78496 61.4312 8.84136C61.4312 9.12338 61.5538 9.40541 61.7377 9.57462C61.9829 9.74383 62.2282 9.80024 62.5347 9.80024C62.7186 9.80024 62.9026 9.74383 63.0252 9.57462C63.1478 9.349 63.2091 9.12338 63.2091 8.84136C63.2091 8.78496 63.1478 8.67215 63.1478 8.61575C63.0865 8.50294 63.0252 8.39013 62.9639 8.33373C62.9026 8.22092 62.8413 8.16451 62.7187 8.10811C62.6573 8.0517 62.5347 7.9953 62.4734 7.9953C62.2895 7.9953 62.1056 8.0517 61.9829 8.10811ZM66.765 10.1951C66.8263 10.4771 66.8263 10.7027 66.765 10.9847C66.765 11.0975 66.7037 11.1539 66.6424 11.2667C66.5811 11.3796 66.5198 11.436 66.4585 11.4924C66.3972 11.5488 66.2745 11.6052 66.1519 11.6616C66.0293 11.718 65.8454 11.718 65.7228 11.718C65.6002 11.6616 65.4775 11.6052 65.4162 11.4924C65.2936 11.3231 65.2323 11.1539 65.2323 10.9847C65.171 10.7027 65.2323 10.3643 65.2936 10.0823C65.4162 9.57462 65.4162 9.06698 65.4162 8.55934C65.4162 8.16451 65.2936 7.76968 65.2323 7.37485C65.1097 6.92362 64.9871 6.41598 64.8031 5.90834C64.6805 5.56992 64.6192 5.17509 64.5579 4.83666C64.5579 4.61105 64.5579 4.38543 64.5579 4.21622C64.5579 3.9906 64.6192 3.82139 64.6805 3.59577C64.7418 3.42656 64.8031 3.25734 64.9258 3.08813C65.0484 2.97532 65.171 2.86251 65.3549 2.80611C65.5388 2.74971 65.7228 2.74971 65.8454 2.86251C65.968 2.91892 66.0906 3.03173 66.1519 3.20094C66.2132 3.31375 66.2745 3.42656 66.2745 3.59577C66.2745 3.70858 66.2745 3.76498 66.2745 3.87779L66.765 10.1951ZM75.3482 5.3443C75.3482 5.56992 75.3482 5.79553 75.3482 5.96475C75.3482 6.13396 75.3482 6.35958 75.3482 6.47239C75.3482 6.58519 75.3482 6.75441 75.3482 6.81081C75.3482 6.92362 75.3482 7.09283 75.4095 7.37485C75.4708 7.65687 75.4095 7.82609 75.4095 8.0517C75.4095 8.27732 75.4095 8.44653 75.3482 8.67215C75.3482 8.89777 75.2869 9.06698 75.2256 9.23619C75.1643 9.40541 75.0417 9.57462 74.919 9.74383C74.7964 9.91304 74.6125 10.0259 74.4286 10.1387C74.306 10.1951 74.122 10.2515 73.9994 10.2515C73.8768 10.2515 73.8155 10.1951 73.6929 10.1387C73.6316 10.0259 73.5703 9.96945 73.5703 9.85664C73.5089 9.74383 73.509 9.57462 73.509 9.46181C73.509 9.2926 73.509 9.17979 73.509 9.01058C73.509 8.89777 73.5089 8.72856 73.5703 8.61575V8.27732C73.5703 8.10811 73.5703 7.9389 73.5703 7.82609C73.5703 7.71328 73.5703 7.48766 73.5703 7.26204C73.5703 7.03643 73.5703 6.86722 73.509 6.698C73.509 6.58519 73.4476 6.41598 73.4476 6.30317C73.4476 6.24677 73.3863 6.19036 73.325 6.13396C73.2024 6.19036 73.0185 6.24677 72.9572 6.35958C72.6506 6.6416 72.4054 6.92362 72.1602 7.26204C71.8536 7.60047 71.6084 7.9389 71.3632 8.27732C71.2405 8.44653 71.1792 8.61575 71.0566 8.78496C70.934 8.95417 70.8114 9.12338 70.6888 9.2926C70.5661 9.46181 70.3822 9.57462 70.2596 9.68743C70.0757 9.80023 69.8917 9.85664 69.7078 9.91304C69.4626 9.96945 69.2787 9.96945 69.0334 9.85664C68.9108 9.74383 68.7882 9.63102 68.7882 9.46181C68.7269 9.2926 68.7269 9.12338 68.7269 8.95417C68.7269 8.78496 68.7269 8.61575 68.7269 8.50294C68.7269 8.44653 68.7269 8.27732 68.7269 8.10811C68.7269 7.9389 68.7269 7.71328 68.7269 7.48766C68.7269 7.26205 68.7269 6.98002 68.6656 6.75441C68.6043 6.52879 68.6043 6.24677 68.6043 5.96475C68.543 5.68273 68.543 5.40071 68.4203 5.11868C68.359 4.89307 68.2977 4.61105 68.2364 4.32902C68.2364 4.15981 68.2364 3.9342 68.2364 3.76498C68.2364 3.59577 68.2977 3.37015 68.359 3.20094C68.4203 3.03173 68.543 2.86251 68.6656 2.74971C68.7882 2.6369 68.9721 2.52409 69.156 2.52409C69.4013 2.41128 69.7078 2.41128 69.9531 2.46769C70.137 2.52409 70.3209 2.6933 70.4435 2.86251C70.5661 3.08813 70.6274 3.31375 70.6274 3.53937C70.6274 3.82139 70.6888 4.10341 70.6274 4.32902C70.6274 4.49824 70.6274 4.72385 70.5661 4.89307C70.5048 5.11868 70.4435 5.2879 70.4435 5.51351C70.3822 5.73913 70.3822 5.96475 70.4435 6.13396C70.4435 6.24677 70.5661 6.41598 70.6888 6.41598C70.8727 6.41598 71.0566 6.35958 71.1792 6.24677C71.3018 6.13396 71.4245 6.02115 71.5471 5.90834C71.6697 5.73913 71.9762 5.40071 72.528 4.83666C73.0798 4.27262 73.3863 3.87779 73.5703 3.65217C73.6929 3.42656 73.8768 3.25734 74.0607 3.03173C74.1833 2.91892 74.306 2.80611 74.4899 2.6933C74.6125 2.6369 74.7964 2.58049 74.919 2.6369C75.0417 2.6933 75.1643 2.80611 75.2256 2.97532C75.3482 3.14454 75.4095 3.31375 75.4095 3.48296C75.4708 3.70858 75.4708 3.87779 75.4708 4.10341C75.3482 4.72385 75.3482 5.11868 75.3482 5.3443ZM73.9994 2.24207C73.7542 2.46769 73.4476 2.6369 73.0798 2.74971C72.8346 2.80611 72.6506 2.86251 72.6506 2.86251C72.5893 2.86251 72.528 2.91892 72.4054 2.91892C72.0989 2.91892 71.7923 2.80611 71.5471 2.6933C71.0566 2.46769 70.6274 2.07286 70.5048 1.56522C70.5048 1.45241 70.4435 1.2832 70.5048 1.17039C70.5048 1.00118 70.5661 0.831962 70.6888 0.719154C70.7501 0.606345 70.8114 0.493537 70.934 0.437133C70.9953 0.437133 71.0566 0.437133 71.1179 0.437133C71.1792 0.493537 71.2405 0.549941 71.2405 0.606345C71.2405 0.66275 71.3018 0.66275 71.3018 0.719154C71.3632 0.775558 71.4245 0.831962 71.4245 0.888367C71.4858 1.00118 71.6084 1.11398 71.731 1.17039C71.8536 1.2832 71.9762 1.3396 72.1602 1.3396C72.3441 1.396 72.528 1.3396 72.6506 1.22679C72.8346 1.11398 73.0185 1.00118 73.2024 0.944771L73.6316 0.719154C73.7542 0.606345 73.8768 0.549941 73.9994 0.493537C74.122 0.437133 74.2447 0.380729 74.3673 0.324324C74.4286 0.324324 74.4899 0.324324 74.5512 0.380729C74.6125 0.380729 74.6738 0.437133 74.6738 0.493537C74.7351 0.549941 74.7351 0.606345 74.7964 0.719154C74.8577 0.831962 74.8577 0.944771 74.8577 1.05758C74.919 1.22679 74.919 1.396 74.8577 1.50881C74.7964 1.62162 74.7351 1.73443 74.6738 1.79083C74.5512 1.84724 74.306 2.01645 73.9994 2.24207ZM89.02 3.20094C88.4682 3.14454 86.4451 2.6933 86.4451 3.03173L86.5064 5.85194C87.3034 5.79554 88.1617 5.73913 88.4069 5.73913C88.6522 5.73913 88.7135 6.52879 88.4069 6.58519C88.0391 6.6416 87.2421 6.698 86.5064 6.75441V7.20564C86.5064 8.44653 86.5677 9.40541 86.5677 9.85664C86.5677 10.4771 84.1153 10.3079 84.1153 9.74383C84.1153 8.84136 84.054 2.97532 84.054 2.52409C84.054 1.84724 87.9165 2.24207 89.3266 2.18566C89.817 2.18566 89.3879 3.25734 89.02 3.20094ZM93.6795 9.17979C93.8021 9.17979 95.8253 9.349 96.0705 9.349C96.3157 9.349 96.4997 10.1951 96.1318 10.1951C95.764 10.1951 92.0854 10.2515 91.4724 10.2515C90.9206 10.2515 90.798 10.0823 90.7367 9.17979C90.6753 8.27732 90.4301 3.48296 90.4301 2.18566C90.4301 1.73443 92.8211 1.50881 92.8825 2.01645C92.9438 2.80611 93.3729 8.72855 93.3729 8.95417C93.4342 9.06698 93.4955 9.17979 93.6795 9.17979ZM96.561 6.41598C96.377 4.55464 96.9288 3.08813 97.6032 2.46769C98.2776 1.90364 99.1972 1.62162 100.117 1.67803C102.814 1.67803 104.163 3.31375 104.163 6.02115C104.163 8.72856 102.508 10.1951 100.607 10.1951C98.0324 10.1951 96.7449 8.50294 96.561 6.41598ZM101.956 6.07756C101.956 3.53937 101.159 2.91892 100.546 2.91892C99.8103 2.91892 98.952 3.70858 98.952 6.24677C98.952 8.78496 100.056 9.349 100.669 9.349C101.343 9.2926 101.956 8.61575 101.956 6.07756ZM117.038 2.24207C116.915 3.08813 115.199 9.40541 115.076 9.85664V9.91304C114.954 10.1951 112.746 10.4771 112.562 10.0259C112.195 8.95417 111.459 6.41598 111.03 4.89307C110.539 6.19036 109.497 9.349 109.191 9.96945C109.068 10.2515 108.761 10.4207 108.455 10.3643C107.597 10.4207 107.229 10.2515 107.045 9.68743C106.861 9.12338 105.573 3.48296 105.451 2.6369C105.328 2.01645 107.29 1.22679 107.535 1.84724C107.78 2.41128 108.7 6.13396 109.007 7.9389C109.558 6.698 110.478 4.21622 110.723 3.53937C110.785 2.74971 112.746 2.74971 112.869 3.08813C113.237 3.9906 113.911 5.96475 114.463 7.65687C114.708 6.07756 115.076 3.70858 115.444 1.84724C115.505 1.56522 117.099 1.79083 117.038 2.24207ZM119.552 2.97532C119.674 2.6933 119.797 2.41128 119.981 2.12926C120.103 1.96005 120.287 1.79083 120.471 1.67803C120.594 1.62162 120.778 1.56522 120.9 1.56522C121.023 1.56522 121.146 1.56522 121.207 1.62162C121.33 1.67803 121.391 1.73443 121.452 1.79083C121.514 1.90364 121.636 2.01645 121.697 2.12926C121.759 2.29847 121.881 2.41128 121.943 2.58049C122.004 2.74971 122.065 2.91892 122.127 3.08813C122.188 3.25734 122.311 3.37015 122.372 3.53937C122.433 3.65217 122.556 3.70858 122.617 3.76498C122.678 3.82139 122.801 3.87779 122.862 3.87779C122.924 3.87779 122.985 3.87779 123.046 3.87779C123.108 3.87779 123.108 3.87779 123.169 3.87779C123.23 3.87779 123.291 3.82139 123.353 3.76498C123.475 3.70858 123.537 3.59577 123.598 3.53937C123.721 3.42656 123.843 3.25734 123.905 3.08813C124.027 2.80611 124.211 2.58049 124.395 2.41128C124.579 2.29847 124.763 2.24207 125.008 2.29847C125.253 2.29847 125.56 2.41128 125.744 2.58049C125.989 2.80611 126.112 3.14454 126.112 3.42656C126.173 3.59577 126.173 3.76498 126.296 3.9906C126.357 4.21622 126.48 4.44183 126.541 4.72385C126.602 5.00588 126.725 5.23149 126.847 5.51351C126.97 5.79554 127.031 6.02115 127.154 6.30317C127.277 6.58519 127.338 6.75441 127.46 6.98002C127.583 7.20564 127.644 7.31845 127.706 7.43126C127.767 7.48766 127.767 7.65688 127.828 7.76968C127.89 7.9389 127.951 8.10811 128.012 8.27732C128.074 8.44653 128.074 8.61575 128.135 8.84136C128.135 9.01058 128.135 9.17979 128.074 9.349C128.012 9.51821 127.89 9.68743 127.767 9.80024C127.583 9.91304 127.399 10.0259 127.154 10.0823C126.847 10.1387 126.48 10.0823 126.234 9.96945C126.05 9.91304 125.866 9.74383 125.744 9.57462C125.621 9.349 125.56 9.12339 125.499 8.89777C125.437 8.61575 125.376 8.27732 125.315 7.9389C125.253 7.37485 125.069 6.81081 124.886 6.24677C124.824 5.96475 124.64 5.73913 124.395 5.56992C124.211 5.56992 124.089 5.62632 123.966 5.79554C123.843 5.96475 123.782 6.13396 123.721 6.30317C123.721 6.52879 123.659 6.75441 123.475 6.92362C123.291 7.09283 123.046 7.14924 122.801 7.14924C122.678 7.14924 122.494 7.09283 122.433 6.98002C122.372 6.92362 122.311 6.81081 122.249 6.75441C122.188 6.6416 122.188 6.52879 122.188 6.41598C122.188 6.30317 122.188 6.13396 122.127 6.02115C122.065 5.90834 122.065 5.79554 121.943 5.73913C121.881 5.62632 121.759 5.62632 121.636 5.62632C121.452 5.62632 121.33 5.68273 121.207 5.79554C121.084 5.90834 120.962 6.07756 120.839 6.24677C120.717 6.47239 120.655 6.698 120.533 6.92362C120.471 7.14924 120.349 7.43126 120.287 7.71328C120.226 7.9953 120.165 8.22092 120.103 8.44653C120.042 8.67215 119.981 8.89777 119.92 9.06698C119.858 9.2926 119.797 9.51821 119.674 9.68743C119.613 9.85664 119.49 10.0259 119.306 10.1387C119.184 10.2515 119.061 10.3079 118.877 10.3643C118.755 10.4207 118.571 10.3643 118.448 10.3079C118.264 10.1951 118.142 10.0823 118.08 9.96945C118.019 9.85664 117.958 9.68743 117.896 9.51821C117.896 9.349 117.896 9.17979 117.896 9.01058C117.896 8.84136 117.958 8.67215 118.019 8.44653C118.08 8.33373 118.142 8.16451 118.203 7.9953C118.264 7.82609 118.326 7.54407 118.387 7.31845C118.448 7.09283 118.509 6.75441 118.632 6.47239C118.755 6.19036 118.816 5.85194 118.877 5.56992C119.123 4.55464 119.306 3.76498 119.552 2.97532ZM136.473 4.27262C136.473 4.49824 136.473 4.78026 136.412 5.00588C136.35 5.23149 136.412 5.51351 136.35 5.68273C136.35 5.90834 136.35 6.07756 136.289 6.24677C136.228 6.41598 136.289 6.52879 136.289 6.58519C136.289 6.698 136.289 6.92362 136.35 7.20564C136.35 7.48766 136.35 7.71328 136.35 7.9389C136.35 8.16451 136.289 8.39013 136.289 8.61575C136.228 8.84136 136.166 9.06698 136.105 9.2926C136.044 9.51821 135.921 9.68743 135.737 9.85664C135.615 10.0259 135.431 10.1951 135.185 10.2515C135.063 10.3079 134.879 10.3643 134.695 10.3643C134.572 10.3643 134.45 10.3079 134.388 10.1951C134.327 10.0823 134.266 9.96945 134.204 9.85664C134.143 9.68743 134.143 9.57462 134.143 9.40541C134.143 9.23619 134.143 9.06698 134.143 8.95417C134.143 8.78496 134.204 8.67215 134.204 8.55934C134.204 8.50294 134.204 8.33373 134.204 8.16451C134.204 7.9953 134.204 7.76968 134.204 7.43126C134.204 7.09283 134.204 6.86722 134.204 6.6416C134.204 6.41598 134.204 6.19036 134.204 6.02115C134.204 5.85194 134.143 5.73913 134.143 5.56992C134.143 5.51351 134.082 5.40071 134.02 5.40071C133.837 5.45711 133.714 5.51351 133.591 5.62632C133.407 5.73913 133.285 5.90834 133.101 6.07756C132.917 6.24677 132.794 6.41598 132.672 6.58519C132.549 6.75441 132.426 6.98002 132.304 7.14924C132.243 7.26204 132.12 7.43126 131.997 7.60047C131.875 7.76968 131.813 7.9953 131.691 8.16451C131.568 8.33373 131.446 8.61575 131.323 8.84136C131.2 9.06698 131.078 9.2926 130.894 9.51821C130.771 9.68743 130.587 9.85664 130.403 9.96945C130.219 10.0823 130.035 10.1951 129.79 10.1951C129.545 10.2515 129.3 10.2515 129.055 10.1387C128.932 10.0259 128.809 9.91304 128.748 9.74383C128.687 9.57462 128.687 9.349 128.687 9.17979C128.687 9.01058 128.748 8.84136 128.748 8.67215C128.748 8.55934 128.748 8.39013 128.748 8.10811C128.748 7.82609 128.748 7.54407 128.748 7.31845C128.748 7.03643 128.748 6.75441 128.748 6.47239C128.748 6.19036 128.748 5.90834 128.687 5.62632C128.625 5.3443 128.625 5.11868 128.625 4.89307C128.625 4.72385 128.564 4.55464 128.564 4.38543C128.503 4.10341 128.503 3.82139 128.503 3.53937C128.503 3.08813 128.441 2.74971 128.441 2.52409C128.441 2.29847 128.441 2.07286 128.441 1.90364C128.441 1.67803 128.503 1.50881 128.564 1.2832C128.625 1.11398 128.748 0.944771 128.871 0.775558C128.993 0.606345 129.238 0.549941 129.422 0.493537C129.729 0.380729 130.035 0.380729 130.342 0.437133C130.587 0.493537 130.771 0.66275 130.832 0.888367C130.955 1.11398 131.016 1.396 131.016 1.62162C131.016 1.90364 131.016 2.24207 131.016 2.52409C131.016 2.80611 130.955 3.25734 130.894 3.82139C130.832 4.44183 130.771 4.89307 130.71 5.17509C130.649 5.40071 130.649 5.62632 130.649 5.90834C130.649 6.07756 130.771 6.19036 130.894 6.19036C131.078 6.19036 131.262 6.13396 131.446 6.02115C131.629 5.90834 131.752 5.79554 131.875 5.62632C131.997 5.45711 132.12 5.2879 132.243 5.11868C132.365 4.94947 132.426 4.78026 132.488 4.66745C132.549 4.55464 132.61 4.38543 132.733 4.15981C132.856 3.9342 132.978 3.70858 133.162 3.42656C133.346 3.14454 133.469 2.86251 133.714 2.58049C133.959 2.29847 134.082 2.01645 134.266 1.73443C134.45 1.50881 134.634 1.2832 134.818 1.05758C134.94 0.888367 135.124 0.775558 135.308 0.66275C135.431 0.549941 135.676 0.549941 135.798 0.606345C135.982 0.66275 136.105 0.831962 136.166 0.944771C136.289 1.11398 136.35 1.3396 136.35 1.56522C136.412 1.79083 136.412 2.01645 136.412 2.24207C136.534 3.03173 136.473 3.70858 136.473 4.27262ZM137.209 2.74971C137.209 2.58049 137.27 2.35488 137.392 2.18566C137.515 2.01645 137.699 1.90364 137.822 1.79083C138.067 1.62162 138.435 1.56522 138.741 1.56522C138.925 1.56522 139.109 1.56522 139.293 1.62162C139.416 1.67803 139.538 1.79083 139.661 1.90364C139.722 2.01645 139.783 2.18566 139.845 2.35488C139.906 2.52409 139.906 2.6933 139.906 2.86251C139.906 3.03173 139.906 3.20094 139.906 3.31375C139.906 3.42656 139.906 3.59577 139.906 3.65217C139.845 3.76498 139.845 3.9342 139.845 4.10341C139.845 4.21622 139.845 4.38543 139.906 4.49824C139.967 4.61105 140.029 4.72385 140.151 4.83666C140.335 4.94947 140.581 5.00588 140.764 4.94947C141.01 4.94947 141.255 4.83666 141.378 4.66745C141.5 4.44183 141.561 4.21622 141.561 3.9906C141.561 3.70858 141.561 3.48296 141.5 3.20094C141.439 2.91892 141.378 2.74971 141.378 2.58049C141.378 2.46769 141.378 2.35488 141.378 2.18566C141.378 2.01645 141.378 1.84724 141.378 1.67803C141.378 1.50881 141.439 1.3396 141.5 1.17039C141.561 1.00118 141.623 0.831962 141.684 0.66275C141.807 0.493537 141.929 0.380729 142.052 0.26792C142.236 0.155112 142.42 0.0423032 142.665 0.0423032C142.849 -0.0141011 143.033 -0.0141011 143.217 0.0423032C143.401 0.0987074 143.523 0.211516 143.646 0.324324C143.769 0.493537 143.891 0.606345 143.952 0.775558C144.014 0.944771 144.136 1.11398 144.198 1.2832C144.259 1.45241 144.32 1.62162 144.382 1.79083C144.443 1.96005 144.443 2.01645 144.504 2.12926C144.504 2.24207 144.504 2.46769 144.566 2.80611C144.627 3.08813 144.627 3.48296 144.688 3.87779C144.749 4.27262 144.811 4.66745 144.933 5.11868C145.056 5.56992 145.117 5.96475 145.24 6.35958C145.363 6.75441 145.424 7.14924 145.546 7.54407C145.669 7.88249 145.669 8.22092 145.669 8.61575C145.669 8.89777 145.608 9.23619 145.424 9.46181C145.24 9.74383 144.933 9.96945 144.627 10.0259C144.382 10.0823 144.198 10.0823 143.952 10.0823C143.769 10.0259 143.585 9.96945 143.401 9.85664C143.217 9.74383 143.094 9.63102 143.033 9.46181C142.849 9.17979 142.665 8.84136 142.542 8.50294C142.481 8.33372 142.42 8.22092 142.358 8.10811C142.297 7.9389 142.236 7.76968 142.175 7.65687C142.113 7.48766 141.991 7.37485 141.868 7.26204C141.745 7.14924 141.623 7.09283 141.5 6.98002C141.378 6.92362 141.194 6.92362 141.071 6.92362C140.948 6.92362 140.764 6.98002 140.703 7.09283C140.581 7.20564 140.458 7.37485 140.397 7.48766C140.335 7.71328 140.274 7.9389 140.274 8.16451C140.274 8.44653 140.274 8.78496 140.335 9.06698C140.397 9.40541 140.458 9.74383 140.458 10.0823C140.458 10.3643 140.397 10.7027 140.274 10.9847C140.151 11.2103 140.029 11.436 139.783 11.6616C139.538 11.8308 139.232 11.9436 138.925 11.9436C138.68 11.9436 138.435 11.8872 138.251 11.8308C138.067 11.718 137.883 11.6052 137.76 11.4924C137.638 11.3231 137.515 11.1539 137.454 10.9847C137.392 10.8155 137.331 10.5899 137.27 10.4207C137.209 10.2515 137.209 10.0259 137.209 9.85664C137.209 9.68743 137.209 9.51821 137.209 9.40541C137.209 9.2926 137.209 9.12339 137.27 8.89777C137.331 8.67215 137.27 8.39013 137.27 8.0517C137.27 7.71328 137.27 7.37485 137.27 6.98002C137.27 6.58519 137.27 6.19036 137.27 5.85194C137.27 4.83666 137.209 3.87779 137.209 2.74971ZM148.857 1.00118C148.918 1.00118 149.041 0.944771 149.225 0.888367C149.409 0.831962 149.532 0.775558 149.777 0.719154C150.022 0.66275 150.206 0.606346 150.451 0.493537C150.696 0.380729 150.942 0.324324 151.187 0.26792C151.371 0.211516 151.555 0.211516 151.739 0.26792C151.923 0.324324 152.045 0.437133 152.168 0.606345C152.29 0.775558 152.352 0.944771 152.413 1.17039C152.474 1.396 152.474 1.62162 152.474 1.84724C152.474 1.96005 152.474 2.12926 152.352 2.24207C152.29 2.35488 152.168 2.41128 152.107 2.46769C151.984 2.52409 151.861 2.58049 151.739 2.58049C151.616 2.58049 151.432 2.6369 151.31 2.6369C151.187 2.6369 151.003 2.6369 150.88 2.6369C150.758 2.6369 150.635 2.6369 150.574 2.6933C150.451 2.6933 150.39 2.74971 150.267 2.74971C150.145 2.74971 150.083 2.74971 149.961 2.80611C149.838 2.86251 149.777 2.91892 149.654 3.03173C149.532 3.20094 149.47 3.37015 149.409 3.53937C148.98 6.19036 148.735 7.60047 148.735 7.76968C148.673 7.9953 148.673 8.22092 148.612 8.44653C148.551 8.67215 148.551 8.95417 148.489 9.17979C148.428 9.40541 148.428 9.63102 148.367 9.85664C148.367 10.0823 148.305 10.2515 148.305 10.4207C148.305 10.5899 148.244 10.8155 148.183 10.9847C148.06 11.2667 147.692 11.4924 147.324 11.436C147.141 11.436 146.895 11.3796 146.711 11.2667C146.527 11.2103 146.344 11.0975 146.221 10.9283C146.098 10.7591 146.037 10.6463 145.976 10.4207C145.914 10.2515 145.914 10.0823 145.914 9.91304C145.914 9.74383 145.976 9.63102 146.037 9.46181C146.098 9.2926 146.16 9.12338 146.16 8.95417C146.221 8.72855 146.282 8.39013 146.344 8.0517C146.405 7.71328 146.466 7.31845 146.527 6.92362C146.589 6.52879 146.65 6.07756 146.773 5.62632C146.895 5.17509 146.895 4.78026 147.018 4.32902C147.079 3.87779 147.141 3.48296 147.263 3.08813C147.324 2.80611 147.386 2.58049 147.447 2.35488C147.508 2.18566 147.631 1.96005 147.692 1.79083C147.754 1.62162 147.876 1.50881 147.999 1.396C148.06 1.2832 148.183 1.22679 148.305 1.11398C148.367 1.11398 148.612 1.00118 148.857 1.00118ZM159.954 5.96475C160.015 6.41598 160.015 6.92362 159.954 7.37485C159.893 7.82609 159.709 8.27732 159.525 8.67215C159.341 9.06698 159.096 9.40541 158.789 9.74383C158.544 10.0259 158.237 10.2515 157.931 10.4207C157.747 10.5335 157.563 10.6463 157.318 10.7027C157.073 10.8155 156.889 10.8719 156.643 10.9283C156.398 10.9847 156.153 11.0411 155.908 10.9847C155.662 10.9847 155.356 10.9283 155.111 10.8155C154.804 10.7027 154.559 10.5335 154.314 10.3079C154.007 10.0259 153.701 9.74383 153.455 9.40541C153.271 9.12338 153.087 8.78496 152.965 8.44653C152.842 8.10811 152.781 7.82609 152.781 7.48766C152.72 7.14924 152.781 6.86722 152.781 6.52879C152.842 6.24677 152.842 5.90834 152.965 5.62632C153.149 4.94947 153.394 4.27262 153.701 3.65217C153.884 3.25734 154.13 2.91892 154.498 2.6933C154.804 2.46769 155.111 2.29847 155.478 2.24207C156.398 1.96005 157.379 2.07286 158.237 2.52409C158.605 2.74971 158.912 3.03173 159.157 3.37015C159.402 3.70858 159.586 4.10341 159.709 4.55464C159.77 5.06228 159.831 5.51351 159.954 5.96475ZM157.256 8.89777C157.563 8.55934 157.747 8.16451 157.87 7.71328C157.992 7.37485 158.053 6.98002 158.053 6.6416C158.053 6.35958 157.992 6.02115 157.931 5.73913C157.87 5.51351 157.747 5.2879 157.624 5.11868C157.502 4.94947 157.379 4.83666 157.195 4.78026C157.073 4.72385 156.889 4.66745 156.766 4.61105C156.582 4.55464 156.459 4.55464 156.275 4.61105C156.03 4.66745 155.785 4.83666 155.662 5.00588C155.478 5.23149 155.356 5.45711 155.233 5.73913C155.111 6.02115 155.049 6.24677 154.988 6.52879C154.927 6.81081 154.865 6.98002 154.804 7.14924C154.681 7.48766 154.681 7.88249 154.743 8.22092C154.804 8.50294 154.927 8.84136 155.172 9.06698C155.295 9.17979 155.417 9.2926 155.54 9.40541C155.724 9.46181 155.846 9.51821 156.03 9.51821C156.214 9.51821 156.459 9.46181 156.643 9.40541C156.827 9.23619 157.073 9.12339 157.256 8.89777Z" fill="#1E48B5"/>
</svg>
