<svg width="80" height="22" viewBox="0 0 80 22" fill="none" xmlns="http://www.w3.org/2000/svg">
<path fill-rule="evenodd" clip-rule="evenodd" d="M9.54709 18.763H2.10919C1.05443 18.763 0.199707 17.8719 0.199707 16.7626V6.7423C0.199707 5.94214 0.59979 5.19653 1.25447 4.79645L7.98313 0.286423C8.58326 -0.0954743 9.32887 -0.0954743 9.92899 0.286423L16.494 4.79645C17.1487 5.21471 17.5487 5.96032 17.5487 6.7423V10.0521L9.54709 18.763ZM4.20053 14.744H10.2563L13.5297 10.7249V7.70614L8.94697 4.35999L4.20053 7.70614V14.744Z" fill="url(#paint0_linear_110_916)"/>
<path fill-rule="evenodd" clip-rule="evenodd" d="M9.54709 18.763H2.10919C1.05443 18.763 0.199707 17.8719 0.199707 16.7626V6.7423C0.199707 5.94214 0.59979 5.19653 1.25447 4.79645L7.98313 0.286423C8.58326 -0.0954743 9.32887 -0.0954743 9.92899 0.286423L16.494 4.79645C17.1487 5.21471 17.5487 5.96032 17.5487 6.7423V10.0521L9.54709 18.763ZM4.20053 14.744H10.2563L13.5297 10.7249V7.70614L8.94697 4.35999L4.20053 7.70614V14.744Z" fill="url(#paint1_linear_110_916)"/>
<path fill-rule="evenodd" clip-rule="evenodd" d="M9.54688 18.763V12.0525C9.54688 10.925 10.4198 10.0339 11.5109 10.0339H17.5667L9.54688 18.763Z" fill="#FBBC33"/>
<path fill-rule="evenodd" clip-rule="evenodd" d="M20.2218 11.0522H21.0583C21.3857 10.6703 21.7858 9.79743 21.9312 7.06959L21.9494 5.59656H26.6231V11.0522H27.6779V13.38H26.4049V12.3616H21.513V13.38H20.2036L20.2218 11.0522ZM22.5496 11.0522H25.241V6.79681L23.2588 6.81499L23.2042 8.05161C23.0587 9.9611 22.8223 10.7249 22.5496 11.0522ZM31.0422 7.10596C32.7335 7.10596 33.8064 8.21528 33.8064 9.7065C33.8064 11.1977 32.7153 12.307 31.0422 12.307C29.351 12.307 28.278 11.1977 28.278 9.7065C28.278 8.21528 29.351 7.10596 31.0422 7.10596ZM31.0422 11.125C31.8424 11.125 32.4425 10.5612 32.4425 9.7065C32.4425 8.86996 31.8424 8.28802 31.0422 8.28802C30.2784 8.28802 29.6601 8.83359 29.6601 9.7065C29.6601 10.5248 30.2602 11.125 31.0422 11.125ZM34.843 7.21507H36.0251L37.7527 9.01545L39.3894 7.21507H40.5351V12.1797H39.2257V9.14274L37.7163 10.7249H37.68L36.1342 9.14274V12.1797H34.843V7.21507ZM61.3576 7.21507H62.6487V9.15713V10.165V12.1797H61.3576V7.21507ZM63.9399 9.5792L66.2131 7.21507H64.5764L62.6487 9.15713L62.1395 9.67013L62.6487 10.165L64.7219 12.1797H66.4132L63.9399 9.5792ZM51.9556 8.48806H50.6463L50.6281 9.01545C50.5553 11.8342 49.6824 12.3252 48.2821 12.1979V10.9795C49.0278 11.034 49.3369 10.6703 49.3733 8.77903L49.3915 7.23326H53.2468V12.1797H51.9374L51.9556 8.48806ZM54.8289 12.1797V7.21507H56.1201V10.3612L58.5024 7.23326H59.8118V12.1797H58.5024V9.03363L56.1201 12.1797H54.8289ZM41.9899 5.59656H43.3902V8.16072L45.8453 5.59656H47.5183L44.5723 8.63355L47.7184 12.1797H45.9362L43.3902 9.36097V12.1797H41.9899V5.59656Z" fill="#004C60"/>
<path d="M62.6487 10.165V9.15713L62.1395 9.67013L62.6487 10.165Z" fill="#004C60"/>
<path fill-rule="evenodd" clip-rule="evenodd" d="M61.7759 17.3445L62.6851 16.6717H59.6663V20.6907H62.6851V20.0178H60.521V18.9994H62.3578V18.3266H60.521V17.3445H61.7759ZM57.3931 18.2538H56.3384V17.3627H58.0114L58.9207 16.6898H55.4836V20.7089H57.284C58.3024 20.7089 58.8662 20.2542 58.8662 19.4359C58.8662 18.6721 58.3388 18.2538 57.3931 18.2538ZM57.2295 20.036H56.3384V18.9085H57.2295C57.775 18.9085 58.0296 19.0903 58.0296 19.4722C58.0478 19.8541 57.775 20.036 57.2295 20.036ZM65.1402 16.6898H63.5035V20.7089H64.3582V19.5814H65.1402C66.1949 19.5814 66.8314 19.0176 66.8314 18.1447C66.8314 17.2354 66.1768 16.6898 65.1402 16.6898ZM65.1038 18.8903H64.34V17.3445H65.1038C65.6494 17.3445 65.9585 17.6173 65.9585 18.1083C65.9767 18.6175 65.6676 18.8903 65.1038 18.8903ZM53.9924 19.8178C53.756 19.9451 53.5014 20.0178 53.2468 19.9996C52.4648 19.9996 51.9011 19.4359 51.9011 18.6721C51.9011 17.9083 52.4648 17.3445 53.2468 17.3445C53.5378 17.3445 53.8106 17.4355 54.0288 17.5991L54.6471 17.1445L54.6107 17.1081C54.247 16.7808 53.7742 16.6171 53.2104 16.6171C52.6103 16.6171 52.0648 16.8171 51.6829 17.199C51.301 17.5628 51.0827 18.0901 51.0827 18.6721C51.0827 19.254 51.301 19.7814 51.6829 20.1633C52.0648 20.5452 52.6103 20.7634 53.2104 20.7634C53.8288 20.7634 54.3743 20.5452 54.738 20.1451L54.1743 19.7268L53.9924 19.8178ZM48.4095 16.6353C48.5731 16.8353 48.7004 17.0536 48.8095 17.29L45.7907 19.5268L44.5177 18.7266V17.7628L45.7725 18.563L48.4095 16.6353ZM43.2448 18.6721C43.2448 18.6357 43.2448 18.5811 43.2448 18.5448L42.481 18.5084C42.481 18.563 42.481 18.6175 42.481 18.6721C42.481 19.5995 42.8447 20.4361 43.463 21.0362L44.0085 20.4906C43.4993 19.9996 43.2266 19.3449 43.2448 18.6721ZM45.7907 16.1079C45.8453 16.1079 45.8817 16.1079 45.918 16.1079L45.9544 15.3441C45.8998 15.3441 45.8453 15.3441 45.7907 15.3441C44.8996 15.3441 44.0631 15.6896 43.4448 16.3261L43.9904 16.8717C44.4632 16.3807 45.1179 16.1079 45.7907 16.1079ZM45.7907 21.2362C45.7544 21.2362 45.6998 21.2362 45.6634 21.2362L45.6271 22C45.6816 22 45.7362 22 45.7907 22C46.6818 22 47.5184 21.6545 48.1367 21.018L47.5911 20.4724C47.1183 20.9635 46.4636 21.2362 45.7907 21.2362Z" fill="#21A038"/>
<path fill-rule="evenodd" clip-rule="evenodd" d="M47.2274 16.5625L47.8821 16.0897C47.3001 15.5987 46.5545 15.3441 45.7907 15.3441V16.1079C46.3181 16.1079 46.8273 16.2716 47.2274 16.5625ZM49.1187 18.6721C49.1187 18.472 49.1005 18.272 49.0641 18.072L48.3549 18.5993V18.6721C48.3549 19.4177 48.0276 20.1087 47.5184 20.5634L48.0276 21.1271C48.7186 20.5088 49.1187 19.6177 49.1187 18.6721ZM45.7907 21.2362C45.0633 21.2362 44.3723 20.9271 43.8994 20.3815L43.3357 20.8907C43.9722 21.5818 44.8633 21.9819 45.7907 21.9819V21.2362ZM44.0813 16.7808L43.5721 16.217C42.881 16.8535 42.481 17.7446 42.481 18.6903H43.2448C43.2448 17.9265 43.5721 17.2354 44.0813 16.7808Z" fill="#21A038"/>
<path fill-rule="evenodd" clip-rule="evenodd" d="M68.3957 6.59677C68.523 6.45128 68.6866 6.37854 68.8867 6.37854H79.1251C79.4889 6.37854 79.798 6.6877 79.798 7.06959V12.3616C79.798 12.7435 79.507 13.0526 79.1251 13.0526H68.7957C68.5957 13.0526 68.432 12.9617 68.3047 12.8162L65.9588 10.143C65.7224 9.87017 65.7224 9.47009 65.977 9.21549L68.3957 6.59677Z" fill="#FBBC33"/>
<path fill-rule="evenodd" clip-rule="evenodd" d="M69.7234 11.2705V10.1066C69.8689 10.1248 70.0508 10.1248 70.1417 10.1248C70.9055 10.1248 71.3056 9.63377 71.3056 9.0882C71.3056 8.56082 71.0146 8.05163 70.0689 8.05163C69.8507 8.05163 69.3415 8.05163 69.1597 8.05163V11.2705H69.7234ZM70.1235 8.56082C70.5054 8.56082 70.7054 8.72449 70.7054 9.05183C70.7054 9.41555 70.4508 9.56103 70.1235 9.56103C69.9962 9.56103 69.8507 9.56103 69.7234 9.54284V8.56082C69.8871 8.57901 70.0144 8.56082 70.1235 8.56082ZM72.8877 11.2705V10.0702H73.2878L74.1607 11.2705H74.8336L73.8334 9.96111C74.1061 9.87018 74.4517 9.5974 74.4517 9.05183C74.4517 8.48808 74.1607 8.06981 73.2878 8.06981C73.1969 8.06981 72.4876 8.06981 72.324 8.06981V11.2705H72.8877ZM73.2696 8.56082C73.7242 8.56082 73.8697 8.77905 73.8697 9.03365C73.8697 9.36099 73.5788 9.52466 73.2514 9.52466H72.8877V8.57901C73.0332 8.57901 73.1605 8.56082 73.2696 8.56082ZM75.3609 9.65196C75.3609 10.6522 76.0702 11.3068 77.0158 11.3068C77.9615 11.3068 78.6889 10.6158 78.6889 9.65196C78.6889 8.65175 77.9797 7.99707 77.0158 7.99707C76.052 7.99707 75.3609 8.72449 75.3609 9.65196ZM75.9611 9.65196C75.9611 8.99728 76.4157 8.52445 77.034 8.52445C77.6341 8.52445 78.107 8.97909 78.107 9.65196C78.107 10.2885 77.7069 10.7795 77.034 10.7795C76.4339 10.7795 75.9611 10.3066 75.9611 9.65196Z" fill="#004C60"/>
<defs>
<linearGradient id="paint0_linear_110_916" x1="2.38652" y1="5.61952" x2="10.1989" y2="12.9347" gradientUnits="userSpaceOnUse">
<stop stop-color="#68B438"/>
<stop offset="0.62" stop-color="#0F9870"/>
<stop offset="1" stop-color="#0072A0"/>
</linearGradient>
<linearGradient id="paint1_linear_110_916" x1="2.23471" y1="5.72062" x2="10.8407" y2="13.4611" gradientUnits="userSpaceOnUse">
<stop stop-color="#68B438"/>
<stop offset="0.62" stop-color="#0F9870"/>
<stop offset="1" stop-color="#0072A0"/>
</linearGradient>
</defs>
</svg>
