<svg width="84" height="19" viewBox="0 0 84 19" fill="none" xmlns="http://www.w3.org/2000/svg">
<path d="M26.2163 2.90879C25.9069 1.77057 25.006 0.876251 23.8595 0.569111C21.7574 0 13.3857 0 13.3857 0C13.3857 0 5.00484 0 2.91191 0.551044C1.78354 0.84915 0.855373 1.77057 0.555083 2.90879C0 4.9865 0 9.30452 0 9.30452C0 9.30452 0 13.6406 0.555083 15.6912C0.864473 16.8294 1.76534 17.7238 2.91191 18.0309C5.03214 18.6 13.3857 18.6 13.3857 18.6C13.3857 18.6 21.7665 18.6 23.8595 18.049C25.006 17.7418 25.9069 16.8475 26.2163 15.7093C26.7714 13.6316 26.7714 9.32258 26.7714 9.32258C26.7714 9.32258 26.7896 4.9865 26.2163 2.90879Z" fill="#FF0000"/>
<path d="M10.7102 5.32068V13.2882L17.6806 9.30446L10.7102 5.32068Z" fill="white"/>
<path d="M38.8656 16.9379C38.3378 16.5856 37.9648 16.0436 37.7373 15.2757C37.5189 14.535 37.4097 13.5232 37.4097 12.3037V10.6144C37.4097 9.36781 37.5462 8.35606 37.7828 7.59724C38.0466 6.82939 38.447 6.28738 38.9748 5.93508C39.5299 5.58277 40.2306 5.41113 41.1133 5.41113C41.9686 5.41113 42.6784 5.58277 43.2062 5.93508C43.734 6.28738 44.1071 6.85649 44.3527 7.59724C44.5984 8.33799 44.7258 9.34974 44.7258 10.6144V12.3037C44.7258 13.5503 44.6166 14.535 44.371 15.3028C44.1253 16.0436 43.7522 16.6127 43.2244 16.965C42.6966 17.3173 41.9686 17.4889 41.0678 17.4889C40.1487 17.4618 39.3934 17.2902 38.8656 16.9379ZM41.8412 15.1041C41.9959 14.7337 42.0596 14.1014 42.0596 13.2432V9.61172C42.0596 8.78063 41.9959 8.16635 41.8412 7.76888C41.6865 7.3714 41.4408 7.19977 41.0678 7.19977C40.7129 7.19977 40.449 7.39851 40.3216 7.76888C40.1669 8.16635 40.1032 8.7716 40.1032 9.61172V13.2432C40.1032 14.0923 40.1669 14.7337 40.3216 15.1041C40.4581 15.4745 40.722 15.6732 41.0951 15.6732C41.4499 15.6732 41.6865 15.4925 41.8412 15.1041Z" fill="#282828"/>
<path d="M79.5684 12.3218V12.9089C79.5684 13.6497 79.5866 14.2188 79.6321 14.5982C79.6776 14.9686 79.7686 15.2577 79.9142 15.4112C80.0507 15.5829 80.2691 15.6732 80.5785 15.6732C80.9789 15.6732 81.2428 15.5196 81.3975 15.2125C81.5522 14.9054 81.6159 14.3995 81.6432 13.6768L83.9181 13.8123C83.9363 13.9207 83.9363 14.0562 83.9363 14.2278C83.9363 15.3028 83.6542 16.1068 83.0536 16.6398C82.453 17.1728 81.625 17.4257 80.5421 17.4257C79.2408 17.4257 78.34 17.0102 77.8122 16.1971C77.2844 15.3841 77.0205 14.1375 77.0205 12.4302V10.3976C77.0205 8.64513 77.2844 7.38044 77.8395 6.56742C78.3946 5.75441 79.3136 5.36597 80.6149 5.36597C81.5158 5.36597 82.2255 5.5376 82.7078 5.87184C83.1901 6.19705 83.5268 6.72099 83.7179 7.40754C83.9181 8.11215 84 9.06971 84 10.2983V12.2856H79.5684V12.3218ZM79.896 7.41657C79.7595 7.58821 79.6776 7.85018 79.6321 8.22959C79.5866 8.59996 79.5684 9.16907 79.5684 9.93692V10.768H81.5067V9.93692C81.5067 9.19618 81.4885 8.62706 81.443 8.22959C81.3975 7.83211 81.2883 7.57014 81.1609 7.41657C81.0244 7.263 80.806 7.17267 80.5421 7.17267C80.2236 7.1546 80.0325 7.24494 79.896 7.41657Z" fill="#282828"/>
<path d="M32.4321 12.105L29.4292 1.30994H32.0499L33.1055 6.18803C33.3694 7.38949 33.5696 8.41931 33.697 9.27749H33.7607C33.8517 8.66322 34.0428 7.6605 34.3521 6.21513L35.4532 1.30994H38.0739L35.0528 12.105V17.2722H32.4503V12.105H32.4321Z" fill="#282828"/>
<path d="M53.2619 5.62793V17.2902H51.1871L50.9688 15.8719H50.9051C50.35 16.9469 49.4946 17.4889 48.3662 17.4889C47.5928 17.4889 47.0195 17.227 46.6464 16.7211C46.2733 16.2152 46.0913 15.4293 46.0913 14.3362V5.62793H48.7393V14.1827C48.7393 14.7066 48.803 15.077 48.9122 15.3028C49.0214 15.5287 49.2216 15.628 49.4855 15.628C49.7039 15.628 49.9223 15.5648 50.1498 15.4112C50.3682 15.2757 50.5229 15.1041 50.6139 14.8873V5.62793H53.2619Z" fill="#282828"/>
<path d="M66.8195 5.62793V17.2902H64.7448L64.5264 15.8719H64.4627C63.9076 16.9469 63.0522 17.4889 61.9239 17.4889C61.1504 17.4889 60.5771 17.227 60.204 16.7211C59.8309 16.2152 59.6489 15.4293 59.6489 14.3362V5.62793H62.2969V14.1827C62.2969 14.7066 62.3606 15.077 62.4698 15.3028C62.579 15.5196 62.7792 15.628 63.0431 15.628C63.2615 15.628 63.4799 15.5648 63.7074 15.4112C63.9258 15.2757 64.0805 15.1041 64.1715 14.8873V5.62793H66.8195Z" fill="#282828"/>
<path d="M60.45 3.43281H57.8292V17.2631H55.254V3.43281H52.6333V1.30994H60.4591V3.43281H60.45Z" fill="#282828"/>
<path d="M75.5736 7.48876C75.4189 6.74801 75.155 6.21503 74.8001 5.88983C74.4452 5.56462 73.9447 5.38395 73.326 5.38395C72.8437 5.38395 72.3796 5.51945 71.961 5.79949C71.5424 6.06146 71.2148 6.43184 70.9873 6.87448H70.9691V0.722656H68.4121V17.2721H70.596L70.8599 16.179H70.9236C71.1238 16.5765 71.4332 16.8836 71.8518 17.1185C72.2704 17.3353 72.7072 17.4708 73.2168 17.4708C74.1176 17.4708 74.7637 17.0552 75.1823 16.2422C75.6009 15.4292 75.8193 14.1374 75.8193 12.412V10.5692C75.792 9.23222 75.7283 8.21144 75.5736 7.48876ZM73.1531 12.2314C73.1531 13.0805 73.1076 13.7399 73.0439 14.2187C72.9802 14.6975 72.8437 15.0498 72.689 15.2485C72.5161 15.4473 72.2886 15.5557 72.0247 15.5557C71.8063 15.5557 71.6061 15.5105 71.4332 15.4021C71.2603 15.2937 71.1056 15.1401 70.9964 14.9414V8.33791C71.0874 8.03077 71.2421 7.7688 71.4605 7.55199C71.6789 7.35325 71.9246 7.24485 72.1703 7.24485C72.4342 7.24485 72.6526 7.35325 72.7891 7.55199C72.9438 7.7688 73.0348 8.1211 73.0985 8.59988C73.1622 9.10576 73.1895 9.80134 73.1895 10.7047V12.2404H73.1531V12.2314Z" fill="#282828"/>
</svg>
