<svg width="80" height="16" viewBox="0 0 80 16" fill="none" xmlns="http://www.w3.org/2000/svg">
<path fill-rule="evenodd" clip-rule="evenodd" d="M12.2668 15.6724V0.302368H0V15.6724H3.18685V3.40158H9.07999V15.6724H12.2668Z" fill="#E01935"/>
<path fill-rule="evenodd" clip-rule="evenodd" d="M25.2923 9.75119C26.2534 8.74331 26.7845 7.33229 26.7845 5.77008C26.7845 2.49449 24.5841 0.302368 21.2961 0.302368H14.9224V15.6976H18.1092V11.3134H21.2708C22.9148 11.3134 24.2806 10.7843 25.2923 9.75119ZM18.1092 8.26457V3.35119H21.1443C22.586 3.35119 23.4965 4.30867 23.4965 5.79528C23.4965 7.2819 22.5607 8.26457 21.1443 8.26457H18.1092Z" fill="#E01935"/>
<path fill-rule="evenodd" clip-rule="evenodd" d="M79.9997 15.6724V0.302368H76.8129L70.3633 10.2844L69.731 11.263L70.3633 11.2126V10.2844V0.302368H67.2271V15.6724H70.3886L76.8382 5.70231L77.7234 4.33386L76.8382 4.58583V5.70231V15.6724H79.9997Z" fill="#E01935"/>
<path d="M70.3633 10.2844L69.731 11.263L70.3633 11.2126V10.2844Z" fill="#E01935"/>
<path d="M76.8382 5.70231L77.7234 4.33386L76.8382 4.58583V5.70231Z" fill="#E01935"/>
<path fill-rule="evenodd" clip-rule="evenodd" d="M36.1936 0C34.0184 0 31.9697 0.806299 30.5028 2.29291C29.0105 3.77953 28.2012 5.79528 28.2012 7.9874C28.2012 10.1543 29.0105 12.1953 30.5028 13.6819C31.995 15.1685 34.0184 15.9748 36.1936 15.9748C38.3687 15.9748 40.4174 15.1685 41.9097 13.6819C43.4019 12.1953 44.2113 10.1795 44.2113 7.9874C44.2113 5.82047 43.4019 3.77953 41.9097 2.29291C40.4174 0.806299 38.394 0 36.1936 0ZM36.1936 12.9008C33.5126 12.9008 31.4133 10.7339 31.4133 7.9874C31.4133 5.24095 33.5126 3.07402 36.1936 3.07402C38.8746 3.07402 40.9739 5.24095 40.9739 7.9874C40.9739 10.7339 38.8746 12.9008 36.1936 12.9008Z" fill="#E01935"/>
<path fill-rule="evenodd" clip-rule="evenodd" d="M63.3069 12.422C64.5209 11.2378 65.1785 9.6252 65.1785 7.86142C65.1785 6.09764 64.5209 4.45984 63.3069 3.27559C62.0675 2.06614 60.3477 1.41102 58.4507 1.41102H57.0849V0H54.0245V1.41102H52.6082C50.7112 1.41102 48.9913 2.06614 47.752 3.27559C46.538 4.45984 45.8804 6.07244 45.8804 7.86142C45.8804 9.6252 46.538 11.2378 47.752 12.422C48.9913 13.6315 50.7112 14.2866 52.6082 14.2866H54.0245V16H57.0849V14.2866H58.4507C60.3477 14.2614 62.0675 13.6063 63.3069 12.422ZM54.0245 11.2126H52.4817C50.5089 11.2126 49.1178 9.82677 49.1178 7.83622C49.1178 5.84567 50.4836 4.45984 52.4817 4.45984H54.0245V11.2126ZM57.0849 4.48504H58.6025C60.5753 4.48504 61.9664 5.87087 61.9664 7.86142C61.9664 9.85197 60.6006 11.2378 58.6025 11.2378H57.0849V4.48504Z" fill="#E01935"/>
</svg>
