<svg width="88" height="19" viewBox="0 0 88 19" fill="none" xmlns="http://www.w3.org/2000/svg">
<path fill-rule="evenodd" clip-rule="evenodd" d="M8.43068 0C13.0876 0 16.8614 3.80177 16.8614 8.49332C16.8614 13.1849 13.0876 16.9866 8.43068 16.9866C3.77373 16.9866 0 13.1849 0 8.49332C0 3.80177 3.77373 0 8.43068 0Z" fill="black"/>
<path fill-rule="evenodd" clip-rule="evenodd" d="M9.47449 4.77249H8.67156C7.2263 4.77249 6.50367 5.50049 6.50367 6.55204C6.50367 7.76537 6.98543 8.33159 8.10952 9.05959L8.99273 9.62581L6.42338 13.4276H4.57666L6.82484 10.0303C5.54017 9.22137 4.81754 8.25071 4.81754 6.71382C4.81754 4.77249 6.1825 3.47827 8.75186 3.47827H11.2409V13.5894H9.47449V4.77249Z" fill="white"/>
<path fill-rule="evenodd" clip-rule="evenodd" d="M40.5473 15.2879C40.7882 15.3688 41.1094 15.4497 41.5911 15.4497C43.3575 15.4497 44.0802 14.2364 45.0437 11.8906L48.978 2.42664H46.8904L44.2408 9.22129L41.4305 2.42664H39.1021L43.0364 11.8906C42.6349 12.8613 42.2334 13.5084 41.3502 13.5084C40.9488 13.5084 40.7079 13.4275 40.467 13.3466V15.2879H40.5473ZM52.3503 15.5306C49.3795 15.5306 47.9342 13.8319 47.9342 10.6773C47.9342 7.84618 49.3795 5.82396 52.1897 5.82396C53.3138 5.82396 54.1167 5.98574 54.5984 6.3093V8.08885C54.1167 7.84618 53.3138 7.52263 52.4306 7.52263C50.9853 7.52263 50.1824 8.57418 50.1824 10.5964C50.1824 12.5377 50.8247 13.7511 52.4306 13.7511C53.3941 13.7511 54.0364 13.5084 54.5984 13.104V14.8835C54.1167 15.2879 53.3941 15.5306 52.3503 15.5306ZM55.2408 13.4275V15.3688C55.2408 15.3688 55.562 15.5306 56.124 15.5306C58.051 15.5306 58.5328 14.2364 58.6131 11.0817L58.7736 7.76529H61.0218V15.3688H63.27V5.98574H56.9269L56.7663 11.0008C56.686 13.0231 56.5255 13.5893 55.8028 13.5893C55.4817 13.5893 55.2408 13.4275 55.2408 13.4275ZM66.3211 18.1999C68.4087 18.1999 69.1313 16.7439 69.7737 14.8026L72.6642 5.98574H70.4963L68.4087 13.0231L66.3211 5.98574H63.9926L67.2043 15.6924C66.9634 16.1777 66.6423 16.4204 65.9999 16.4204C65.5985 16.4204 65.2773 16.2586 64.9561 16.0159V17.7955C65.0364 17.8764 65.4379 18.1999 66.3211 18.1999ZM73.4671 5.98574V15.2879H75.7153V7.76529H79.1679V5.98574H73.4671ZM80.4525 5.98574V15.2879H82.3796L85.8321 9.54485V15.2879H88V5.98574H86.073L82.6204 11.7288V5.98574H80.4525Z" fill="black"/>
<path fill-rule="evenodd" clip-rule="evenodd" d="M34.9273 8.49332C34.9273 13.1849 31.1536 16.9866 26.4966 16.9866C21.8397 16.9866 18.0659 13.1849 18.0659 8.49332C18.0659 3.80177 21.8397 0 26.4966 0C31.1536 0 34.9273 3.80177 34.9273 8.49332Z" fill="#242729"/>
<path fill-rule="evenodd" clip-rule="evenodd" d="M23.9269 2.99285C19.3502 6.06662 23.7663 13.0231 28.4232 10.1111L34.6057 6.14751C33.7225 3.15463 31.3138 0.889742 28.2627 0.161743L23.9269 2.99285Z" fill="#FF9D7C"/>
<path fill-rule="evenodd" clip-rule="evenodd" d="M23.9269 2.99285C19.3502 6.06662 23.7663 13.0231 28.4232 10.1111L34.6057 6.14751C33.7225 3.15463 31.3138 0.889742 28.2627 0.161743L23.9269 2.99285Z" fill="#FF6432"/>
<path fill-rule="evenodd" clip-rule="evenodd" d="M18.3872 10.839L24.5697 6.87548C26.4967 5.58126 29.1464 6.22837 30.3507 8.1697C31.6354 10.111 30.9931 12.7804 29.0661 13.9937L24.7303 16.7439C21.6792 16.0968 19.2704 13.8319 18.3872 10.839Z" fill="#FFE66E"/>
</svg>
