<svg width="10" height="10" viewBox="0 0 10 10" fill="none" xmlns="http://www.w3.org/2000/svg">
<path d="M4.62689 0.258827C4.75593 -0.0862752 5.24407 -0.0862758 5.37311 0.258826L6.38274 2.95892C6.43872 3.10864 6.57878 3.21039 6.73846 3.21737L9.6184 3.34321C9.98649 3.35929 10.1373 3.82354 9.84899 4.05291L7.59304 5.8475C7.46796 5.94701 7.41446 6.11165 7.45717 6.26568L8.22744 9.04354C8.32589 9.39859 7.93098 9.68551 7.62373 9.48216L5.21985 7.89119C5.08656 7.80297 4.91344 7.80297 4.78015 7.89119L2.37627 9.48216C2.06902 9.68551 1.67411 9.39859 1.77256 9.04354L2.54283 6.26568C2.58554 6.11165 2.53204 5.94701 2.40695 5.8475L0.151006 4.05291C-0.137329 3.82354 0.013513 3.35929 0.381601 3.34321L3.26154 3.21737C3.42122 3.21039 3.56128 3.10864 3.61726 2.95892L4.62689 0.258827Z" fill="#FFBC64"/>
</svg>
