<svg width="51" height="64" viewBox="0 0 51 64" fill="none" xmlns="http://www.w3.org/2000/svg">
<path fill-rule="evenodd" clip-rule="evenodd" d="M32.2506 43.5974C32.6608 43.5974 32.9934 43.93 32.9934 44.3402V56.0269C32.9934 56.4371 32.6608 56.7697 32.2506 56.7697C31.8404 56.7697 31.5078 56.4371 31.5078 56.0269V44.3402C31.5078 43.93 31.8404 43.5974 32.2506 43.5974Z" fill="#1E48B5"/>
<path fill-rule="evenodd" clip-rule="evenodd" d="M17.9381 43.5974C18.3483 43.5974 18.6809 43.93 18.6809 44.3402V56.0269C18.6809 56.4371 18.3483 56.7697 17.9381 56.7697C17.5279 56.7697 17.1953 56.4371 17.1953 56.0269V44.3402C17.1953 43.93 17.5279 43.5974 17.9381 43.5974Z" fill="#1E48B5"/>
<path fill-rule="evenodd" clip-rule="evenodd" d="M25.2183 18.2927C21.9638 18.2927 19.3254 20.931 19.3254 24.1856C19.3254 27.4401 21.9638 30.0784 25.2183 30.0784C28.4728 30.0784 31.1112 27.4401 31.1112 24.1856C31.1112 20.931 28.4728 18.2927 25.2183 18.2927ZM17.8398 24.1856C17.8398 20.1106 21.1433 16.8071 25.2183 16.8071C29.2933 16.8071 32.5968 20.1106 32.5968 24.1856C32.5968 28.2606 29.2933 31.564 25.2183 31.564C21.1433 31.564 17.8398 28.2606 17.8398 24.1856Z" fill="#1E48B5"/>
<path fill-rule="evenodd" clip-rule="evenodd" d="M16.8987 35.7239C14.932 35.7239 13.3333 37.3226 13.3333 39.2893V56.027C13.3333 56.4372 13.0007 56.7698 12.5905 56.7698C12.1802 56.7698 11.8477 56.4372 11.8477 56.027V39.2893C11.8477 36.5021 14.1115 34.2383 16.8987 34.2383H33.5373C36.3245 34.2383 38.5884 36.5021 38.5884 39.2893V56.0765C38.5884 56.4868 38.2558 56.8193 37.8456 56.8193C37.4353 56.8193 37.1028 56.4868 37.1028 56.0765V39.2893C37.1028 37.3226 35.5041 35.7239 33.5373 35.7239H16.8987Z" fill="#1E48B5"/>
<path fill-rule="evenodd" clip-rule="evenodd" d="M25.2174 34.1887C25.6276 34.1887 25.9602 34.5213 25.9602 34.9315V42.6566C25.9602 43.0668 25.6276 43.3994 25.2174 43.3994C24.8072 43.3994 24.4746 43.0668 24.4746 42.6566V34.9315C24.4746 34.5213 24.8072 34.1887 25.2174 34.1887Z" fill="#1E48B5"/>
<path fill-rule="evenodd" clip-rule="evenodd" d="M25.2179 7.92358L50.3244 13.741V14.3313C50.3244 38.5412 44.2025 50.9892 37.93 57.3829C34.7976 60.5758 31.6532 62.231 29.2764 63.0869C28.0891 63.5144 27.0948 63.742 26.3905 63.863C26.0383 63.9235 25.7584 63.9573 25.5628 63.9762C25.465 63.9856 25.3882 63.9913 25.334 63.9947C25.3069 63.9964 25.2855 63.9975 25.2698 63.9982L25.2507 63.999L25.2445 63.9992L25.2422 63.9993C25.2413 63.9993 25.2405 63.9994 25.2179 63.2569C25.1937 63.9993 25.1929 63.9993 25.192 63.9993L25.1898 63.9992L25.1835 63.9989L25.1645 63.9981C25.1488 63.9973 25.1274 63.9962 25.1003 63.9944C25.0461 63.9909 24.9693 63.9851 24.8715 63.9755C24.676 63.9563 24.3961 63.9219 24.0439 63.8607C23.3397 63.7384 22.3455 63.509 21.1583 63.0795C18.7817 62.2197 15.6377 60.5599 12.5055 57.364C6.2334 50.9644 0.111328 38.5167 0.111328 14.3313V13.741L25.2179 7.92358ZM25.2179 63.2569L25.1937 63.9993L25.2171 64.0001L25.2405 63.9994L25.2179 63.2569ZM25.2186 62.5133C25.225 62.513 25.2327 62.5125 25.2415 62.512C25.2795 62.5096 25.3396 62.5052 25.4202 62.4974C25.5815 62.4819 25.825 62.4527 26.139 62.3988C26.7671 62.2909 27.6762 62.0841 28.7731 61.6891C30.9644 60.9 33.911 59.3581 36.8695 56.3425C42.7302 50.3686 48.739 38.5018 48.8376 14.9214L25.2179 9.44854L1.59816 14.9214C1.69687 38.477 7.70547 50.344 13.5665 56.3242C16.5253 59.3431 19.4722 60.8896 21.6638 61.6825C22.7607 62.0794 23.6699 62.2879 24.2981 62.397C24.6121 62.4515 24.8557 62.4812 25.017 62.497C25.0976 62.505 25.1577 62.5095 25.1957 62.5119C25.2045 62.5125 25.2122 62.5129 25.2186 62.5133Z" fill="#1E48B5"/>
<path fill-rule="evenodd" clip-rule="evenodd" d="M25.2176 0L41.6786 3.85258C42.0781 3.94607 42.3261 4.34567 42.2326 4.74511C42.1391 5.14455 41.7395 5.39258 41.3401 5.29909L25.2171 1.52562L9.04456 5.2992C8.64506 5.39242 8.24563 5.14413 8.15241 4.74462C8.05919 4.34512 8.30749 3.94569 8.70699 3.85247L25.2176 0Z" fill="#1E48B5"/>
<path d="M20.3163 12.8457L3.82617 16.6587C3.97473 25.5723 5.01465 32.6041 6.54976 38.1999C6.8964 32.5051 8.28296 26.8103 11.3037 22.0069C13.6311 18.3424 16.7508 15.3217 20.3163 12.8457Z" fill="#1976D2"/>
<path d="M30.0703 12.8457L46.5604 16.6587C46.4119 25.5723 45.3719 32.6041 43.8368 38.1999C43.4902 32.5051 42.1036 26.8103 39.0829 22.0069C36.7555 18.3424 33.6357 15.3217 30.0703 12.8457Z" fill="#1976D2"/>
</svg>
