<svg width="64" height="64" viewBox="0 0 64 64" fill="none" xmlns="http://www.w3.org/2000/svg">
<path fill-rule="evenodd" clip-rule="evenodd" d="M50.7045 10.1109C51.0721 10.3124 51.2066 10.7737 51.0052 11.1412L43.821 24.2448C43.6195 24.6123 43.1582 24.7469 42.7907 24.5454C42.4232 24.3439 42.2886 23.8826 42.4901 23.5151L49.6743 10.4115C49.8758 10.044 50.337 9.90943 50.7045 10.1109Z" fill="#1E48B5"/>
<path fill-rule="evenodd" clip-rule="evenodd" d="M51.7561 18.3652C50.9104 18.3652 50.1877 19.0879 50.1877 19.9336V21.5526C50.1877 22.3982 50.9104 23.1209 51.7561 23.1209C52.6018 23.1209 53.3245 22.3982 53.3245 21.5526V19.9336C53.3245 19.0879 52.6018 18.3652 51.7561 18.3652ZM48.6699 19.9336C48.6699 18.2496 50.0721 16.8474 51.7561 16.8474C53.44 16.8474 54.8423 18.2496 54.8423 19.9336V21.5526C54.8423 23.2365 53.44 24.6387 51.7561 24.6387C50.0721 24.6387 48.6699 23.2365 48.6699 21.5526V19.9336Z" fill="#1E48B5"/>
<path fill-rule="evenodd" clip-rule="evenodd" d="M41.9416 11.5351C41.0959 11.5351 40.3733 12.2578 40.3733 13.1035V14.7225C40.3733 15.5682 41.0959 16.2909 41.9416 16.2909C42.8272 16.2909 43.51 15.579 43.51 14.7225V13.1035C43.51 12.2578 42.7873 11.5351 41.9416 11.5351ZM38.8555 13.1035C38.8555 11.4196 40.2577 10.0173 41.9416 10.0173C43.6256 10.0173 45.0278 11.4196 45.0278 13.1035V14.7225C45.0278 16.3956 43.6869 17.8086 41.9416 17.8086C40.2577 17.8086 38.8555 16.4064 38.8555 14.7225V13.1035Z" fill="#1E48B5"/>
<path fill-rule="evenodd" clip-rule="evenodd" d="M0 34.6561C0 18.452 13.1398 5.31226 29.3439 5.31226C29.763 5.31226 30.1028 5.65202 30.1028 6.07115V33.8972H57.9288C58.348 33.8972 58.6877 34.237 58.6877 34.6561C58.6877 50.8602 45.548 64 29.3439 64C13.1398 64 0 50.8602 0 34.6561ZM28.585 6.8402C13.5698 7.2424 1.51779 19.544 1.51779 34.6561C1.51779 50.022 13.978 62.4822 29.3439 62.4822C44.456 62.4822 56.7576 50.4302 57.1598 35.415H29.3439C28.9247 35.415 28.585 35.0753 28.585 34.6561V6.8402Z" fill="#1E48B5"/>
<path fill-rule="evenodd" clip-rule="evenodd" d="M33.8965 0.758893C33.8965 0.339768 34.2363 0 34.6554 0C50.8595 0 63.9992 13.1398 63.9992 29.3439C63.9992 29.763 63.6595 30.1028 63.2404 30.1028H34.6554C34.2363 30.1028 33.8965 29.763 33.8965 29.3439V0.758893ZM35.4143 1.52794V28.585H62.4713C62.0759 13.822 50.1773 1.92339 35.4143 1.52794Z" fill="#1E48B5"/>
<path fill-rule="evenodd" clip-rule="evenodd" d="M26.9854 24.0695C27.1042 24.4714 26.8746 24.8935 26.4726 25.0123C22.3368 26.2342 19.3264 30.0912 19.3264 34.6054C19.3264 40.1539 23.8412 44.6228 29.3438 44.6228C33.9065 44.6228 37.7144 41.6145 38.9369 37.4766C39.0557 37.0746 39.4778 36.845 39.8798 36.9638C40.2817 37.0826 40.5113 37.5047 40.3925 37.9066C38.9842 42.6731 34.5961 46.1406 29.3438 46.1406C23.0076 46.1406 17.8086 40.9968 17.8086 34.6054C17.8086 29.4058 21.2741 24.9656 26.0426 23.5567C26.4445 23.4379 26.8666 23.6675 26.9854 24.0695Z" fill="#1E48B5"/>
<path d="M47.3546 39.1084C45.3309 47.2032 38.0456 53.1732 29.3436 53.1732C19.1238 53.1732 10.8266 44.876 10.8266 34.6562C10.8266 26.1566 16.5942 18.9724 24.4361 16.7969V13.6602C14.9246 15.8862 7.79102 24.4364 7.79102 34.6562C7.79102 46.5455 17.4543 56.2088 29.3436 56.2088C39.7151 56.2088 48.3665 48.8728 50.4408 39.1084H47.3546Z" fill="#1976D2"/>
</svg>
