<svg width="64" height="56" viewBox="0 0 64 56" fill="none" xmlns="http://www.w3.org/2000/svg">
<path fill-rule="evenodd" clip-rule="evenodd" d="M0.739599 24.1912C1.14807 24.1912 1.4792 24.5223 1.4792 24.9309V40.909C1.4792 42.3322 2.63433 43.5227 4.09245 43.5227H15.2357C15.6442 43.5227 15.9753 43.8539 15.9753 44.2624C15.9753 44.671 15.6442 45.0022 15.2357 45.0022H4.09245C1.80327 45.0022 0 43.1351 0 40.909V24.9309C0 24.5223 0.33113 24.1912 0.739599 24.1912Z" fill="#1E48B5"/>
<path fill-rule="evenodd" clip-rule="evenodd" d="M6.34217 16.7738C5.87284 18.7618 7.10364 20.7539 9.09126 21.2233C11.0789 21.6927 13.0706 20.4617 13.5399 18.4737C14.0093 16.4857 12.7785 14.4936 10.7909 14.0242C8.80324 13.5548 6.8115 14.7858 6.34217 16.7738ZM8.75134 22.6631C5.96868 22.0059 4.24555 19.217 4.90261 16.4338C5.55967 13.6507 8.34812 11.9273 11.1308 12.5844C13.9134 13.2416 15.6366 16.0305 14.9795 18.8137C14.3224 21.5968 11.534 23.3202 8.75134 22.6631Z" fill="#1E48B5"/>
<path fill-rule="evenodd" clip-rule="evenodd" d="M7.19955 25.6706C6.22743 25.6706 5.42451 26.4737 5.42451 27.446V35.0898C5.42451 37.4922 7.36149 39.4295 9.76349 39.4295H14.4476V34.8926C14.4476 34.484 14.7788 34.1528 15.1872 34.1528C15.5957 34.1528 15.9268 34.484 15.9268 34.8926V40.1693C15.9268 40.5778 15.5957 40.909 15.1872 40.909H9.76349C6.54455 40.909 3.94531 38.3093 3.94531 35.0898V27.446C3.94531 25.6566 5.41049 24.1912 7.19955 24.1912H12.9191C14.6096 24.1912 15.9761 25.558 15.9761 27.2487V30.5528C15.9761 30.9614 15.645 31.2925 15.2365 31.2925C14.8281 31.2925 14.4969 30.9614 14.4969 30.5528V27.2487C14.4969 26.375 13.7926 25.6706 12.9191 25.6706H7.19955Z" fill="#1E48B5"/>
<path fill-rule="evenodd" clip-rule="evenodd" d="M9.9603 25.9666C10.3688 25.9666 10.6999 26.2977 10.6999 26.7063V30.7501C10.6999 31.4265 11.2563 31.983 11.9326 31.983H19.4765C19.8849 31.983 20.2161 32.3142 20.2161 32.7227C20.2161 33.1313 19.8849 33.4625 19.4765 33.4625H11.9326C10.4394 33.4625 9.2207 32.2436 9.2207 30.7501V26.7063C9.2207 26.2977 9.55183 25.9666 9.9603 25.9666Z" fill="#1E48B5"/>
<path fill-rule="evenodd" clip-rule="evenodd" d="M14.4473 40.1692C14.4473 39.7606 14.7784 39.4294 15.1869 39.4294H17.7015C19.0961 39.4294 20.2161 40.5497 20.2161 41.9445V50.624C20.2161 51.0325 19.885 51.3637 19.4765 51.3637C19.0681 51.3637 18.7369 51.0325 18.7369 50.624V41.9445C18.7369 41.3668 18.2792 40.9089 17.7015 40.9089H15.1869C14.7784 40.9089 14.4473 40.5777 14.4473 40.1692Z" fill="#1E48B5"/>
<path fill-rule="evenodd" clip-rule="evenodd" d="M8.72722 43.4734C9.13569 43.4734 9.46682 43.8046 9.46682 44.2131V51.4131C9.46682 51.6074 9.39037 51.794 9.25399 51.9324L5.90114 55.3351C5.61443 55.6261 5.14615 55.6295 4.85522 55.3427C4.56429 55.056 4.56087 54.5876 4.84759 54.2966L7.98762 51.1099V44.2131C7.98762 43.8046 8.31875 43.4734 8.72722 43.4734Z" fill="#1E48B5"/>
<path fill-rule="evenodd" clip-rule="evenodd" d="M8.20093 50.894C8.48755 50.6029 8.95582 50.5994 9.24685 50.886L12.5011 54.0909C12.7921 54.3775 12.7957 54.8458 12.5091 55.1368C12.2225 55.4279 11.7542 55.4314 11.4631 55.1448L8.20891 51.9399C7.91788 51.6533 7.91431 51.185 8.20093 50.894Z" fill="#1E48B5"/>
<path fill-rule="evenodd" clip-rule="evenodd" d="M63.2607 24.1912C63.6691 24.1912 64.0003 24.5223 64.0003 24.9309V40.909C64.0003 43.1351 62.197 45.0022 59.9078 45.0022H48.8138C48.4053 45.0022 48.0742 44.671 48.0742 44.2624C48.0742 43.8539 48.4053 43.5227 48.8138 43.5227H59.9078C61.3659 43.5227 62.5211 42.3322 62.5211 40.909V24.9309C62.5211 24.5223 62.8522 24.1912 63.2607 24.1912Z" fill="#1E48B5"/>
<path fill-rule="evenodd" clip-rule="evenodd" d="M53.187 14.0321C51.1993 14.5015 49.9685 16.4936 50.4379 18.4816C50.9072 20.4695 52.8989 21.7005 54.8866 21.2311C56.8742 20.7617 58.105 18.7696 57.6357 16.7817C57.1663 14.7937 55.1746 13.5627 53.187 14.0321ZM48.9983 18.8215C48.3412 16.0384 50.0644 13.2495 52.847 12.5923C55.6297 11.9351 58.4181 13.6586 59.0752 16.4417C59.7323 19.2248 58.0091 22.0138 55.2265 22.6709C52.4438 23.3281 49.6554 21.6047 48.9983 18.8215Z" fill="#1E48B5"/>
<path fill-rule="evenodd" clip-rule="evenodd" d="M48.0234 27.2487C48.0234 25.558 49.39 24.1912 51.0804 24.1912H56.8C58.5891 24.1912 60.0543 25.6566 60.0543 27.446V35.0898C60.0543 38.3093 57.455 40.909 54.2361 40.909H48.8123C48.4039 40.909 48.0727 40.5778 48.0727 40.1693V34.8926C48.0727 34.484 48.4039 34.1528 48.8123 34.1528C49.2208 34.1528 49.5519 34.484 49.5519 34.8926V39.4295H54.2361C56.6381 39.4295 58.5751 37.4922 58.5751 35.0898V27.446C58.5751 26.4737 57.7721 25.6706 56.8 25.6706H51.0804C50.2069 25.6706 49.5026 26.375 49.5026 27.2487V30.5528C49.5026 30.9614 49.1715 31.2925 48.763 31.2925C48.3546 31.2925 48.0234 30.9614 48.0234 30.5528V27.2487Z" fill="#1E48B5"/>
<path fill-rule="evenodd" clip-rule="evenodd" d="M54.0409 25.9666C54.4494 25.9666 54.7805 26.2977 54.7805 26.7063V30.7501C54.7805 32.2436 53.5619 33.4625 52.0687 33.4625H44.5248C44.1163 33.4625 43.7852 33.1313 43.7852 32.7227C43.7852 32.3142 44.1163 31.983 44.5248 31.983H52.0687C52.7449 31.983 53.3013 31.4265 53.3013 30.7501V26.7063C53.3013 26.2977 53.6325 25.9666 54.0409 25.9666Z" fill="#1E48B5"/>
<path fill-rule="evenodd" clip-rule="evenodd" d="M43.7852 41.9445C43.7852 40.5497 44.9052 39.4294 46.2998 39.4294H48.8144C49.2229 39.4294 49.554 39.7606 49.554 40.1692C49.554 40.5777 49.2229 40.9089 48.8144 40.9089H46.2998C45.7221 40.9089 45.2644 41.3668 45.2644 41.9445V50.624C45.2644 51.0325 44.9332 51.3637 44.5248 51.3637C44.1163 51.3637 43.7852 51.0325 43.7852 50.624V41.9445Z" fill="#1E48B5"/>
<path fill-rule="evenodd" clip-rule="evenodd" d="M55.224 43.4734C55.6324 43.4734 55.9636 43.8046 55.9636 44.2131V51.1067L59.1491 54.2928C59.4379 54.5817 59.4379 55.0501 59.1491 55.3389C58.8603 55.6278 58.392 55.6278 58.1032 55.3389L54.701 51.9362C54.5623 51.7975 54.4844 51.6093 54.4844 51.4131V44.2131C54.4844 43.8046 54.8155 43.4734 55.224 43.4734Z" fill="#1E48B5"/>
<path fill-rule="evenodd" clip-rule="evenodd" d="M55.7468 50.89C56.0356 51.1788 56.0356 51.6471 55.7468 51.9359L52.5419 55.1408C52.253 55.4297 51.7848 55.4297 51.4959 55.1408C51.2071 54.852 51.2071 54.3837 51.4959 54.0949L54.7008 50.89C54.9897 50.6011 55.458 50.6011 55.7468 50.89Z" fill="#1E48B5"/>
<path d="M38.9517 34.596H32.5912H26.2799C25.3431 34.596 24.6035 33.8564 24.6035 32.9196C24.6035 31.9828 25.3431 31.2432 26.2799 31.2432H38.9517C39.8886 31.2432 40.6282 31.9828 40.6282 32.9196C40.5789 33.8564 39.8393 34.596 38.9517 34.596Z" fill="#1976D2"/>
<path d="M32.5916 36.2734V51.4132L28.9922 54.8159" fill="white"/>
<path fill-rule="evenodd" clip-rule="evenodd" d="M32.5929 35.5337C33.0014 35.5337 33.3325 35.8649 33.3325 36.2734V51.4132C33.3325 51.6166 33.2487 51.811 33.1009 51.9508L29.5015 55.3535C29.2047 55.6341 28.7366 55.6209 28.456 55.324C28.1754 55.0271 28.1886 54.559 28.4855 54.2783L31.8533 51.0945V36.2734C31.8533 35.8649 32.1844 35.5337 32.5929 35.5337Z" fill="#1E48B5"/>
<path fill-rule="evenodd" clip-rule="evenodd" d="M32.0799 50.8785C32.3751 50.5961 32.8433 50.6065 33.1256 50.9017L36.3799 54.3039C36.6622 54.599 36.6518 55.0672 36.3566 55.3496C36.0615 55.6319 35.5933 55.6215 35.3109 55.3263L32.0567 51.9242C31.7744 51.629 31.7848 51.1608 32.0799 50.8785Z" fill="#1E48B5"/>
<path fill-rule="evenodd" clip-rule="evenodd" d="M36.6341 18.5198C37.0426 18.5198 37.3737 18.851 37.3737 19.2595V28.1856C37.3737 28.5941 37.0426 28.9253 36.6341 28.9253C36.2257 28.9253 35.8945 28.5941 35.8945 28.1856V19.2595C35.8945 18.851 36.2257 18.5198 36.6341 18.5198Z" fill="#1E48B5"/>
<path fill-rule="evenodd" clip-rule="evenodd" d="M28.7597 5.63179C28.3154 7.51373 29.4806 9.39957 31.3622 9.84395C33.2438 10.2883 35.1293 9.12296 35.5736 7.24103C36.0179 5.35909 34.8528 3.47324 32.9712 3.02887C31.0896 2.58449 29.204 3.74986 28.7597 5.63179ZM31.0223 11.2838C28.3456 10.6516 26.6881 7.96893 27.3202 5.29182C27.9522 2.6147 30.6344 0.956919 33.3111 1.58906C35.9877 2.2212 37.6452 4.90389 37.0132 7.58101C36.3812 10.2581 33.6989 11.9159 31.0223 11.2838Z" fill="#1E48B5"/>
<path fill-rule="evenodd" clip-rule="evenodd" d="M26.8719 13.9829C25.7518 13.9829 24.8503 14.8846 24.8503 16.0048V26.7062C24.8503 27.1147 24.5192 27.4459 24.1107 27.4459C23.7022 27.4459 23.3711 27.1147 23.3711 26.7062V16.0048C23.3711 14.0675 24.9349 12.5034 26.8719 12.5034H37.4728C39.4098 12.5034 40.9736 14.0675 40.9736 16.0048V25.6706C40.9736 26.0791 40.6424 26.4103 40.234 26.4103C39.8255 26.4103 39.4944 26.0791 39.4944 25.6706V16.0048C39.4944 14.8846 38.5928 13.9829 37.4728 13.9829H26.8719Z" fill="#1E48B5"/>
<path fill-rule="evenodd" clip-rule="evenodd" d="M27.6615 18.5198C28.0699 18.5198 28.4011 18.851 28.4011 19.2595V28.1856C28.4011 28.5941 28.0699 28.9253 27.6615 28.9253C27.253 28.9253 26.9219 28.5941 26.9219 28.1856V19.2595C26.9219 18.851 27.253 18.5198 27.6615 18.5198Z" fill="#1E48B5"/>
<path fill-rule="evenodd" clip-rule="evenodd" d="M32.1498 12.553C32.5582 12.553 32.8894 12.8842 32.8894 13.2927V18.1749C32.8894 18.5834 32.5582 18.9146 32.1498 18.9146C31.7413 18.9146 31.4102 18.5834 31.4102 18.1749V13.2927C31.4102 12.8842 31.7413 12.553 32.1498 12.553Z" fill="#1E48B5"/>
<path fill-rule="evenodd" clip-rule="evenodd" d="M28.4994 36.9639C28.9078 36.9639 29.239 37.2951 29.239 37.7036V48.7009C29.239 49.1094 28.9078 49.4406 28.4994 49.4406C28.0909 49.4406 27.7598 49.1094 27.7598 48.7009V37.7036C27.7598 37.2951 28.0909 36.9639 28.4994 36.9639Z" fill="#1E48B5"/>
<path fill-rule="evenodd" clip-rule="evenodd" d="M36.388 36.9639C36.7965 36.9639 37.1276 37.2951 37.1276 37.7036V48.7009C37.1276 49.1094 36.7965 49.4406 36.388 49.4406C35.9796 49.4406 35.6484 49.1094 35.6484 48.7009V37.7036C35.6484 37.2951 35.9796 36.9639 36.388 36.9639Z" fill="#1E48B5"/>
</svg>
